<?xml version="1.0" standalone="no"?>
<!DOCTYPE svg PUBLIC "-//W3C//DTD SVG 1.1//EN" "http://www.w3.org/Graphics/SVG/1.1/DTD/svg11.dtd" >
<svg xmlns="http://www.w3.org/2000/svg" xmlns:xlink="http://www.w3.org/1999/xlink" version="1.1">
<metadata>
Created by FontForge 20170731 at Fri Aug  7 22:11:18 2020
 By Aleksey,,,
copyright missing
</metadata>
<defs>
<font id="Branding-SemiLight" horiz-adv-x="0" >
  <font-face 
    font-family="Branding SemiLight"
    font-weight="400"
    font-stretch="normal"
    units-per-em="2048"
    panose-1="0 0 5 0 0 0 0 0 0 0"
    ascent="1577"
    descent="-471"
    x-height="958"
    cap-height="1323"
    bbox="-1329 -428 2767 1716"
    underline-thickness="102"
    underline-position="-307"
    unicode-range="U+0020-FB02"
  />
<missing-glyph horiz-adv-x="849" 
d="M424 184l-344 346l344 344l344 -344z" />
    <glyph glyph-name="fi" unicode="fi" horiz-adv-x="1058" 
d="M887 956v-956q-24 -6 -56 -6q-30 0 -57 6v864l-450 2v-868q-24 -6 -56 -6q-29 0 -53 6v868h-143q-6 24 -6 45q0 23 6 47h143v11q0 98 33.5 175t89 122t120 67.5t132.5 22.5q179 0 293 -109q-3 -24 -22.5 -47.5t-45.5 -30.5q-51 43 -101.5 63.5t-127.5 20.5
q-49 0 -94 -14.5t-83.5 -45t-61.5 -85t-23 -125.5v-25z" />
    <glyph glyph-name="fl" unicode="fl" horiz-adv-x="1091" 
d="M614 1356q166 0 306 -74v-1282q-24 -6 -58 -6q-28 0 -55 6l-6 1214q-88 39 -189 39q-126 0 -207 -66t-81 -208v-21l264 -2q6 -16 6 -47q0 -29 -6 -45l-264 2v-868q-24 -6 -56 -6q-29 0 -53 6v868h-143q-6 24 -6 45q0 23 6 47h143v9q0 80 22.5 145.5t61 110t90 75
t108 44.5t117.5 14z" />
    <glyph glyph-name=".notdef" horiz-adv-x="849" 
d="M424 184l-344 346l344 344l344 -344z" />
    <glyph glyph-name=".null" 
 />
    <glyph glyph-name="nonmarkingreturn" horiz-adv-x="682" 
 />
    <glyph glyph-name="space" unicode=" " horiz-adv-x="518" 
 />
    <glyph glyph-name="exclam" unicode="!" horiz-adv-x="489" 
d="M246 303q-9 0 -33 4q-29 541 -29 1012q30 6 62 6q31 0 61 -6q-3 -546 -31 -1012q-20 -4 -30 -4zM246 -20q-36 0 -61 25t-25 61q0 35 24.5 59.5t61.5 24.5q34 0 59 -24.5t25 -59.5q0 -36 -25 -61t-59 -25z" />
    <glyph glyph-name="quotedbl" unicode="&#x22;" horiz-adv-x="614" 
d="M188 942q-16 0 -28 6l-33 387q31 17 61 17q31 0 62 -17l-33 -387q-15 -6 -29 -6zM426 942q-17 0 -29 6l-32 387q27 15 61 15t61 -15l-32 -387q-15 -6 -29 -6z" />
    <glyph glyph-name="numbersign" unicode="#" horiz-adv-x="1337" 
d="M1237 764h-201l-123 -371h203q3 -53 -31 -96h-202l-131 -393q-57 -18 -107 0l131 393h-385l-131 -393q-56 -18 -106 0l131 393h-217q-6 60 30 96h217l123 371h-219q-6 50 31 96h219l133 400q60 15 107 0l-134 -400h386l133 400q59 15 106 0l-133 -400h201q6 -47 -31 -96z
M807 393l123 371h-385l-123 -371h385z" />
    <glyph glyph-name="dollar" unicode="$" horiz-adv-x="1046" 
d="M954 420q0 -154 -103 -243.5t-273 -100.5v-180q-5 -1 -14.5 -3t-18 -3t-15.5 -1q-8 0 -25.5 3.5t-19.5 3.5v180q-128 5 -230 45.5t-159 89.5q14 56 68 86q125 -106 321 -119v445q-374 38 -374 301q0 133 101.5 220t272.5 99v172q28 4 45 4q20 0 48 -4v-172
q107 -5 197 -36.5t145 -71.5q-23 -53 -58 -88q-124 81 -284 92v-406q182 -21 279 -96.5t97 -216.5zM221 942q0 -87 61 -133.5t203 -65.5v396q-125 -7 -194.5 -59.5t-69.5 -137.5zM578 178q124 10 193 69t69 150q0 94 -55.5 147.5t-206.5 69.5v-436z" />
    <glyph glyph-name="percent" unicode="%" horiz-adv-x="1497" 
d="M358 709q-130 0 -208 85t-78 214q0 130 77.5 214.5t208.5 84.5q130 0 207.5 -84.5t77.5 -214.5q0 -129 -78 -214t-207 -85zM233 -96l879 1356q62 15 111 0l-879 -1356q-69 -12 -111 0zM358 797q92 0 140.5 58.5t48.5 152.5q0 93 -49 153t-140 60t-140.5 -60t-49.5 -153
t49 -152t141 -59zM1139 -20q-132 0 -209.5 84.5t-77.5 214.5q0 131 77.5 215t209.5 84q129 0 206.5 -84.5t77.5 -214.5q0 -129 -77.5 -214t-206.5 -85zM1139 68q92 0 140 58.5t48 152.5q0 93 -48.5 153t-139.5 60q-93 0 -142 -60t-49 -153q0 -94 49 -152.5t142 -58.5z" />
    <glyph glyph-name="ampersand" unicode="&#x26;" horiz-adv-x="1251" 
d="M1192 694q0 -27 -6 -51h-217v-534q-188 -129 -402 -129q-213 0 -331.5 96t-118.5 276q0 128 68.5 215.5t187.5 128.5q-95 37 -148 111t-53 184q0 151 106 244.5t269 93.5q199 0 317 -102q-15 -55 -61 -84q-106 88 -254 88q-120 0 -193 -65.5t-73 -174.5q0 -111 81 -178.5
t248 -67.5h574q6 -24 6 -51zM856 160v483h-266q-175 0 -268 -76.5t-93 -208.5q0 -131 88 -205.5t252 -74.5q166 0 287 82z" />
    <glyph glyph-name="quotesingle" unicode="'" horiz-adv-x="376" 
d="M188 942q-16 0 -28 6l-33 387q31 17 61 17q31 0 62 -17l-33 -387q-15 -6 -29 -6z" />
    <glyph glyph-name="parenleft" unicode="(" horiz-adv-x="530" 
d="M352 -356q-237 402 -237 874q3 464 237 875q24 6 51.5 -4t36.5 -31q-195 -372 -198 -840q0 -463 198 -840q-9 -21 -36.5 -30.5t-51.5 -3.5z" />
    <glyph glyph-name="parenright" unicode=")" horiz-adv-x="530" 
d="M178 -356q-24 -6 -51.5 3.5t-36.5 30.5q199 379 199 840q-3 460 -199 840q9 21 36.5 31t51.5 4q235 -413 238 -875q0 -470 -238 -874z" />
    <glyph glyph-name="asterisk" unicode="*" horiz-adv-x="694" 
d="M399 1116q0 -10 -2 -16l154 -72q-12 -61 -64 -88l-116 127q-12 -8 -23 -8l-20 -172q-61 -6 -103 33l84 153q-8 5 -16 21l-170 -35q-23 57 0 108l170 -32q3 13 14 20l-86 154q45 40 105 34l20 -174q14 0 23 -6l116 127q54 -29 66 -86l-154 -74q2 -4 2 -14z" />
    <glyph glyph-name="plus" unicode="+" horiz-adv-x="1021" 
d="M920 555q12 -50 0 -100h-361v-361q-47 -11 -98 0v361h-361q-12 50 0 100h361v358q49 12 98 0v-358h361z" />
    <glyph glyph-name="comma" unicode="," horiz-adv-x="428" 
d="M129 -289q-15 0 -29.5 12t-17.5 27q74 95 74 283q0 79 -19 153q33 13 74 13q30 0 59 -11q13 -30 13 -94q0 -117 -48 -220t-106 -163z" />
    <glyph glyph-name="hyphen" unicode="-" horiz-adv-x="800" 
d="M154 465q-7 28 -7 49q0 20 7 45h493q6 -21 6 -45q0 -25 -6 -49h-493z" />
    <glyph glyph-name="period" unicode="." horiz-adv-x="452" 
d="M227 -23q-41 0 -70.5 29.5t-29.5 69.5q0 41 29.5 70.5t70.5 29.5q40 0 69.5 -29.5t29.5 -70.5q0 -40 -29.5 -69.5t-69.5 -29.5z" />
    <glyph glyph-name="slash" unicode="/" horiz-adv-x="1040" 
d="M102 -381q-21 0 -53 8l832 1743q24 6 53 6q28 0 55 -6l-829 -1743q-36 -8 -58 -8z" />
    <glyph glyph-name="zero" unicode="0" horiz-adv-x="1198" 
d="M600 -27q-156 0 -265 86.5t-161.5 240.5t-52.5 364q0 322 123 506t356 184t355 -184t122 -506q0 -320 -123 -505.5t-354 -185.5zM600 80q184 0 270 154t86 430t-86 429.5t-270 153.5q-358 0 -358 -583q0 -135 20 -239.5t62 -183t111.5 -120t164.5 -41.5z" />
    <glyph glyph-name="one" unicode="1" horiz-adv-x="673" 
d="M434 1331q15 0 39 -4v-1327q-27 -6 -57 -6q-27 0 -54 6v1176l-272 -144q-41 41 -47 98l354 197q10 4 37 4z" />
    <glyph glyph-name="two" unicode="2" horiz-adv-x="1034" 
d="M942 109q6 -27 6 -52q0 -30 -6 -57h-833q-9 27 -9 43q0 60 54 111q160 153 253.5 246.5t173 181t115.5 147t55 115.5t19 117q0 123 -78.5 201.5t-216.5 78.5q-183 0 -319 -147q-48 16 -68 69q62 77 166 132t225 55q179 0 293.5 -103t114.5 -286q0 -46 -8.5 -90
t-30.5 -90.5t-43.5 -85t-63.5 -90t-74 -88.5t-92.5 -97.5t-100.5 -99t-114 -109.5q-58 -55 -88 -84l-24 -21l28 3h666z" />
    <glyph glyph-name="three" unicode="3" horiz-adv-x="1034" 
d="M111 1315h763q5 -73 -43 -139l-331 -363q85 -4 157.5 -27.5t133.5 -70t96 -126.5t35 -186t-38.5 -190t-104 -134.5t-146.5 -77t-172 -26.5q-125 0 -219 39.5t-144 89.5q12 57 62 86q139 -112 301 -112q154 0 252 81t98 234q0 164 -103.5 245.5t-322.5 82.5h-37
q-2 8 -2 22q0 30 33 74l340 383h-608q-9 30 -9 60q0 28 9 55z" />
    <glyph glyph-name="four" unicode="4" horiz-adv-x="999" 
d="M942 418q0 -29 -6 -56h-154v-362q-27 -6 -53 -6q-29 0 -53 6v362h-594q-44 96 16 222l400 776q46 -9 98 -43l-385 -754q-30 -58 -27 -96h492v334q32 4 53 4q17 0 53 -4v-334h154q6 -24 6 -49z" />
    <glyph glyph-name="five" unicode="5" horiz-adv-x="1036" 
d="M465 -29q-117 0 -203 36t-139 83q16 61 63 86q43 -38 115.5 -71t163.5 -33q168 0 261 89.5t93 244.5t-89 238t-267 83q-68 0 -154 -27.5t-116 -27.5q-23 0 -39 8v635h716q7 -32 7 -58q0 -23 -7 -55h-608v-409q97 45 215 45q219 0 337 -111t118 -317q0 -202 -125.5 -320.5
t-341.5 -118.5z" />
    <glyph glyph-name="six" unicode="6" horiz-adv-x="1069" 
d="M578 791q172 0 284.5 -103.5t112.5 -294.5q0 -190 -120.5 -307t-303.5 -117q-195 0 -315.5 135.5t-120.5 374.5q0 152 42.5 284t113 228t166 171t197.5 120t212 68q29 -26 33 -99q-84 -18 -160 -47.5t-155 -78.5t-140.5 -113t-110 -155t-69.5 -200q141 134 334 134z
M557 70q137 0 223 84.5t86 236.5q0 74 -26.5 131t-70 90.5t-95.5 50.5t-109 17q-198 0 -336 -145q-2 -18 -2 -58q0 -189 92.5 -298t237.5 -109z" />
    <glyph glyph-name="seven" unicode="7" horiz-adv-x="946" 
d="M891 1315q6 -15 6 -43q0 -61 -37 -137l-584 -1164q-62 13 -94 56l588 1175h-707q-8 36 -8 55q0 22 8 58h828z" />
    <glyph glyph-name="eight" unicode="8" horiz-adv-x="1091" 
d="M731 680q72 -35 121.5 -75.5t84 -107.5t34.5 -151q0 -80 -24.5 -144t-65.5 -106t-96.5 -70.5t-115.5 -40.5t-126 -12q-70 0 -130.5 10.5t-115.5 36t-94.5 64t-62.5 98t-23 135.5q0 224 243 398q-97 51 -146.5 119.5t-49.5 175.5q0 150 109.5 245t277.5 95
q175 0 280 -90.5t105 -239.5q0 -182 -205 -340zM270 1022q0 -43 15 -79t38.5 -62t64.5 -50.5t81 -42.5t100 -40q40 -14 70 -27q94 67 142 136t48 157q0 108 -76 170.5t-202 62.5q-124 0 -202.5 -63t-78.5 -162zM543 76q66 0 121.5 13.5t101.5 43t72 81.5t26 122
q0 60 -25 109t-73.5 85t-100 60.5t-124.5 50.5q-84 33 -90 35q-93 -60 -159.5 -150t-66.5 -200q0 -67 25.5 -117t70.5 -78t100 -41.5t122 -13.5z" />
    <glyph glyph-name="nine" unicode="9" horiz-adv-x="1069" 
d="M508 1350q203 0 320.5 -165t117.5 -470q0 -129 -20 -234.5t-54.5 -181.5t-86.5 -134.5t-110.5 -95t-132 -59t-145 -32t-155.5 -9.5q-13 26 -13 58q0 17 4 45q71 0 128 5.5t118 20.5t108 39.5t91.5 65t75 95t52 131.5t28.5 173q-151 -108 -334 -108q-184 0 -298 108.5
t-114 308.5q0 193 117.5 316t302.5 123zM502 596q186 0 336 115v4q0 260 -90 397t-244 137q-138 0 -224.5 -90.5t-86.5 -247.5q0 -80 25.5 -142t69.5 -99t98 -55.5t116 -18.5z" />
    <glyph glyph-name="colon" unicode=":" horiz-adv-x="491" 
d="M246 696q-41 0 -70 30t-29 71t29 69.5t70 28.5t69.5 -28.5t28.5 -69.5q0 -42 -28.5 -71.5t-69.5 -29.5zM246 2q-41 0 -70 29.5t-29 70.5q0 40 29 69.5t70 29.5t69.5 -29.5t28.5 -69.5q0 -41 -28.5 -70.5t-69.5 -29.5z" />
    <glyph glyph-name="semicolon" unicode=";" horiz-adv-x="536" 
d="M266 637q-41 0 -71.5 30.5t-30.5 73.5t30 73t72 30q43 0 74 -30t31 -73t-31 -73.5t-74 -30.5zM203 -289q-14 0 -28.5 12t-18.5 27q73 94 73 283q0 82 -18 153q33 13 74 13q30 0 59 -11q12 -28 12 -94q0 -117 -48 -220.5t-105 -162.5z" />
    <glyph glyph-name="less" unicode="&#x3c;" horiz-adv-x="1163" 
d="M225 473l815 -340q-6 -50 -36 -94l-914 379q-10 33 -10 61q0 33 8 64l916 377q31 -47 34 -95l-813 -338l-26 -6z" />
    <glyph glyph-name="equal" unicode="=" horiz-adv-x="1097" 
d="M158 608q-6 24 -6 51q0 26 6 50h782q6 -24 6 -50q0 -27 -6 -51h-782zM158 242q-6 24 -6 49q0 27 6 51h782q6 -24 6 -51q0 -25 -6 -49h-782z" />
    <glyph glyph-name="greater" unicode="&#x3e;" horiz-adv-x="1163" 
d="M1073 543q8 -31 8 -64q0 -28 -10 -61l-913 -379q-31 46 -37 94l815 340l27 8l-27 6l-813 338q6 51 35 95z" />
    <glyph glyph-name="question" unicode="?" horiz-adv-x="854" 
d="M352 317q-18 0 -28 2q-23 141 -23 263h14q152 0 241 86t89 231q0 137 -83.5 220t-219.5 83q-126 0 -225 -72q-42 28 -51 78q46 45 121 74t155 29q186 0 301 -113t115 -299q0 -162 -99.5 -274.5t-257.5 -139.5q-5 -54 -20 -166q-8 -2 -29 -2zM356 -20q-36 0 -61 25t-25 61
q0 37 24.5 60.5t61.5 23.5q34 0 59 -24t25 -60t-25 -61t-59 -25z" />
    <glyph glyph-name="at" unicode="@" horiz-adv-x="1701" 
d="M858 1298q162 0 300 -55.5t234 -153t150.5 -234t54.5 -294.5q0 -200 -85 -311t-222 -111q-80 0 -132 38t-73 104q-96 -113 -251 -113q-148 0 -242 94.5t-94 267.5q0 176 110.5 287t278.5 111q155 0 278 -92v-445q0 -158 140 -158q79 -2 130.5 83t51.5 245
q0 176 -77.5 320t-222.5 229.5t-329 85.5q-138 0 -257 -51.5t-201.5 -139.5t-129.5 -209.5t-47 -258.5q0 -138 42.5 -256.5t121 -206t197.5 -137.5t264 -50q158 0 297 68q39 -34 39 -96q-152 -76 -336 -76q-135 0 -252.5 37.5t-205.5 106t-151.5 162t-95.5 207.5t-32 241
q0 156 56 296t153.5 242.5t237.5 162.5t300 60zM834 264q73 0 134.5 32t98.5 97v381q-83 57 -182 57q-124 0 -202.5 -82t-78.5 -221q0 -123 64 -193.5t166 -70.5z" />
    <glyph glyph-name="A" unicode="A" horiz-adv-x="1214" 
d="M662 1315l516 -1305q-27 -16 -72 -16q-35 0 -51 4l-154 399h-590l-147 -397q-24 -6 -47 -6q-41 0 -72 16l500 1305q24 8 59 8q34 0 58 -8zM348 496h514l-231 598l-31 94l-31 -94z" />
    <glyph glyph-name="B" unicode="B" horiz-adv-x="1175" 
d="M803 692q266 -66 266 -325q0 -188 -131.5 -290t-378.5 -102q-218 0 -362 27v1294q178 31 346 31q228 0 345.5 -87.5t117.5 -250.5q0 -216 -203 -297zM549 1227q-139 0 -240 -13v-483h250q175 0 255.5 68.5t80.5 189.5q0 111 -89 174.5t-257 63.5zM553 78q401 0 401 282
q0 131 -95 200t-281 69h-269v-533q119 -18 244 -18z" />
    <glyph glyph-name="C" unicode="C" horiz-adv-x="1228" 
d="M743 -29q-188 0 -332.5 88.5t-222 244t-77.5 353.5t82.5 356t230 246.5t332.5 88.5q230 0 395 -123q-14 -63 -64 -90q-75 53 -152.5 78.5t-178.5 25.5q-232 0 -379.5 -160.5t-147.5 -421.5q0 -258 143.5 -417.5t370.5 -159.5q126 0 210.5 30t152.5 87q51 -27 59 -86
q-167 -140 -422 -140z" />
    <glyph glyph-name="D" unicode="D" horiz-adv-x="1380" 
d="M545 1333q171 0 309 -49t228.5 -137t139 -211t48.5 -270q0 -149 -50 -275t-141 -216.5t-225.5 -141.5t-296.5 -51q-205 0 -360 22v1303q175 26 348 26zM559 86q280 0 435 156.5t155 419.5q0 257 -156.5 411t-447.5 154q-132 0 -236 -13v-1114q109 -14 250 -14z" />
    <glyph glyph-name="E" unicode="E" horiz-adv-x="1110" 
d="M1010 104q8 -21 8 -49q0 -34 -8 -55h-813v1315h788q8 -21 8 -55q0 -31 -8 -52h-676v-475h609q8 -24 8 -51q0 -29 -8 -53h-609v-525h701z" />
    <glyph glyph-name="F" unicode="F" horiz-adv-x="1042" 
d="M985 1208h-674v-518h598q9 -27 9 -53q0 -24 -9 -51h-598v-586q-40 -8 -57 -8t-57 8v1315h788q6 -27 6 -55t-6 -52z" />
    <glyph glyph-name="G" unicode="G" horiz-adv-x="1335" 
d="M770 649h432v-573q-195 -105 -444 -105q-284 0 -465.5 188.5t-181.5 495.5q0 154 51 285t139.5 219.5t208.5 138.5t256 50q260 0 424 -121q-13 -66 -62 -94q-83 54 -165.5 80t-196.5 26q-152 0 -272.5 -69t-191.5 -203t-71 -312q0 -261 139 -418t390 -157q195 0 327 61
v400h-317q-8 27 -8 53q0 31 8 55z" />
    <glyph glyph-name="H" unicode="H" horiz-adv-x="1409" 
d="M1157 1323q19 0 55 -8v-1315q-36 -8 -53 -8q-21 0 -61 8v623h-787v-623q-40 -8 -59 -8q-15 0 -55 8v1315q24 8 55 8q35 0 59 -8v-588h787v588q40 8 59 8z" />
    <glyph glyph-name="I" unicode="I" horiz-adv-x="507" 
d="M254 -8q-17 0 -57 8v1315q27 8 57 8q33 0 57 -8v-1315q-36 -8 -57 -8z" />
    <glyph glyph-name="J" unicode="J" horiz-adv-x="790" 
d="M274 -33q-87 0 -151 33.5t-96 71.5q17 51 73 82q41 -41 79 -61.5t95 -20.5q99 0 159.5 57.5t60.5 185.5v1000q19 8 55 8q33 0 57 -8v-998q0 -91 -27 -160t-73.5 -109.5t-105 -60.5t-126.5 -20z" />
    <glyph glyph-name="K" unicode="K" horiz-adv-x="1183" 
d="M573 709l592 -703q-45 -10 -98 -10l-47 2l-535 641q-55 -39 -174 -119v-520q-36 -8 -59 -8q-19 0 -55 8v1315q36 8 55 8q23 0 59 -8v-668q222 144 370 291.5t304 378.5q16 4 55 4q45 0 72 -8q-121 -187 -251 -332.5t-288 -271.5z" />
    <glyph glyph-name="L" unicode="L" horiz-adv-x="978" 
d="M938 102q8 -24 8 -49q0 -28 -8 -55h-741v1317q40 8 55 8q19 0 59 -8v-1213h627z" />
    <glyph glyph-name="M" unicode="M" horiz-adv-x="1611" 
d="M1348 1321q25 0 67 -10v-1311q-36 -8 -55 -8q-17 0 -57 8v958l8 140l-23 -60l-422 -911q-30 -6 -53 -6q-21 0 -51 6l-438 913l-23 54l6 -136v-958q-32 -8 -55 -8q-15 0 -55 8v1309q32 14 73 14q18 0 39 -6l488 -1010l24 -59l23 59l463 1010q24 4 41 4z" />
    <glyph glyph-name="N" unicode="N" horiz-adv-x="1396" 
d="M1145 1325q19 0 55 -8v-1309q-44 -12 -100 -12l-766 1081l-29 53l2 -61v-1069q-24 -8 -55 -8t-55 8v1305q52 27 104 16l766 -1083l27 -45l-2 65v1059q36 8 53 8z" />
    <glyph glyph-name="O" unicode="O" horiz-adv-x="1495" 
d="M748 -27q-187 0 -333 89.5t-225 245.5t-79 351q0 193 79 349.5t225 248t333 91.5t332.5 -89t224.5 -246t79 -354q0 -143 -46.5 -269t-128.5 -218t-201.5 -145.5t-259.5 -53.5zM748 80q235 0 376.5 162t141.5 417q0 259 -141 420.5t-377 161.5q-237 0 -378 -161.5
t-141 -420.5q0 -256 141.5 -417.5t377.5 -161.5z" />
    <glyph glyph-name="P" unicode="P" horiz-adv-x="1142" 
d="M555 1337q250 0 380 -108.5t132 -298.5q0 -199 -132.5 -318.5t-377.5 -119.5q-150 0 -248 14v-506q-24 -8 -57 -8q-31 0 -55 8v1292q149 45 358 45zM555 594q200 0 295.5 88.5t95.5 247.5q0 140 -99.5 221.5t-293.5 81.5q-122 0 -244 -23v-602q94 -17 246 -14z" />
    <glyph glyph-name="Q" unicode="Q" horiz-adv-x="1495" 
d="M995 20q265 -60 394 -258q-29 -42 -101 -63q-93 138 -226 206t-327 68q-184 3 -327 93t-220 245t-77 348t79 349.5t225 248t333 91.5t332.5 -89t224.5 -246t79 -354q0 -220 -104.5 -392t-284.5 -247zM229 659q0 -256 141.5 -417.5t377.5 -161.5q235 0 376.5 162
t141.5 417q0 259 -141 420.5t-377 161.5q-237 0 -378 -161.5t-141 -420.5z" />
    <glyph glyph-name="R" unicode="R" horiz-adv-x="1169" 
d="M739 555l346 -549q-45 -10 -86 -10q-31 0 -43 2l-335 534q-20 -2 -64 -2q-132 0 -248 11v-541q-24 -8 -57 -8q-31 0 -55 8v1294q174 43 370 43q230 0 350.5 -103t122.5 -282q-1 -151 -82 -253.5t-219 -143.5zM309 647q82 -12 248 -12q185 0 276 84.5t93 228.5
q-2 133 -93 210t-268 77q-121 0 -256 -23v-565z" />
    <glyph glyph-name="S" unicode="S" horiz-adv-x="1071" 
d="M520 -31q-272 0 -434 166q17 57 72 84q140 -143 362 -143q161 0 247.5 73.5t86.5 198.5q0 108 -75 173t-259 110q-67 16 -118 33t-105 46.5t-88.5 67t-57 94t-22.5 127.5q0 150 111.5 247t296.5 97q252 0 405 -131q-3 -26 -21 -52.5t-40 -37.5q-72 55 -153 85t-191 30
q-136 0 -215.5 -64.5t-79.5 -166.5q0 -104 72.5 -160.5t232.5 -95.5q103 -26 176.5 -57.5t131 -78t86 -112t28.5 -152.5q0 -175 -121 -278t-328 -103z" />
    <glyph glyph-name="T" unicode="T" horiz-adv-x="1093" 
d="M1059 1262q0 -28 -8 -52h-449v-1212q-27 -6 -57 -6q-29 0 -56 6v1212h-448q-8 24 -8 52q0 29 8 53h1010q8 -24 8 -53z" />
    <glyph glyph-name="U" unicode="U" horiz-adv-x="1376" 
d="M696 -29q-232 0 -374 145.5t-142 395.5v803q40 8 58 8q23 0 59 -8v-803q0 -193 105 -311.5t294 -118.5q183 0 284 118.5t101 311.5v803q40 8 60 8q21 0 53 -8v-803q0 -247 -135.5 -394t-362.5 -147z" />
    <glyph glyph-name="V" unicode="V" horiz-adv-x="1234" 
d="M1114 1327q33 0 68 -14q-165 -657 -502 -1313q-27 -6 -59 -6q-33 0 -60 6q-310 569 -510 1313q35 14 72 14q30 0 51 -8q173 -669 451 -1208q303 617 438 1208q8 3 51 8z" />
    <glyph glyph-name="W" unicode="W" horiz-adv-x="1847" 
d="M1724 1325q30 0 66 -12q-172 -752 -412 -1313q-25 -10 -67 -10q-35 0 -60 10l-288 944l-25 105l-31 -107l-317 -942q-40 -8 -62 -8q-27 0 -67 8q-126 299 -217.5 615t-175.5 698q35 14 73 14q31 0 52 -6q129 -670 335 -1204l23 88l328 993q27 6 59 6q34 0 55 -6l310 -989
l22 -92q215 560 350 1202q24 6 49 6z" />
    <glyph glyph-name="X" unicode="X" horiz-adv-x="1169" 
d="M662 666l468 -658q-30 -12 -79 -12q-24 0 -56 4l-415 586l-420 -586q-20 -4 -49 -4q-50 0 -80 12l479 658l-440 649q45 10 92 10q31 0 41 -2l389 -575l391 575q10 2 41 2q55 0 88 -10z" />
    <glyph glyph-name="Y" unicode="Y" horiz-adv-x="1163" 
d="M1053 1325q37 0 67 -12l-481 -785v-528q-36 -8 -57 -8q-20 0 -56 8v532l-493 781q37 12 76 12q25 0 49 -4l407 -641l23 -47l22 47l391 641q16 4 52 4z" />
    <glyph glyph-name="Z" unicode="Z" horiz-adv-x="1144" 
d="M1069 100q6 -27 6 -47q0 -26 -6 -53h-981q-10 27 -10 59q0 44 35 88l778 1027l33 40l-834 -2q-8 27 -8 50q0 29 8 53h957q8 -24 8 -58q0 -48 -35 -92l-776 -1022l-35 -43h860z" />
    <glyph glyph-name="bracketleft" unicode="[" horiz-adv-x="583" 
d="M309 -268h199q12 -53 0 -103h-313v1778h313q12 -49 0 -102h-199v-1573z" />
    <glyph glyph-name="backslash" unicode="\" horiz-adv-x="1017" 
d="M913 -381q-19 0 -55 8l-805 1665q36 8 56 8q21 0 53 -8l805 -1665q-32 -8 -54 -8z" />
    <glyph glyph-name="bracketright" unicode="]" horiz-adv-x="583" 
d="M76 1407h313v-1778h-313q-12 50 0 103h198v1573h-198q-12 53 0 102z" />
    <glyph glyph-name="asciicircum" unicode="^" horiz-adv-x="1030" 
d="M174 698q-53 9 -84 47l371 641q54 12 106 0l373 -641q-31 -38 -82 -47l-344 588z" />
    <glyph glyph-name="underscore" unicode="_" horiz-adv-x="892" 
d="M8 -168q-8 21 -8 49q0 26 8 45h879q6 -21 6 -45q0 -25 -6 -49h-879z" />
    <glyph glyph-name="grave" unicode="`" horiz-adv-x="462" 
d="M381 1077l-332 223q13 37 29 59t45 36l291 -271q-5 -27 -33 -47z" />
    <glyph glyph-name="a" unicode="a" horiz-adv-x="1019" 
d="M481 989q85 0 155 -20.5t125 -62.5t85.5 -113t30.5 -166v-564q-73 -40 -183 -64t-211 -24q-195 0 -296 85t-101 225q0 143 108 222t279 79q161 0 293 -64v101q0 130 -77 195t-212 65q-159 0 -289 -95q-47 23 -57 76q48 46 140 85.5t210 39.5zM203 293q0 -98 72.5 -156.5
t209.5 -58.5q161 0 281 49v287q-131 69 -293 69q-128 0 -199 -49.5t-71 -140.5z" />
    <glyph glyph-name="b" unicode="b" horiz-adv-x="1136" 
d="M553 989q209 0 345 -133.5t136 -359.5q0 -161 -66.5 -280t-180 -179t-259.5 -60q-109 0 -193 19.5t-173 64.5l2 1287q27 6 55 6q30 0 57 -6v-441q124 82 277 82zM528 84q180 0 285 107.5t105 297.5q0 176 -100.5 284t-274.5 108q-158 0 -267 -86l-2 -658q97 -53 254 -53z
" />
    <glyph glyph-name="c" unicode="c" horiz-adv-x="991" 
d="M586 -25q-212 0 -348 136t-136 370q0 113 38.5 209t104 161t154 101.5t187.5 36.5q195 0 317 -110q-15 -54 -65 -84q-112 90 -252 90q-115 0 -200 -57t-126 -147t-41 -200q0 -174 97 -286.5t270 -112.5q150 0 268 96q50 -29 64 -82q-136 -121 -332 -121z" />
    <glyph glyph-name="d" unicode="d" horiz-adv-x="1136" 
d="M918 1354q30 0 57 -6v-1287q-169 -86 -367 -86q-144 0 -257.5 56.5t-181 171t-67.5 272.5q0 119 41.5 217t112 161.5t162 98.5t192.5 35q155 0 252 -53v414q24 6 56 6zM608 82q139 -3 254 47v686q-95 66 -250 66q-172 0 -283.5 -111.5t-111.5 -292.5q0 -184 109 -289.5
t282 -105.5z" />
    <glyph glyph-name="e" unicode="e" horiz-adv-x="1071" 
d="M979 541q0 -27 -6 -80h-754q5 -173 100.5 -277t255.5 -104q75 0 139 19t95.5 38t69.5 49q47 -23 61 -77q-158 -134 -365 -134q-211 0 -342 134.5t-131 369.5q0 113 36.5 209.5t98.5 162t145.5 102t176.5 36.5q182 0 300.5 -120t119.5 -328zM223 557h635q0 151 -82 240.5
t-217 89.5q-139 0 -230.5 -93.5t-105.5 -236.5z" />
    <glyph glyph-name="f" unicode="f" horiz-adv-x="647" 
d="M520 1356q82 0 142.5 -27.5t87.5 -56.5q-14 -55 -62 -80q-41 31 -79 46t-91 15q-82 0 -138 -51.5t-56 -165.5v-78l284 -2q8 -21 8 -47q0 -24 -8 -45l-284 2v-868q-24 -6 -56 -6q-29 0 -53 6v868h-143q-6 24 -6 45q0 23 6 47h143v64q0 85 27.5 151.5t72.5 105t97.5 58
t107.5 19.5z" />
    <glyph glyph-name="g" unicode="g" horiz-adv-x="1130" 
d="M606 989q108 0 202.5 -34t160.5 -91v-848q0 -181 -119.5 -296t-308.5 -115q-271 0 -416 168q19 54 76 75q35 -41 73.5 -69.5t108 -50t158.5 -21.5q148 0 230.5 84.5t82.5 224.5v99q-122 -76 -258 -76q-139 0 -250.5 54.5t-178.5 162.5t-67 252t68.5 254.5t183 168.5
t254.5 58zM604 141q136 0 250 84v580q-94 78 -248 78q-170 0 -278.5 -104.5t-108.5 -270.5q0 -172 106 -269.5t279 -97.5z" />
    <glyph glyph-name="h" unicode="h" horiz-adv-x="1155" 
d="M598 989q101 0 179.5 -31t126 -85.5t71.5 -123.5t24 -149v-600q-27 -6 -57 -6t-57 6v565q0 53 -9 97.5t-31 86t-57 70t-89 45.5t-124 17q-146 0 -292 -97v-784q-27 -6 -58 -6q-30 0 -57 6v1346q27 6 57 6q31 0 58 -6v-451q149 94 315 94z" />
    <glyph glyph-name="i" unicode="i" horiz-adv-x="456" 
d="M229 1159q-37 0 -64.5 26t-27.5 64q0 37 27 63.5t65 26.5q37 0 62.5 -26.5t25.5 -63.5q0 -38 -25.5 -64t-62.5 -26zM229 -6q-30 0 -57 6v963q24 8 57 8q35 0 56 -8v-963q-24 -6 -56 -6z" />
    <glyph glyph-name="j" unicode="j" horiz-adv-x="485" 
d="M256 1155q-37 0 -63.5 26t-26.5 64q0 37 26.5 62.5t63.5 25.5t63.5 -25.5t26.5 -62.5q0 -38 -26.5 -64t-63.5 -26zM23 -401q-82 0 -141.5 25.5t-92.5 58.5q14 53 64 79q45 -32 77.5 -46.5t79.5 -14.5q82 0 136.5 56t54.5 175v1026q31 7 55 7q28 0 59 -7v-1026
q0 -84 -26.5 -150t-70 -104.5t-93.5 -58.5t-102 -20z" />
    <glyph glyph-name="k" unicode="k" horiz-adv-x="968" 
d="M496 508l456 -504q-38 -10 -80 -10q-35 0 -55 4l-411 448q-20 -14 -125 -73v-373q-24 -6 -56 -6q-30 0 -57 6v1346q27 6 57 6q32 0 56 -6v-854q148 78 280.5 202t206.5 264q31 7 59 7q33 0 62 -11q-130 -246 -393 -446z" />
    <glyph glyph-name="l" unicode="l" horiz-adv-x="456" 
d="M227 -6q-28 0 -55 6v1348q27 6 55 6q34 0 58 -6v-1348q-24 -6 -58 -6z" />
    <glyph glyph-name="m" unicode="m" horiz-adv-x="1761" 
d="M1225 989q182 0 283 -107.5t98 -269.5v-612q-27 -6 -58 -6q-30 0 -57 6v571q2 66 -13 120t-47.5 98.5t-90 69t-136.5 24.5q-155 0 -286 -121q24 -70 24 -150v-612q-24 -6 -55 -6q-34 0 -58 6v571q0 66 -14.5 120t-46.5 98.5t-88.5 69t-134.5 24.5q-143 0 -271 -82v-801
q-27 -6 -57 -6t-57 6v850q70 59 176.5 99t226.5 40q206 0 309 -141q67 63 159.5 102t193.5 39z" />
    <glyph glyph-name="n" unicode="n" horiz-adv-x="1148" 
d="M584 989q105 0 184.5 -30t128 -84t72.5 -123t24 -152v-600q-27 -6 -57 -6t-57 6v567q0 316 -310 316q-87 0 -165.5 -25.5t-129.5 -58.5v-799q-27 -6 -57 -6t-57 6v850q73 58 184.5 98.5t239.5 40.5z" />
    <glyph glyph-name="o" unicode="o" horiz-adv-x="1173" 
d="M584 -23q-212 0 -348 143t-136 363q0 217 140.5 361.5t349.5 144.5q211 0 347 -144t136 -362q0 -217 -140 -361.5t-349 -144.5zM588 84q168 0 269 112t101 287q0 172 -101.5 286t-268.5 114t-269 -114t-102 -286q0 -174 101.5 -286.5t269.5 -112.5z" />
    <glyph glyph-name="p" unicode="p" horiz-adv-x="1136" 
d="M545 989q215 0 352 -131.5t137 -365.5q0 -122 -39.5 -221.5t-106.5 -162.5t-154 -97t-185 -34q-163 0 -275 52v-412q-27 -6 -57 -6q-28 0 -55 6l-2 1233q77 62 177.5 100.5t207.5 38.5zM545 84q167 0 271 108.5t104 299.5q0 179 -104 284t-271 105q-149 0 -273 -84
l2 -652q106 -61 271 -61z" />
    <glyph glyph-name="q" unicode="q" horiz-adv-x="1136" 
d="M606 989q116 0 215 -40t154 -99v-1233q-27 -6 -57 -6q-32 0 -56 6v434q-120 -74 -268 -74q-141 0 -251 56t-175.5 170t-65.5 272q0 119 41 217.5t110.5 162.5t160.5 99t192 35zM596 84q167 0 266 86l2 623q-105 88 -258 88q-170 0 -278.5 -111.5t-108.5 -292.5
q0 -183 104 -288t273 -105z" />
    <glyph glyph-name="r" unicode="r" horiz-adv-x="761" 
d="M735 958q3 -58 -28 -100q-84 23 -181 23q-150 0 -252 -66v-815q-24 -6 -57 -6q-30 0 -57 6v866q65 52 164 87.5t213 35.5q113 0 198 -31z" />
    <glyph glyph-name="s" unicode="s" horiz-adv-x="921" 
d="M444 -23q-123 0 -213.5 35.5t-142.5 81.5q19 58 66 84q119 -100 290 -100q138 0 205.5 50t67.5 132q0 78 -59 120t-212 66q-160 24 -246.5 85t-86.5 184q0 122 99.5 198t264.5 76q106 0 191.5 -26.5t132.5 -61.5q-9 -51 -49 -88q-124 74 -285 74q-117 0 -179.5 -42.5
t-62.5 -117.5q0 -73 55.5 -110.5t186.5 -59.5q89 -15 151.5 -35t112 -52.5t74 -81.5t24.5 -116q0 -136 -103 -215.5t-282 -79.5z" />
    <glyph glyph-name="t" unicode="t" horiz-adv-x="784" 
d="M721 147q41 -29 51 -81q-105 -89 -252 -89q-64 0 -117 17.5t-95.5 53.5t-66.5 97t-24 142v577h-168q-6 24 -6 47q0 24 6 45h168v263q24 6 55 6q32 0 56 -6v-263h387q6 -24 6 -45q0 -23 -6 -47h-387v-549q0 -237 200 -237q93 0 193 69z" />
    <glyph glyph-name="u" unicode="u" horiz-adv-x="1134" 
d="M915 963q27 0 58 -7v-895q-199 -88 -420 -88q-198 0 -297.5 100.5t-99.5 276.5v606q31 7 57 7q25 0 57 -7v-559q0 -76 13.5 -130.5t47 -98.5t96 -66t153.5 -22q145 0 278 55v821q31 7 57 7z" />
    <glyph glyph-name="v" unicode="v" horiz-adv-x="997" 
d="M881 963q39 0 65 -11q-44 -216 -158.5 -477.5t-234.5 -476.5q-24 -6 -53 -6q-34 0 -58 6q-113 188 -221 450t-172 504q29 11 74 11q15 0 45 -5q54 -209 150 -444.5t174 -378.5q8 -16 10 -22q4 6 12 22q237 465 320 823q25 5 47 5z" />
    <glyph glyph-name="w" unicode="w" horiz-adv-x="1474" 
d="M1352 961q43 0 67 -9q-50 -235 -156.5 -506.5t-209.5 -447.5q-21 -6 -58 -6q-31 0 -55 6q-101 189 -201 475q-77 -251 -196 -475q-21 -6 -62 -6q-31 0 -55 6q-113 191 -216 452t-159 502q24 9 72 9q11 0 25.5 -1.5t19.5 -1.5q50 -212 142.5 -454t168.5 -387q3 -14 8 -23
q3 10 9 23q118 257 194 504q-50 162 -90 331q21 9 72 9q10 0 25 -1.5t20 -1.5q47 -221 128.5 -461t151.5 -380q1 -3 4.5 -9.5t4.5 -9.5q5 15 8 21q84 170 167 396.5t126 442.5q4 0 20 1.5t25 1.5z" />
    <glyph glyph-name="x" unicode="x" horiz-adv-x="954" 
d="M547 492l366 -488q-22 -9 -59 -12q-48 0 -68 4l-313 424l-305 -424q-16 -4 -53 -4q-43 3 -64 12l355 488l-343 462q44 11 74 11q33 0 49 -2l297 -402l273 402q16 2 53 2q15 0 65 -11z" />
    <glyph glyph-name="y" unicode="y" horiz-adv-x="1009" 
d="M891 963q28 0 67 -13q-94 -402 -267 -739t-439 -625q-28 6 -49.5 25t-30.5 45q175 190 281 362q-126 199 -234 449.5t-164 484.5q33 11 70 11q16 0 51 -5q87 -374 330 -819q2 -5 7 -14t7 -14q2 6 8 14.5t7 11.5q229 426 307 821q30 5 49 5z" />
    <glyph glyph-name="z" unicode="z" horiz-adv-x="946" 
d="M866 96q8 -20 8 -47q0 -25 -8 -49h-778q-8 24 -8 47q0 62 51 119l569 668l27 26h-631q-6 48 -6 49t6 49h750q4 -28 4 -43q0 -65 -49 -122l-545 -641l-53 -56h663z" />
    <glyph glyph-name="braceleft" unicode="{" horiz-adv-x="638" 
d="M494 -262h71q9 -51 0 -103h-71q-125 0 -184.5 73.5t-59.5 191.5v397q0 87 -30.5 128.5t-98.5 41.5h-62q-10 30 -10 55q0 26 10 56h62q68 0 98.5 41.5t30.5 128.5v389q0 57 13.5 104.5t42 85.5t76.5 59t112 21h71q9 -49 0 -102h-71q-68 0 -98.5 -40.5t-30.5 -127.5v-389
q0 -163 -95 -226q95 -66 95 -225v-397q0 -84 30.5 -123t98.5 -39z" />
    <glyph glyph-name="bar" unicode="|" horiz-adv-x="487" 
d="M193 -358v1751q49 16 102 0v-1751q-57 -16 -102 0z" />
    <glyph glyph-name="braceright" unicode="}" horiz-adv-x="638" 
d="M580 578q10 -30 10 -56q0 -25 -10 -55h-64q-67 0 -97 -41.5t-30 -128.5v-397q0 -117 -60 -191t-184 -74h-71q-12 51 0 103h71q68 0 98.5 39t30.5 123v397q0 159 95 225q-95 63 -95 226v389q0 87 -30.5 127.5t-98.5 40.5h-71q-12 53 0 102h71q123 0 183.5 -75.5
t60.5 -194.5v-389q0 -87 30 -128.5t97 -41.5h64z" />
    <glyph glyph-name="asciitilde" unicode="~" horiz-adv-x="1116" 
d="M231 352q-56 6 -84 51q37 69 99.5 107.5t140.5 38.5q60 0 175 -41t167 -41q104 0 156 96q58 -6 86 -53q-35 -72 -99.5 -112t-142.5 -40q-69 0 -182 41t-160 41q-105 0 -156 -88z" />
    <glyph glyph-name="uni00A0" unicode="&#xa0;" horiz-adv-x="518" 
 />
    <glyph glyph-name="exclamdown" unicode="&#xa1;" horiz-adv-x="464" 
d="M231 819q-34 0 -59 24t-25 58q0 36 25 61t59 25q36 0 61 -25t25 -61q0 -34 -25 -58t-61 -24zM231 -356q-41 0 -61 6q3 488 31 1009q17 7 30 7q12 0 33 -7q29 -538 29 -1009q-20 -6 -62 -6z" />
    <glyph glyph-name="cent" unicode="&#xa2;" horiz-adv-x="1011" 
d="M913 266q-127 -106 -301 -114v-209q-21 -6 -47 -6q-23 0 -47 6v213q-188 21 -302 145t-114 334q0 203 116.5 330.5t299.5 150.5v221q24 6 47 6q26 0 47 -6v-217q185 -8 299 -114q-15 -54 -65 -82q-105 87 -234 94v-762q140 7 242 92q48 -30 59 -82zM219 635
q0 -152 78.5 -253t220.5 -122v752q-141 -21 -220 -125.5t-79 -251.5z" />
    <glyph glyph-name="sterling" unicode="&#xa3;" horiz-adv-x="1079" 
d="M979 104q8 -24 8 -49q0 -28 -8 -55h-819q0 59 15 113.5t36 98t42.5 86.5t36.5 97t15 113q0 25 -4 65h-205q-4 32 -4 52q0 17 4 49h185q-5 15 -29 72.5t-33.5 102t-9.5 107.5q0 166 112 278t302 112q205 0 350 -121q-12 -60 -66 -86q-127 104 -284 104
q-144 0 -222.5 -81.5t-78.5 -192.5q0 -61 11.5 -108t33 -100.5t30.5 -86.5h373q6 -24 6 -49q0 -28 -6 -52h-354q2 -20 2 -65q0 -64 -22.5 -135.5t-57.5 -151.5t-47 -117h688z" />
    <glyph glyph-name="currency" unicode="&#xa4;" horiz-adv-x="1263" 
d="M1106 653q0 -162 -102 -295l112 -114q-39 -57 -84 -82l-112 114q-130 -96 -287 -96q-160 0 -287 96l-115 -114q-49 30 -81 82l112 116q-102 130 -102 293q0 166 100 293l-115 119q38 58 84 84l115 -119q129 98 289 98q162 0 287 -98l114 117q46 -28 84 -82l-114 -117
q102 -133 102 -295zM631 287q151 0 257.5 107.5t106.5 260.5t-106.5 260t-257.5 107t-257 -107t-106 -260q0 -154 106 -261t257 -107z" />
    <glyph glyph-name="yen" unicode="&#xa5;" horiz-adv-x="1103" 
d="M895 551h-287v-152h287q6 -21 6 -45q0 -23 -6 -47h-287v-307q-24 -6 -57 -6q-29 0 -59 6v307h-289q-6 24 -6 47q0 24 6 45h289v152h-289q-6 21 -6 45t6 45h256l-398 659q37 11 68 11q29 0 53 -4l357 -598l18 -37l16 37l361 598q14 4 51 4q29 0 62 -11l-402 -659h250
q6 -21 6 -45t-6 -45z" />
    <glyph glyph-name="brokenbar" unicode="&#xa6;" horiz-adv-x="485" 
d="M190 678v715q54 17 105 0v-715q-22 -8 -52 -8t-53 8zM190 -358v716q54 14 105 0v-716q-60 -15 -105 0z" />
    <glyph glyph-name="section" unicode="&#xa7;" horiz-adv-x="1101" 
d="M559 258l-301 270q-166 162 -166 359q0 195 135 329t332 134q121 0 211 -35t180 -101q-11 -64 -63 -88q-79 59 -151 87t-177 28q-152 0 -254 -102t-102 -254q0 -80 32.5 -142.5t98.5 -128.5l301 -272q-20 -57 -76 -84zM543 -223q-122 0 -212 34t-177 99q3 29 19.5 53.5
t43.5 36.5q80 -59 151 -87t175 -28q153 0 255.5 102t102.5 253q0 81 -32 144t-97 132l-301 272q17 55 76 84l299 -272q164 -164 164 -360q0 -195 -135 -329t-332 -134z" />
    <glyph glyph-name="dieresis" unicode="&#xa8;" horiz-adv-x="686" 
d="M139 1149q-36 0 -61 24t-25 60q0 35 24.5 59.5t61.5 24.5q35 0 59.5 -24.5t24.5 -59.5q0 -36 -24 -60t-60 -24zM549 1149q-36 0 -61 24t-25 60q0 35 24.5 59.5t61.5 24.5q34 0 59 -24.5t25 -59.5q0 -36 -25 -60t-59 -24z" />
    <glyph glyph-name="copyright" unicode="&#xa9;" horiz-adv-x="1544" 
d="M774 -49q-182 0 -334.5 90.5t-239.5 246.5t-87 343t87 343.5t239.5 247.5t334.5 91q181 0 332.5 -91t238.5 -247.5t87 -343.5t-87 -343t-238 -246.5t-333 -90.5zM774 35q156 0 288 80t209 217.5t77 298.5q0 163 -77 300.5t-209 216.5t-288 79q-159 0 -291.5 -79.5
t-208 -216t-75.5 -300.5q0 -162 75.5 -299t208 -217t291.5 -80zM788 236q-169 0 -273.5 105.5t-104.5 287.5q0 178 107 284.5t271 106.5q165 0 265 -92q-12 -49 -58 -78q-91 76 -207 76q-134 0 -207 -84.5t-73 -212.5q0 -129 73 -213t207 -84q130 0 218 80q44 -26 53 -78
q-109 -98 -271 -98z" />
    <glyph glyph-name="ordfeminine" unicode="&#xaa;" horiz-adv-x="778" 
d="M387 1362q115 0 183.5 -60t68.5 -190v-354q-129 -60 -268 -60q-122 0 -189 56t-67 147q0 97 72 152t186 55q98 0 174 -37v53q0 77 -45.5 112.5t-120.5 37.5q-105 0 -195 -66q-44 20 -51 68q114 86 252 86zM215 907q0 -61 45 -94t121 -33q95 0 166 31v172q-80 43 -168 43
q-78 0 -121 -31.5t-43 -87.5z" />
    <glyph glyph-name="guillemotleft" unicode="&#xab;" horiz-adv-x="872" 
d="M362 217l-272 305l272 314q38 -8 54 -45l-185 -267l185 -266q-13 -33 -54 -41zM680 217l-272 305l272 314q37 -8 53 -45l-184 -267l184 -266q-13 -33 -53 -41z" />
    <glyph glyph-name="registered" unicode="&#xae;" horiz-adv-x="1544" 
d="M774 1522q181 0 332.5 -91t238.5 -247.5t87 -343.5q0 -186 -87 -342t-238.5 -247t-332.5 -91q-182 0 -334.5 91t-239.5 247t-87 342q0 187 87 343.5t239.5 247.5t334.5 91zM774 244q156 0 288.5 80t210 217.5t77.5 298.5q0 163 -77.5 300.5t-210 216.5t-288.5 79
q-159 0 -291.5 -79.5t-208 -216t-75.5 -300.5q0 -162 75.5 -299t208 -217t291.5 -80zM1063 1008q0 -84 -45 -142.5t-123 -85.5l195 -336q-32 -8 -54 -8q-35 0 -45 2l-186 326q-12 -2 -35 -2q-96 0 -160 10v-328q-12 -6 -39 -6q-33 0 -49 6v775q110 26 244 26
q148 0 222.5 -63t74.5 -174zM610 856q59 -12 160 -12q203 3 203 160q0 159 -207 159q-82 0 -156 -12v-295z" />
    <glyph glyph-name="macron" unicode="&#xaf;" horiz-adv-x="641" 
d="M61 1165q-6 14 -6 47q0 27 6 48h519q8 -21 8 -48q0 -26 -8 -47h-519z" />
    <glyph glyph-name="degree" unicode="&#xb0;" horiz-adv-x="675" 
d="M338 920q-97 0 -165.5 68.5t-68.5 166.5q0 97 68.5 165.5t165.5 68.5q96 0 164.5 -68.5t68.5 -165.5q0 -98 -68.5 -166.5t-164.5 -68.5zM340 997q64 0 109 47t45 111q0 65 -45 110.5t-109 45.5q-66 0 -111 -45.5t-45 -110.5q0 -64 45.5 -111t110.5 -47z" />
    <glyph glyph-name="plusminus" unicode="&#xb1;" horiz-adv-x="1110" 
d="M504 569h-359q-16 52 0 101h359v315q50 12 100 0v-315h361q12 -50 0 -101h-361v-319q-50 -12 -100 0v319zM145 96h820q12 -50 0 -100h-820q-15 50 0 100z" />
    <glyph glyph-name="acute" unicode="&#xb4;" horiz-adv-x="440" 
d="M82 1077q-27 16 -35 47l293 271q49 -25 74 -95z" />
    <glyph glyph-name="paragraph" unicode="&#xb6;" horiz-adv-x="1173" 
d="M971 1276l-2 -10h2v-1633q-24 -8 -58 -8q-33 0 -57 8v856q-123 -18 -276 -18q-251 0 -385 119.5t-134 316.5q0 196 133.5 311t385.5 115q101 0 209 -15.5t182 -41.5zM580 575q146 -3 276 19v602q-139 33 -274 33q-198 0 -299 -84.5t-101 -237.5q0 -155 101 -243.5
t297 -88.5zM543 293q24 8 57 8q31 0 55 -8v-658q-36 -8 -55 -8q-21 0 -57 8v658z" />
    <glyph glyph-name="periodcentered" unicode="&#xb7;" horiz-adv-x="466" 
d="M233 582q-38 0 -65 27t-27 65t27 65t65 27q39 0 67 -27t28 -65t-28 -65t-67 -27z" />
    <glyph glyph-name="cedilla" unicode="&#xb8;" horiz-adv-x="466" 
d="M215 12h82l-35 -92q73 -14 114.5 -46t41.5 -95q0 -46 -21 -80t-55.5 -52t-70.5 -26t-74 -8q-87 0 -129 22q6 47 30 74q40 -18 97 -18q53 0 86.5 20.5t33.5 59.5q0 45 -39.5 65t-119.5 25z" />
    <glyph glyph-name="ordmasculine" unicode="&#xba;" horiz-adv-x="856" 
d="M426 700q-141 0 -230.5 90.5t-89.5 239.5q0 150 91.5 241t232.5 91t230.5 -91t89.5 -241q0 -147 -92 -238.5t-232 -91.5zM428 791q102 0 161.5 65t59.5 174t-59.5 174.5t-161.5 65.5q-101 0 -162 -66t-61 -174q0 -109 61 -174t162 -65z" />
    <glyph glyph-name="guillemotright" unicode="&#xbb;" horiz-adv-x="872" 
d="M195 217q-43 9 -56 41l185 264l-185 269q16 37 56 45l270 -314zM512 217q-42 9 -55 41l184 264l-184 269q16 37 55 45l270 -314z" />
    <glyph glyph-name="onequarter" unicode="&#xbc;" horiz-adv-x="1509" 
d="M1120 1346q56 12 113 0l-971 -1442q-58 -15 -110 0zM260 541v661l-156 -80q-33 26 -43 78q173 93 203 104q29 11 60 11q23 0 43 -4v-770q-32 -4 -54 -4q-21 0 -53 4zM1442 209q0 -17 -4 -49h-80v-162q-16 -2 -49 -2q-31 0 -47 2v162h-375q-25 67 10 141l264 498
q51 -3 92 -41l-231 -441q-23 -50 -21 -65h261v229q32 4 47 4q17 0 49 -4v-229h80q4 -28 4 -43z" />
    <glyph glyph-name="onehalf" unicode="&#xbd;" horiz-adv-x="1515" 
d="M1133 1346q55 12 110 0l-969 -1442q-57 -15 -112 0zM260 541v659l-158 -82q-32 32 -41 80q143 78 184.5 96.5t82.5 18.5q29 0 39 -4v-768q-24 -6 -54 -6q-29 0 -53 6zM1430 92q4 -12 4 -49q0 -27 -7 -43h-509q-5 15 -5 27q0 35 35 67q144 148 208.5 221.5t97 130.5
t32.5 107q0 59 -38.5 97t-106.5 38q-102 0 -170 -76q-20 6 -35.5 23.5t-20.5 38.5q37 43 97.5 74.5t128.5 31.5q110 0 179 -59t69 -162q0 -50 -18 -98t-61.5 -103.5t-84 -99.5t-116.5 -120l-11 -11l-10 -10l-11 -11l-22 -18l37 4h338z" />
    <glyph glyph-name="threequarters" unicode="&#xbe;" horiz-adv-x="1583" 
d="M1239 1346q58 12 113 0l-971 -1442q-59 -15 -111 0zM330 625q84 0 138 44.5t54 121.5q0 83 -56.5 125t-162.5 40h-43q-6 9 -6 21q0 26 16 45l172 203h-342q-6 21 -6 45t6 45h482q9 -46 -23 -82l-176 -199q106 -8 172 -67.5t66 -171.5q0 -120 -84.5 -187t-206.5 -67
q-80 0 -142 24.5t-98 57.5q9 46 51 73q39 -33 82 -52t107 -19zM1513 209q0 -33 -2 -49h-79v-162q-16 -2 -50 -2q-33 0 -49 2v162h-372q-26 70 10 141l262 498q54 -3 92 -41l-229 -441q-23 -50 -21 -65h258v229q32 4 49 4q18 0 50 -4v-229h79q2 -14 2 -43z" />
    <glyph glyph-name="questiondown" unicode="&#xbf;" horiz-adv-x="839" 
d="M485 817q-34 0 -59 24t-25 60t25 61t59 25q36 0 61 -25t25 -61q0 -37 -24.5 -60.5t-61.5 -23.5zM502 -344q-185 0 -300.5 113t-115.5 299q0 162 100 274t258 139q2 38 19 166q10 2 29 2q20 0 30 -2q21 -151 21 -262h-15q-151 0 -240 -86t-89 -231q0 -137 83.5 -220.5
t219.5 -83.5q126 0 225 72q46 -30 51 -78q-46 -44 -120.5 -73t-155.5 -29z" />
    <glyph glyph-name="Agrave" unicode="&#xc0;" horiz-adv-x="1214" 
d="M778 1442q-3 -32 -24 -51l-369 168q3 70 59 104zM662 1315l516 -1305q-27 -16 -72 -16q-35 0 -51 4l-154 399h-590l-147 -397q-24 -6 -47 -6q-41 0 -72 16l500 1305q24 8 59 8q34 0 58 -8zM348 496h514l-231 598l-31 94l-31 -94z" />
    <glyph glyph-name="Aacute" unicode="&#xc1;" horiz-adv-x="1214" 
d="M446 1391q-23 20 -26 51l334 221q31 -18 44 -42t15 -62zM662 1315l516 -1305q-27 -16 -72 -16q-35 0 -51 4l-154 399h-590l-147 -397q-24 -6 -47 -6q-41 0 -72 16l500 1305q24 8 59 8q34 0 58 -8zM348 496h514l-231 598l-31 94l-31 -94z" />
    <glyph glyph-name="Acircumflex" unicode="&#xc2;" horiz-adv-x="1214" 
d="M381 1389q-33 20 -41 59l223 197q43 12 84 0l223 -195q-11 -40 -41 -61l-229 163zM662 1315l516 -1305q-27 -16 -72 -16q-35 0 -51 4l-154 399h-590l-147 -397q-24 -6 -47 -6q-41 0 -72 16l500 1305q24 8 59 8q34 0 58 -8zM348 496h514l-231 598l-31 94l-31 -94z" />
    <glyph glyph-name="Atilde" unicode="&#xc3;" horiz-adv-x="1214" 
d="M477 1518q-97 0 -123 -91q-24 0 -49 9.5t-37 21.5q23 75 76.5 116.5t128.5 41.5q52 0 140 -43t122 -43q95 0 121 90q25 0 50.5 -9t35.5 -22q-23 -75 -76 -116t-125 -41q-43 0 -94 21.5t-96 43t-74 21.5zM662 1315l516 -1305q-27 -16 -72 -16q-35 0 -51 4l-154 399h-590
l-147 -397q-24 -6 -47 -6q-41 0 -72 16l500 1305q24 8 59 8q34 0 58 -8zM348 496h514l-231 598l-31 94l-31 -94z" />
    <glyph glyph-name="Adieresis" unicode="&#xc4;" horiz-adv-x="1214" 
d="M406 1452q-36 0 -61.5 24t-25.5 60q0 34 25 58t62 24q33 0 56 -24t23 -58q0 -37 -22.5 -60.5t-56.5 -23.5zM807 1452q-34 0 -58 24t-24 60q0 34 23.5 58t58.5 24q34 0 58 -24t24 -58q0 -36 -24 -60t-58 -24zM662 1315l516 -1305q-27 -16 -72 -16q-35 0 -51 4l-154 399
h-590l-147 -397q-24 -6 -47 -6q-41 0 -72 16l500 1305q24 8 59 8q34 0 58 -8zM348 496h514l-231 598l-31 94l-31 -94z" />
    <glyph glyph-name="Aring" unicode="&#xc5;" horiz-adv-x="1214" 
d="M606 1341q-78 0 -133 55.5t-55 133.5q0 77 55 131.5t133 54.5q77 0 132 -55t55 -131q0 -78 -55 -133.5t-132 -55.5zM606 1638q-45 0 -74.5 -32t-29.5 -76t29.5 -76.5t74.5 -32.5t74 32.5t29 76.5t-29 76t-74 32zM662 1315l516 -1305q-27 -16 -72 -16q-35 0 -51 4
l-154 399h-590l-147 -397q-24 -6 -47 -6q-41 0 -72 16l500 1305q24 8 59 8q34 0 58 -8zM348 496h514l-231 598l-31 94l-31 -94z" />
    <glyph glyph-name="AE" unicode="&#xc6;" horiz-adv-x="1638" 
d="M1540 106q6 -27 6 -51q0 -28 -6 -55h-719v545h-381l-321 -547q-16 -4 -47 -4q-34 0 -74 14l768 1307h745q9 -41 9 -55q0 -11 -9 -52h-575v-557h514q8 -36 8 -53t-8 -53h-514v-439h604zM504 651h317v471l4 84l-45 -86z" />
    <glyph glyph-name="Ccedilla" unicode="&#xc7;" horiz-adv-x="1228" 
d="M750 -80q73 -13 114 -45.5t41 -95.5q0 -46 -21 -80t-55.5 -52t-70.5 -26t-74 -8q-87 0 -129 22q6 45 31 74q41 -18 96 -18q53 0 87 20.5t34 59.5q0 45 -40 65t-120 25l45 112q-173 13 -304.5 104.5t-202 241.5t-70.5 338q0 198 82.5 356t230 246.5t332.5 88.5
q230 0 395 -123q-14 -63 -64 -90q-75 53 -152.5 78.5t-178.5 25.5q-232 0 -379.5 -160.5t-147.5 -421.5q0 -258 143.5 -417.5t370.5 -159.5q126 0 210.5 30t152.5 87q51 -27 59 -86q-155 -133 -395 -140z" />
    <glyph glyph-name="Egrave" unicode="&#xc8;" horiz-adv-x="1110" 
d="M784 1442q-3 -32 -24 -51l-369 168q3 69 60 104zM1010 104q8 -21 8 -49q0 -34 -8 -55h-813v1315h788q8 -21 8 -55q0 -31 -8 -52h-676v-475h609q8 -24 8 -51q0 -29 -8 -53h-609v-525h701z" />
    <glyph glyph-name="Eacute" unicode="&#xc9;" horiz-adv-x="1110" 
d="M453 1391q-24 21 -27 51l334 221q31 -18 44 -42t15 -62zM1010 104q8 -21 8 -49q0 -34 -8 -55h-813v1315h788q8 -21 8 -55q0 -31 -8 -52h-676v-475h609q8 -24 8 -51q0 -29 -8 -53h-609v-525h701z" />
    <glyph glyph-name="Ecircumflex" unicode="&#xca;" horiz-adv-x="1110" 
d="M387 1389q-33 20 -41 59l223 197q43 12 84 0l224 -195q-11 -40 -41 -61l-230 163zM1010 104q8 -21 8 -49q0 -34 -8 -55h-813v1315h788q8 -21 8 -55q0 -31 -8 -52h-676v-475h609q8 -24 8 -51q0 -29 -8 -53h-609v-525h701z" />
    <glyph glyph-name="Edieresis" unicode="&#xcb;" horiz-adv-x="1110" 
d="M412 1452q-36 0 -61 24t-25 60q0 34 25 58t61 24q34 0 57 -24t23 -58q0 -36 -23 -60t-57 -24zM813 1452q-34 0 -58 24t-24 60q0 34 23.5 58t58.5 24q34 0 58 -24t24 -58q0 -36 -24 -60t-58 -24zM1010 104q8 -21 8 -49q0 -34 -8 -55h-813v1315h788q8 -21 8 -55
q0 -31 -8 -52h-676v-475h609q8 -24 8 -51q0 -29 -8 -53h-609v-525h701z" />
    <glyph glyph-name="Igrave" unicode="&#xcc;" horiz-adv-x="507" 
d="M365 1399l-304 164q6 68 64 98l268 -217q-2 -28 -28 -45zM254 -8q-17 0 -57 8v1315q27 8 57 8q33 0 57 -8v-1315q-36 -8 -57 -8z" />
    <glyph glyph-name="Iacute" unicode="&#xcd;" horiz-adv-x="507" 
d="M131 1395q-26 17 -29 45l269 217q57 -28 63 -98zM254 -8q-17 0 -57 8v1315q27 8 57 8q33 0 57 -8v-1315q-36 -8 -57 -8z" />
    <glyph glyph-name="Icircumflex" unicode="&#xce;" horiz-adv-x="507" 
d="M293 1645l188 -193q-10 -34 -47 -55l-184 153l-176 -155q-39 16 -47 49l188 201q41 9 78 0zM254 -8q-17 0 -57 8v1315q27 8 57 8q33 0 57 -8v-1315q-36 -8 -57 -8z" />
    <glyph glyph-name="Idieresis" unicode="&#xcf;" horiz-adv-x="507" 
d="M104 1440q-34 0 -59 24.5t-25 59.5q0 34 24.5 58t59.5 24t58.5 -24t23.5 -58q0 -35 -23.5 -59.5t-58.5 -24.5zM410 1440q-35 0 -59.5 24.5t-24.5 59.5q0 34 24.5 58t59.5 24q34 0 58 -24t24 -58q0 -35 -24 -59.5t-58 -24.5zM254 -8q-17 0 -57 8v1315q27 8 57 8
q33 0 57 -8v-1315q-36 -8 -57 -8z" />
    <glyph glyph-name="Eth" unicode="&#xd0;" horiz-adv-x="1380" 
d="M545 1333q171 0 309 -49t228.5 -137t139 -211t48.5 -270q0 -149 -50 -275t-141 -216.5t-225.5 -141.5t-296.5 -51q-205 0 -360 22v608h-154q-8 28 -8 47q0 22 8 50h154v598q175 26 348 26zM559 86q280 0 435 156.5t155 419.5q0 257 -156.5 411t-447.5 154
q-132 0 -236 -13v-505h240q8 -28 8 -47q0 -18 -8 -50h-240v-512q109 -14 250 -14z" />
    <glyph glyph-name="Ntilde" unicode="&#xd1;" horiz-adv-x="1396" 
d="M573 1518q-96 0 -122 -91q-24 0 -49 9.5t-37 21.5q23 75 76 116.5t128 41.5q52 0 140 -43t122 -43q95 0 121 90q25 0 50.5 -9t35.5 -22q-23 -75 -75.5 -116t-124.5 -41q-43 0 -94 21.5t-96.5 43t-74.5 21.5zM1145 1325q19 0 55 -8v-1309q-44 -12 -100 -12l-766 1081
l-29 53l2 -61v-1069q-24 -8 -55 -8t-55 8v1305q52 27 104 16l766 -1083l27 -45l-2 65v1059q36 8 53 8z" />
    <glyph glyph-name="Ograve" unicode="&#xd2;" horiz-adv-x="1495" 
d="M895 1391l-369 168q3 69 60 104l334 -221q-3 -32 -25 -51zM748 -27q-187 0 -333 89.5t-225 245.5t-79 351q0 193 79 349.5t225 248t333 91.5t332.5 -89t224.5 -246t79 -354q0 -143 -46.5 -269t-128.5 -218t-201.5 -145.5t-259.5 -53.5zM748 80q235 0 376.5 162t141.5 417
q0 259 -141 420.5t-377 161.5q-237 0 -378 -161.5t-141 -420.5q0 -256 141.5 -417.5t377.5 -161.5z" />
    <glyph glyph-name="Oacute" unicode="&#xd3;" horiz-adv-x="1495" 
d="M588 1391q-24 21 -27 51l334 221q31 -18 44 -42t15 -62zM748 -27q-187 0 -333 89.5t-225 245.5t-79 351q0 193 79 349.5t225 248t333 91.5t332.5 -89t224.5 -246t79 -354q0 -143 -46.5 -269t-128.5 -218t-201.5 -145.5t-259.5 -53.5zM748 80q235 0 376.5 162t141.5 417
q0 259 -141 420.5t-377 161.5q-237 0 -378 -161.5t-141 -420.5q0 -256 141.5 -417.5t377.5 -161.5z" />
    <glyph glyph-name="Ocircumflex" unicode="&#xd4;" horiz-adv-x="1495" 
d="M522 1389q-33 20 -41 59l224 197q43 12 83 0l224 -195q-11 -40 -41 -61l-230 163zM748 -27q-187 0 -333 89.5t-225 245.5t-79 351q0 193 79 349.5t225 248t333 91.5t332.5 -89t224.5 -246t79 -354q0 -143 -46.5 -269t-128.5 -218t-201.5 -145.5t-259.5 -53.5zM748 80
q235 0 376.5 162t141.5 417q0 259 -141 420.5t-377 161.5q-237 0 -378 -161.5t-141 -420.5q0 -256 141.5 -417.5t377.5 -161.5z" />
    <glyph glyph-name="Otilde" unicode="&#xd5;" horiz-adv-x="1495" 
d="M496 1427q-24 0 -49 9.5t-37 21.5q23 75 76 116.5t128 41.5q52 0 140.5 -43t122.5 -43q94 0 120 90q25 0 50.5 -9t35.5 -22q-23 -75 -75.5 -116t-124.5 -41q-43 0 -94 21.5t-96.5 43t-74.5 21.5q-96 0 -122 -91zM748 -27q-187 0 -333 89.5t-225 245.5t-79 351
q0 193 79 349.5t225 248t333 91.5t332.5 -89t224.5 -246t79 -354q0 -143 -46.5 -269t-128.5 -218t-201.5 -145.5t-259.5 -53.5zM748 80q235 0 376.5 162t141.5 417q0 259 -141 420.5t-377 161.5q-237 0 -378 -161.5t-141 -420.5q0 -256 141.5 -417.5t377.5 -161.5z" />
    <glyph glyph-name="Odieresis" unicode="&#xd6;" horiz-adv-x="1495" 
d="M547 1452q-36 0 -61 24t-25 60q0 34 25 58t61 24q34 0 57 -24t23 -58q0 -36 -23 -60t-57 -24zM948 1452q-34 0 -58 24t-24 60q0 34 23.5 58t58.5 24q34 0 58 -24t24 -58q0 -36 -24 -60t-58 -24zM748 -27q-187 0 -333 89.5t-225 245.5t-79 351q0 193 79 349.5t225 248
t333 91.5t332.5 -89t224.5 -246t79 -354q0 -143 -46.5 -269t-128.5 -218t-201.5 -145.5t-259.5 -53.5zM748 80q235 0 376.5 162t141.5 417q0 259 -141 420.5t-377 161.5q-237 0 -378 -161.5t-141 -420.5q0 -256 141.5 -417.5t377.5 -161.5z" />
    <glyph glyph-name="multiply" unicode="&#xd7;" horiz-adv-x="940" 
d="M805 760l-262 -262l262 -265q-25 -43 -72 -71l-262 264l-262 -262q-43 23 -72 69l262 263l-262 262q26 44 72 71l262 -262l262 262q44 -24 72 -69z" />
    <glyph glyph-name="Oslash" unicode="&#xd8;" horiz-adv-x="1495" 
d="M1384 1280l-147 -162q147 -186 147 -459q0 -143 -46.5 -269t-128.5 -218t-201.5 -145.5t-259.5 -53.5q-243 0 -416 152l-142 -156q-58 19 -73 74l143 158q-149 185 -149 458q0 193 79 349.5t225 248t333 91.5q244 0 419 -154l142 154q53 -15 75 -68zM229 659
q0 -221 109 -374l756 827q-138 129 -346 129q-237 0 -378 -161.5t-141 -420.5zM1266 659q0 224 -105 375l-755 -829q137 -125 342 -125q235 0 376.5 162t141.5 417z" />
    <glyph glyph-name="Ugrave" unicode="&#xd9;" horiz-adv-x="1376" 
d="M848 1391l-369 168q3 69 60 104l333 -221q-3 -32 -24 -51zM696 -29q-232 0 -374 145.5t-142 395.5v803q40 8 58 8q23 0 59 -8v-803q0 -193 105 -311.5t294 -118.5q183 0 284 118.5t101 311.5v803q40 8 60 8q21 0 53 -8v-803q0 -247 -135.5 -394t-362.5 -147z" />
    <glyph glyph-name="Uacute" unicode="&#xda;" horiz-adv-x="1376" 
d="M541 1391q-24 21 -27 51l334 221q31 -18 44 -42t15 -62zM696 -29q-232 0 -374 145.5t-142 395.5v803q40 8 58 8q23 0 59 -8v-803q0 -193 105 -311.5t294 -118.5q183 0 284 118.5t101 311.5v803q40 8 60 8q21 0 53 -8v-803q0 -247 -135.5 -394t-362.5 -147z" />
    <glyph glyph-name="Ucircumflex" unicode="&#xdb;" horiz-adv-x="1376" 
d="M475 1389q-33 20 -41 59l223 197q43 12 84 0l224 -195q-11 -40 -41 -61l-230 163zM696 -29q-232 0 -374 145.5t-142 395.5v803q40 8 58 8q23 0 59 -8v-803q0 -193 105 -311.5t294 -118.5q183 0 284 118.5t101 311.5v803q40 8 60 8q21 0 53 -8v-803q0 -247 -135.5 -394
t-362.5 -147z" />
    <glyph glyph-name="Udieresis" unicode="&#xdc;" horiz-adv-x="1376" 
d="M500 1452q-36 0 -61 24t-25 60q0 34 25 58t61 24q34 0 57 -24t23 -58q0 -36 -23 -60t-57 -24zM901 1452q-34 0 -58 24t-24 60q0 34 23.5 58t58.5 24q34 0 58 -24t24 -58q0 -36 -24 -60t-58 -24zM696 -29q-232 0 -374 145.5t-142 395.5v803q40 8 58 8q23 0 59 -8v-803
q0 -193 105 -311.5t294 -118.5q183 0 284 118.5t101 311.5v803q40 8 60 8q21 0 53 -8v-803q0 -247 -135.5 -394t-362.5 -147z" />
    <glyph glyph-name="Yacute" unicode="&#xdd;" horiz-adv-x="1163" 
d="M422 1391q-24 21 -27 51l334 221q31 -18 44 -42t15 -62zM1053 1325q37 0 67 -12l-481 -785v-528q-36 -8 -57 -8q-20 0 -56 8v532l-493 781q37 12 76 12q25 0 49 -4l407 -641l23 -47l22 47l391 641q16 4 52 4z" />
    <glyph glyph-name="Thorn" unicode="&#xde;" horiz-adv-x="1103" 
d="M541 1073q236 0 359.5 -108t123.5 -297t-125.5 -307.5t-353.5 -118.5q-133 0 -232 12v-254q-36 -8 -57 -8q-19 0 -59 8v1317q40 8 59 8q21 0 57 -8v-268q117 24 228 24zM543 344q182 0 271 86.5t89 237.5q0 139 -92.5 220t-271.5 81q-111 0 -226 -23v-586
q113 -19 230 -16z" />
    <glyph glyph-name="germandbls" unicode="&#xdf;" horiz-adv-x="1163" 
d="M819 551q138 -58 201 -120.5t63 -170.5q0 -132 -86.5 -207.5t-228.5 -75.5q-98 0 -175.5 35.5t-117.5 79.5q4 26 22.5 48.5t43.5 33.5q96 -96 227 -96q101 0 152 45t51 123q0 71 -44 111.5t-159 86.5q-41 17 -66 28.5t-59 30t-54 37.5t-39.5 44.5t-28.5 58t-9 70.5
q0 125 94 192.5t228 67.5q25 0 49 -4q-2 156 -78.5 248t-220.5 92q-143 0 -223 -82.5t-80 -231.5v-995q-27 -6 -56 -6q-30 0 -57 6v995q0 128 57 224.5t150.5 145t208.5 48.5q184 0 297.5 -118t113.5 -337q0 -54 -10 -96q-73 15 -149 15q-94 0 -152.5 -40.5t-58.5 -109.5
q0 -61 42 -96t152 -80z" />
    <glyph glyph-name="agrave" unicode="&#xe0;" horiz-adv-x="1019" 
d="M657 1124q-5 -28 -32 -47l-332 223q13 37 29 59t45 36zM481 989q85 0 155 -20.5t125 -62.5t85.5 -113t30.5 -166v-564q-73 -40 -183 -64t-211 -24q-195 0 -296 85t-101 225q0 143 108 222t279 79q161 0 293 -64v101q0 130 -77 195t-212 65q-159 0 -289 -95q-47 23 -57 76
q48 46 140 85.5t210 39.5zM203 293q0 -98 72.5 -156.5t209.5 -58.5q161 0 281 49v287q-131 69 -293 69q-128 0 -199 -49.5t-71 -140.5z" />
    <glyph glyph-name="aacute" unicode="&#xe1;" horiz-adv-x="1019" 
d="M346 1077q-27 16 -35 47l293 271q49 -25 74 -95zM481 989q85 0 155 -20.5t125 -62.5t85.5 -113t30.5 -166v-564q-73 -40 -183 -64t-211 -24q-195 0 -296 85t-101 225q0 143 108 222t279 79q161 0 293 -64v101q0 130 -77 195t-212 65q-159 0 -289 -95q-47 23 -57 76
q48 46 140 85.5t210 39.5zM203 293q0 -98 72.5 -156.5t209.5 -58.5q161 0 281 49v287q-131 69 -293 69q-128 0 -199 -49.5t-71 -140.5z" />
    <glyph glyph-name="acircumflex" unicode="&#xe2;" horiz-adv-x="1019" 
d="M285 1087q-41 16 -56 60l224 231q41 9 82 0l221 -231q-18 -48 -60 -64l-207 193zM481 989q85 0 155 -20.5t125 -62.5t85.5 -113t30.5 -166v-564q-73 -40 -183 -64t-211 -24q-195 0 -296 85t-101 225q0 143 108 222t279 79q161 0 293 -64v101q0 130 -77 195t-212 65
q-159 0 -289 -95q-47 23 -57 76q48 46 140 85.5t210 39.5zM203 293q0 -98 72.5 -156.5t209.5 -58.5q161 0 281 49v287q-131 69 -293 69q-128 0 -199 -49.5t-71 -140.5z" />
    <glyph glyph-name="atilde" unicode="&#xe3;" horiz-adv-x="1019" 
d="M365 1235q-84 0 -113 -92q-24 0 -50 9.5t-38 21.5q23 75 73.5 116t118.5 41q45 0 96.5 -21.5t97.5 -43t77 -21.5q83 0 112 90q54 0 84 -30q-22 -73 -72 -114.5t-116 -41.5q-45 0 -96 21.5t-96.5 43t-77.5 21.5zM481 989q85 0 155 -20.5t125 -62.5t85.5 -113t30.5 -166
v-564q-73 -40 -183 -64t-211 -24q-195 0 -296 85t-101 225q0 143 108 222t279 79q161 0 293 -64v101q0 130 -77 195t-212 65q-159 0 -289 -95q-47 23 -57 76q48 46 140 85.5t210 39.5zM203 293q0 -98 72.5 -156.5t209.5 -58.5q161 0 281 49v287q-131 69 -293 69
q-128 0 -199 -49.5t-71 -140.5z" />
    <glyph glyph-name="adieresis" unicode="&#xe4;" horiz-adv-x="1019" 
d="M291 1149q-36 0 -61 24t-25 60q0 35 24.5 59.5t61.5 24.5q35 0 59.5 -24.5t24.5 -59.5q0 -36 -24 -60t-60 -24zM700 1149q-36 0 -61 24t-25 60q0 35 24.5 59.5t61.5 24.5q34 0 59 -24.5t25 -59.5q0 -36 -25 -60t-59 -24zM481 989q85 0 155 -20.5t125 -62.5t85.5 -113
t30.5 -166v-564q-73 -40 -183 -64t-211 -24q-195 0 -296 85t-101 225q0 143 108 222t279 79q161 0 293 -64v101q0 130 -77 195t-212 65q-159 0 -289 -95q-47 23 -57 76q48 46 140 85.5t210 39.5zM203 293q0 -98 72.5 -156.5t209.5 -58.5q161 0 281 49v287q-131 69 -293 69
q-128 0 -199 -49.5t-71 -140.5z" />
    <glyph glyph-name="aring" unicode="&#xe5;" horiz-adv-x="1019" 
d="M496 1044q-78 0 -133.5 56t-55.5 133q0 78 55.5 133t133.5 55q77 0 131.5 -55t54.5 -133q0 -77 -55 -133t-131 -56zM496 1343q-45 0 -76 -32.5t-31 -77.5q0 -44 31 -76.5t76 -32.5q46 0 76 32.5t30 76.5q0 45 -30 77.5t-76 32.5zM481 989q85 0 155 -20.5t125 -62.5
t85.5 -113t30.5 -166v-564q-73 -40 -183 -64t-211 -24q-195 0 -296 85t-101 225q0 143 108 222t279 79q161 0 293 -64v101q0 130 -77 195t-212 65q-159 0 -289 -95q-47 23 -57 76q48 46 140 85.5t210 39.5zM203 293q0 -98 72.5 -156.5t209.5 -58.5q161 0 281 49v287
q-131 69 -293 69q-128 0 -199 -49.5t-71 -140.5z" />
    <glyph glyph-name="ae" unicode="&#xe6;" horiz-adv-x="1638" 
d="M412 -25q-152 0 -239 78t-87 215q0 135 104 212t283 77l264 2v78q0 125 -73.5 184.5t-198.5 59.5q-150 0 -281 -99q-41 24 -59 80q50 46 141 86.5t203 40.5q83 0 150 -20.5t123 -74.5t77 -138q43 110 137 171.5t205 61.5q176 0 276.5 -124.5t100.5 -340.5q0 -40 -2 -63
h-684v-6q4 -178 91 -276.5t228 -98.5q56 0 101 9t82.5 29.5t54 32t47.5 37.5q47 -26 62 -86q-77 -59 -156.5 -93t-190.5 -34q-158 0 -255 74.5t-132 204.5q-41 -138 -143 -208.5t-229 -70.5zM854 559h567q0 139 -65 232.5t-191 93.5q-131 0 -218 -93.5t-93 -232.5zM418 76
q44 0 86 11t85 38.5t75 69.5t52.5 110.5t20.5 155.5h-264q-268 -3 -268 -193q-1 -90 56.5 -141t156.5 -51z" />
    <glyph glyph-name="ccedilla" unicode="&#xe7;" horiz-adv-x="991" 
d="M594 -80q73 -14 114.5 -46t41.5 -95q0 -46 -21 -80t-56 -52t-71 -26t-74 -8q-87 0 -129 22q6 45 31 74q41 -18 96 -18q53 0 87 20.5t34 59.5q0 45 -40 65t-120 25l45 116q-192 18 -311 151.5t-119 352.5q0 113 38.5 209t104 161t154 101.5t187.5 36.5q195 0 317 -110
q-15 -54 -65 -84q-112 90 -252 90q-115 0 -200 -57t-126 -147t-41 -200q0 -174 97 -286.5t270 -112.5q150 0 268 96q50 -29 64 -82q-126 -110 -304 -121z" />
    <glyph glyph-name="egrave" unicode="&#xe8;" horiz-adv-x="1071" 
d="M719 1124q-5 -27 -33 -47l-332 223q13 37 29 59t45 36zM979 541q0 -27 -6 -80h-754q5 -173 100.5 -277t255.5 -104q75 0 139 19t95.5 38t69.5 49q47 -23 61 -77q-158 -134 -365 -134q-211 0 -342 134.5t-131 369.5q0 113 36.5 209.5t98.5 162t145.5 102t176.5 36.5
q182 0 300.5 -120t119.5 -328zM223 557h635q0 151 -82 240.5t-217 89.5q-139 0 -230.5 -93.5t-105.5 -236.5z" />
    <glyph glyph-name="eacute" unicode="&#xe9;" horiz-adv-x="1071" 
d="M408 1077q-27 16 -35 47l293 271q28 -14 44 -36.5t29 -58.5zM979 541q0 -27 -6 -80h-754q5 -173 100.5 -277t255.5 -104q75 0 139 19t95.5 38t69.5 49q47 -23 61 -77q-158 -134 -365 -134q-211 0 -342 134.5t-131 369.5q0 113 36.5 209.5t98.5 162t145.5 102t176.5 36.5
q182 0 300.5 -120t119.5 -328zM223 557h635q0 151 -82 240.5t-217 89.5q-139 0 -230.5 -93.5t-105.5 -236.5z" />
    <glyph glyph-name="ecircumflex" unicode="&#xea;" horiz-adv-x="1071" 
d="M346 1087q-40 16 -55 60l223 231q41 9 82 0l221 -231q-18 -48 -59 -64l-207 193zM979 541q0 -27 -6 -80h-754q5 -173 100.5 -277t255.5 -104q75 0 139 19t95.5 38t69.5 49q47 -23 61 -77q-158 -134 -365 -134q-211 0 -342 134.5t-131 369.5q0 113 36.5 209.5t98.5 162
t145.5 102t176.5 36.5q182 0 300.5 -120t119.5 -328zM223 557h635q0 151 -82 240.5t-217 89.5q-139 0 -230.5 -93.5t-105.5 -236.5z" />
    <glyph glyph-name="edieresis" unicode="&#xeb;" horiz-adv-x="1071" 
d="M350 1149q-36 0 -61 24t-25 60q0 35 24.5 59.5t61.5 24.5q35 0 59.5 -24.5t24.5 -59.5q0 -36 -24 -60t-60 -24zM760 1149q-36 0 -61 24t-25 60q0 35 24.5 59.5t61.5 24.5q34 0 59 -24.5t25 -59.5q0 -36 -25 -60t-59 -24zM979 541q0 -27 -6 -80h-754q5 -173 100.5 -277
t255.5 -104q75 0 139 19t95.5 38t69.5 49q47 -23 61 -77q-158 -134 -365 -134q-211 0 -342 134.5t-131 369.5q0 113 36.5 209.5t98.5 162t145.5 102t176.5 36.5q182 0 300.5 -120t119.5 -328zM223 557h635q0 151 -82 240.5t-217 89.5q-139 0 -230.5 -93.5t-105.5 -236.5z
" />
    <glyph glyph-name="igrave" unicode="&#xec;" horiz-adv-x="456" 
d="M336 1077l-301 244q21 67 88 92l254 -291q-8 -32 -41 -45zM229 -6q-30 0 -57 6v963q24 8 57 8q35 0 56 -8v-963q-24 -6 -56 -6z" />
    <glyph glyph-name="iacute" unicode="&#xed;" horiz-adv-x="456" 
d="M113 1077q-33 13 -41 45l256 291q67 -26 88 -92zM229 -6q-30 0 -57 6v963q24 8 57 8q35 0 56 -8v-963q-24 -6 -56 -6z" />
    <glyph glyph-name="icircumflex" unicode="&#xee;" horiz-adv-x="456" 
d="M260 1380l182 -233q-12 -35 -49 -47l-172 180l-170 -180q-37 12 -51 47l186 235q39 6 74 -2zM229 -6q-30 0 -57 6v963q24 8 57 8q35 0 56 -8v-963q-24 -6 -56 -6z" />
    <glyph glyph-name="idieresis" unicode="&#xef;" horiz-adv-x="456" 
d="M66 1149q-36 0 -61 23.5t-25 58.5t24.5 58.5t61.5 23.5q34 0 56.5 -23.5t22.5 -58.5t-22.5 -58.5t-56.5 -23.5zM379 1149q-35 0 -59.5 23.5t-24.5 58.5t24.5 58.5t59.5 23.5q34 0 58 -23.5t24 -58.5t-24 -58.5t-58 -23.5zM229 -6q-30 0 -57 6v963q24 8 57 8q35 0 56 -8
v-963q-24 -6 -56 -6z" />
    <glyph glyph-name="eth" unicode="&#xf0;" horiz-adv-x="1112" 
d="M666 1196q338 -239 338 -741q0 -211 -127.5 -345.5t-331.5 -134.5q-195 0 -318 126.5t-123 330.5q0 198 128.5 328.5t312.5 130.5q191 0 315 -127q-74 232 -289 364l-178 -127q-14 9 -28 29q-14 22 -17 37l146 104q-96 46 -201 72q-3 66 43 107q148 -45 258 -107l151 109
q18 -11 27 -29q17 -21 19 -37zM553 78q154 0 243 100t89 262q0 153 -91.5 252t-238.5 99q-151 0 -243.5 -99t-92.5 -260q0 -158 91 -256t243 -98z" />
    <glyph glyph-name="ntilde" unicode="&#xf1;" horiz-adv-x="1148" 
d="M438 1235q-83 0 -112 -92q-24 0 -50 9.5t-38 21.5q23 75 73.5 116t118.5 41q45 0 96.5 -21.5t97 -43t76.5 -21.5q84 0 113 90q54 0 84 -30q-22 -73 -72 -114.5t-116 -41.5q-57 0 -146 43t-125 43zM584 989q105 0 184.5 -30t128 -84t72.5 -123t24 -152v-600q-27 -6 -57 -6
t-57 6v567q0 316 -310 316q-87 0 -165.5 -25.5t-129.5 -58.5v-799q-27 -6 -57 -6t-57 6v850q73 58 184.5 98.5t239.5 40.5z" />
    <glyph glyph-name="ograve" unicode="&#xf2;" horiz-adv-x="1173" 
d="M719 1077l-332 223q13 37 29 59t45 36l291 -271q-5 -27 -33 -47zM584 -23q-212 0 -348 143t-136 363q0 217 140.5 361.5t349.5 144.5q211 0 347 -144t136 -362q0 -217 -140 -361.5t-349 -144.5zM588 84q168 0 269 112t101 287q0 172 -101.5 286t-268.5 114t-269 -114
t-102 -286q0 -174 101.5 -286.5t269.5 -112.5z" />
    <glyph glyph-name="oacute" unicode="&#xf3;" horiz-adv-x="1173" 
d="M440 1077q-16 10 -22.5 19.5t-11.5 27.5l292 271q49 -25 74 -95zM584 -23q-212 0 -348 143t-136 363q0 217 140.5 361.5t349.5 144.5q211 0 347 -144t136 -362q0 -217 -140 -361.5t-349 -144.5zM588 84q168 0 269 112t101 287q0 172 -101.5 286t-268.5 114t-269 -114
t-102 -286q0 -174 101.5 -286.5t269.5 -112.5z" />
    <glyph glyph-name="ocircumflex" unicode="&#xf4;" horiz-adv-x="1173" 
d="M629 1378l221 -231q-18 -48 -59 -64l-207 193l-205 -189q-40 16 -55 60l223 231q41 9 82 0zM584 -23q-212 0 -348 143t-136 363q0 217 140.5 361.5t349.5 144.5q211 0 347 -144t136 -362q0 -217 -140 -361.5t-349 -144.5zM588 84q168 0 269 112t101 287q0 172 -101.5 286
t-268.5 114t-269 -114t-102 -286q0 -174 101.5 -286.5t269.5 -112.5z" />
    <glyph glyph-name="otilde" unicode="&#xf5;" horiz-adv-x="1173" 
d="M346 1143q-24 0 -50 9.5t-38 21.5q23 75 74 116t119 41q45 0 96.5 -21.5t97 -43t76.5 -21.5q84 0 113 90q54 0 84 -30q-22 -73 -72.5 -114.5t-116.5 -41.5q-57 0 -145.5 43t-124.5 43q-84 0 -113 -92zM584 -23q-212 0 -348 143t-136 363q0 217 140.5 361.5t349.5 144.5
q211 0 347 -144t136 -362q0 -217 -140 -361.5t-349 -144.5zM588 84q168 0 269 112t101 287q0 172 -101.5 286t-268.5 114t-269 -114t-102 -286q0 -174 101.5 -286.5t269.5 -112.5z" />
    <glyph glyph-name="odieresis" unicode="&#xf6;" horiz-adv-x="1173" 
d="M385 1149q-36 0 -61 24t-25 60q0 35 24.5 59.5t61.5 24.5q35 0 59.5 -24.5t24.5 -59.5q0 -36 -24 -60t-60 -24zM795 1149q-36 0 -61 24t-25 60q0 35 24.5 59.5t61.5 24.5q34 0 59 -24.5t25 -59.5q0 -36 -25 -60t-59 -24zM584 -23q-212 0 -348 143t-136 363
q0 217 140.5 361.5t349.5 144.5q211 0 347 -144t136 -362q0 -217 -140 -361.5t-349 -144.5zM588 84q168 0 269 112t101 287q0 172 -101.5 286t-268.5 114t-269 -114t-102 -286q0 -174 101.5 -286.5t269.5 -112.5z" />
    <glyph glyph-name="divide" unicode="&#xf7;" horiz-adv-x="1093" 
d="M547 705q-40 0 -68 28t-28 66q0 40 28 68t68 28t68 -28t28 -68q0 -38 -28 -66t-68 -28zM137 434q-6 24 -6 49t6 49h819q7 -24 7 -49q0 -21 -7 -49h-819zM547 74q-40 0 -68 28t-28 66q0 40 28 68t68 28t68 -28t28 -68q0 -38 -28 -66t-68 -28z" />
    <glyph glyph-name="oslash" unicode="&#xf8;" horiz-adv-x="1179" 
d="M956 827q119 -141 119 -344q0 -217 -140 -361.5t-349 -144.5q-170 0 -301 101l-117 -131q-22 6 -39.5 23t-24.5 40l117 129q-119 138 -119 344q0 217 140.5 361.5t351.5 144.5q177 0 301 -102l115 127q46 -13 63 -58zM219 483q0 -149 78 -260l524 582q-97 78 -231 78
q-167 0 -269 -114t-102 -286zM590 84q168 0 269.5 112.5t101.5 286.5q0 151 -80 258l-523 -581q99 -76 232 -76z" />
    <glyph glyph-name="ugrave" unicode="&#xf9;" horiz-adv-x="1134" 
d="M733 1124q-5 -27 -33 -47l-331 223q13 38 28.5 59.5t44.5 35.5zM915 963q27 0 58 -7v-895q-199 -88 -420 -88q-198 0 -297.5 100.5t-99.5 276.5v606q31 7 57 7q25 0 57 -7v-559q0 -76 13.5 -130.5t47 -98.5t96 -66t153.5 -22q145 0 278 55v821q31 7 57 7z" />
    <glyph glyph-name="uacute" unicode="&#xfa;" horiz-adv-x="1134" 
d="M422 1077q-27 16 -35 47l293 271q49 -25 74 -95zM915 963q27 0 58 -7v-895q-199 -88 -420 -88q-198 0 -297.5 100.5t-99.5 276.5v606q31 7 57 7q25 0 57 -7v-559q0 -76 13.5 -130.5t47 -98.5t96 -66t153.5 -22q145 0 278 55v821q31 7 57 7z" />
    <glyph glyph-name="ucircumflex" unicode="&#xfb;" horiz-adv-x="1134" 
d="M360 1087q-40 16 -55 60l223 231q41 9 82 0l221 -231q-18 -48 -59 -64l-207 193zM915 963q27 0 58 -7v-895q-199 -88 -420 -88q-198 0 -297.5 100.5t-99.5 276.5v606q31 7 57 7q25 0 57 -7v-559q0 -76 13.5 -130.5t47 -98.5t96 -66t153.5 -22q145 0 278 55v821q31 7 57 7
z" />
    <glyph glyph-name="udieresis" unicode="&#xfc;" horiz-adv-x="1134" 
d="M365 1149q-36 0 -61 24t-25 60q0 35 24.5 59.5t61.5 24.5q35 0 59.5 -24.5t24.5 -59.5q0 -36 -24 -60t-60 -24zM774 1149q-36 0 -61 24t-25 60q0 35 24.5 59.5t61.5 24.5q34 0 59 -24.5t25 -59.5q0 -36 -25 -60t-59 -24zM915 963q27 0 58 -7v-895q-199 -88 -420 -88
q-198 0 -297.5 100.5t-99.5 276.5v606q31 7 57 7q25 0 57 -7v-559q0 -76 13.5 -130.5t47 -98.5t96 -66t153.5 -22q145 0 278 55v821q31 7 57 7z" />
    <glyph glyph-name="yacute" unicode="&#xfd;" horiz-adv-x="1009" 
d="M365 1077q-27 16 -35 47l293 271q28 -14 44 -36.5t29 -58.5zM891 963q28 0 67 -13q-94 -402 -267 -739t-439 -625q-28 6 -49.5 25t-30.5 45q175 190 281 362q-126 199 -234 449.5t-164 484.5q33 11 70 11q16 0 51 -5q87 -374 330 -819q2 -5 7 -14t7 -14q2 6 8 14.5
t7 11.5q229 426 307 821q30 5 49 5z" />
    <glyph glyph-name="thorn" unicode="&#xfe;" horiz-adv-x="1144" 
d="M555 989q103 0 191 -32t154.5 -92.5t104 -155t37.5 -213.5t-38.5 -218t-105 -164.5t-155.5 -101t-190 -35.5q-153 0 -272 50v-410q-24 -6 -56 -6q-30 0 -57 6v1731q27 6 57 6q32 0 56 -6v-426q134 67 274 67zM553 84q164 0 269.5 109t105.5 296q0 184 -103 288t-270 104
q-150 0 -274 -72v-666q106 -59 272 -59z" />
    <glyph glyph-name="ydieresis" unicode="&#xff;" horiz-adv-x="1009" 
d="M307 1149q-36 0 -61 24t-25 60q0 35 24.5 59.5t61.5 24.5q35 0 59.5 -24.5t24.5 -59.5q0 -36 -24 -60t-60 -24zM717 1149q-36 0 -61 24t-25 60q0 35 24.5 59.5t61.5 24.5q34 0 59 -24.5t25 -59.5q0 -36 -25 -60t-59 -24zM891 963q28 0 67 -13q-94 -402 -267 -739
t-439 -625q-28 6 -49.5 25t-30.5 45q175 190 281 362q-126 199 -234 449.5t-164 484.5q33 11 70 11q16 0 51 -5q87 -374 330 -819q2 -5 7 -14t7 -14q2 6 8 14.5t7 11.5q229 426 307 821q30 5 49 5z" />
    <glyph glyph-name="Amacron" unicode="&#x100;" horiz-adv-x="1214" 
d="M870 1475h-530q-6 21 -6 49q0 3 6 45h530q7 -16 7 -45q0 -30 -7 -49zM662 1315l516 -1305q-27 -16 -72 -16q-35 0 -51 4l-154 399h-590l-147 -397q-24 -6 -47 -6q-41 0 -72 16l500 1305q24 8 59 8q34 0 58 -8zM348 496h514l-231 598l-31 94l-31 -94z" />
    <glyph glyph-name="amacron" unicode="&#x101;" horiz-adv-x="1019" 
d="M754 1165h-518q-7 16 -7 47q0 24 7 48h518q8 -21 8 -48q0 -26 -8 -47zM481 989q85 0 155 -20.5t125 -62.5t85.5 -113t30.5 -166v-564q-73 -40 -183 -64t-211 -24q-195 0 -296 85t-101 225q0 143 108 222t279 79q161 0 293 -64v101q0 130 -77 195t-212 65q-159 0 -289 -95
q-47 23 -57 76q48 46 140 85.5t210 39.5zM203 293q0 -98 72.5 -156.5t209.5 -58.5q161 0 281 49v287q-131 69 -293 69q-128 0 -199 -49.5t-71 -140.5z" />
    <glyph glyph-name="Abreve" unicode="&#x102;" horiz-adv-x="1214" 
d="M604 1413q-109 0 -183 63.5t-83 161.5q44 16 86 11q15 -67 65 -105.5t117 -38.5q68 0 120.5 39.5t61.5 104.5q41 5 82 -11q-6 -94 -81.5 -159.5t-184.5 -65.5zM662 1315l516 -1305q-27 -16 -72 -16q-35 0 -51 4l-154 399h-590l-147 -397q-24 -6 -47 -6q-41 0 -72 16
l500 1305q24 8 59 8q34 0 58 -8zM348 496h514l-231 598l-31 94l-31 -94z" />
    <glyph glyph-name="abreve" unicode="&#x103;" horiz-adv-x="1019" 
d="M494 1096q-118 0 -188.5 70.5t-78.5 185.5q39 16 84 10q12 -85 60 -130.5t125 -45.5q75 0 125 46.5t57 129.5q49 3 82 -10q-5 -110 -77 -183t-189 -73zM481 989q85 0 155 -20.5t125 -62.5t85.5 -113t30.5 -166v-564q-73 -40 -183 -64t-211 -24q-195 0 -296 85t-101 225
q0 143 108 222t279 79q161 0 293 -64v101q0 130 -77 195t-212 65q-159 0 -289 -95q-47 23 -57 76q48 46 140 85.5t210 39.5zM203 293q0 -98 72.5 -156.5t209.5 -58.5q161 0 281 49v287q-131 69 -293 69q-128 0 -199 -49.5t-71 -140.5z" />
    <glyph glyph-name="Aogonek" unicode="&#x104;" horiz-adv-x="1214" 
d="M1233 -238q17 -10 30 -30.5t13 -44.5q-73 -62 -182 -62q-72 0 -117 39.5t-45 108.5q0 110 123 227l-154 397h-590l-147 -397q-24 -6 -47 -6q-41 0 -72 16l500 1305q24 8 59 8q34 0 58 -8l516 -1305q-138 -117 -138 -205q0 -42 25 -61.5t59 -19.5q62 0 109 38zM348 496
h514l-231 598l-31 94l-31 -94z" />
    <glyph glyph-name="aogonek" unicode="&#x105;" horiz-adv-x="1019" 
d="M881 -238q16 -11 28.5 -31t12.5 -44q-73 -62 -183 -62q-71 0 -116 39.5t-45 108.5q0 114 124 229q-108 -27 -219 -27q-195 0 -296 85t-101 225q0 143 108 222t279 79q161 0 293 -64v101q0 130 -77 195t-212 65q-159 0 -289 -95q-47 23 -57 76q48 46 140 85.5t210 39.5
q85 0 155 -20.5t125 -62.5t85.5 -113t30.5 -166v-564q-80 -60 -134.5 -132t-54.5 -130q0 -39 24 -58t58 -19q56 0 111 38zM203 293q0 -98 72.5 -156.5t209.5 -58.5q161 0 281 49v287q-131 69 -293 69q-128 0 -199 -49.5t-71 -140.5z" />
    <glyph glyph-name="Cacute" unicode="&#x106;" horiz-adv-x="1228" 
d="M563 1391q-23 20 -26 51l333 221q32 -18 45 -42t15 -62zM743 -29q-188 0 -332.5 88.5t-222 244t-77.5 353.5t82.5 356t230 246.5t332.5 88.5q230 0 395 -123q-14 -63 -64 -90q-75 53 -152.5 78.5t-178.5 25.5q-232 0 -379.5 -160.5t-147.5 -421.5q0 -258 143.5 -417.5
t370.5 -159.5q126 0 210.5 30t152.5 87q51 -27 59 -86q-167 -140 -422 -140z" />
    <glyph glyph-name="cacute" unicode="&#x107;" horiz-adv-x="991" 
d="M420 1077q-27 16 -35 47l293 271q49 -25 74 -95zM586 -25q-212 0 -348 136t-136 370q0 113 38.5 209t104 161t154 101.5t187.5 36.5q195 0 317 -110q-15 -54 -65 -84q-112 90 -252 90q-115 0 -200 -57t-126 -147t-41 -200q0 -174 97 -286.5t270 -112.5q150 0 268 96
q50 -29 64 -82q-136 -121 -332 -121z" />
    <glyph glyph-name="Cdotaccent" unicode="&#x10a;" horiz-adv-x="1228" 
d="M725 1452q-37 0 -62.5 24.5t-25.5 61.5t25.5 62.5t62.5 25.5q35 0 60.5 -25.5t25.5 -62.5q0 -36 -25 -61t-61 -25zM743 -29q-188 0 -332.5 88.5t-222 244t-77.5 353.5t82.5 356t230 246.5t332.5 88.5q230 0 395 -123q-14 -63 -64 -90q-75 53 -152.5 78.5t-178.5 25.5
q-232 0 -379.5 -160.5t-147.5 -421.5q0 -258 143.5 -417.5t370.5 -159.5q126 0 210.5 30t152.5 87q51 -27 59 -86q-167 -140 -422 -140z" />
    <glyph glyph-name="cdotaccent" unicode="&#x10b;" horiz-adv-x="991" 
d="M569 1157q-37 0 -64.5 26t-27.5 64q0 37 27 63.5t65 26.5q37 0 62.5 -26.5t25.5 -63.5q0 -38 -25.5 -64t-62.5 -26zM586 -25q-212 0 -348 136t-136 370q0 113 38.5 209t104 161t154 101.5t187.5 36.5q195 0 317 -110q-15 -54 -65 -84q-112 90 -252 90q-115 0 -200 -57
t-126 -147t-41 -200q0 -174 97 -286.5t270 -112.5q150 0 268 96q50 -29 64 -82q-136 -121 -332 -121z" />
    <glyph glyph-name="Ccaron" unicode="&#x10c;" horiz-adv-x="1228" 
d="M682 1399l-223 194q12 39 43 62l227 -166l219 166q33 -23 41 -62l-223 -194q-44 -12 -84 0zM743 -29q-188 0 -332.5 88.5t-222 244t-77.5 353.5t82.5 356t230 246.5t332.5 88.5q230 0 395 -123q-14 -63 -64 -90q-75 53 -152.5 78.5t-178.5 25.5q-232 0 -379.5 -160.5
t-147.5 -421.5q0 -258 143.5 -417.5t370.5 -159.5q126 0 210.5 30t152.5 87q51 -27 59 -86q-167 -140 -422 -140z" />
    <glyph glyph-name="ccaron" unicode="&#x10d;" horiz-adv-x="991" 
d="M526 1094l-217 229q14 49 56 66l206 -195l207 190q44 -18 58 -61l-228 -229q-41 -9 -82 0zM586 -25q-212 0 -348 136t-136 370q0 113 38.5 209t104 161t154 101.5t187.5 36.5q195 0 317 -110q-15 -54 -65 -84q-112 90 -252 90q-115 0 -200 -57t-126 -147t-41 -200
q0 -174 97 -286.5t270 -112.5q150 0 268 96q50 -29 64 -82q-136 -121 -332 -121z" />
    <glyph glyph-name="Dcaron" unicode="&#x10e;" horiz-adv-x="1380" 
d="M664 1399q-44 -12 -84 0l-224 194q12 39 43 62l228 -166l219 166q33 -23 41 -62zM545 1333q171 0 309 -49t228.5 -137t139 -211t48.5 -270q0 -149 -50 -275t-141 -216.5t-225.5 -141.5t-296.5 -51q-205 0 -360 22v1303q175 26 348 26zM559 86q280 0 435 156.5t155 419.5
q0 257 -156.5 411t-447.5 154q-132 0 -236 -13v-1114q109 -14 250 -14z" />
    <glyph glyph-name="dcaron" unicode="&#x10f;" horiz-adv-x="1144" 
d="M1231 1440q12 -36 12 -86q0 -77 -27.5 -151.5t-68.5 -117.5q-29 3 -47 29q22 37 31.5 95.5t9.5 99.5q0 75 -21 129q18 12 60 12q31 0 51 -10zM862 1348q24 6 56 6q30 0 57 -6v-1287q-169 -86 -367 -86q-144 0 -257.5 56.5t-181 171t-67.5 272.5q0 119 41.5 217t112 161.5
t162 98.5t192.5 35q155 0 252 -53v414zM608 82q139 -3 254 47v686q-95 66 -250 66q-172 0 -283.5 -111.5t-111.5 -292.5q0 -184 109 -289.5t282 -105.5z" />
    <glyph glyph-name="Dcroat" unicode="&#x110;" horiz-adv-x="1380" 
d="M545 1333q171 0 309 -49t228.5 -137t139 -211t48.5 -270q0 -149 -50 -275t-141 -216.5t-225.5 -141.5t-296.5 -51q-205 0 -360 22v608h-154q-8 28 -8 47q0 22 8 50h154v598q175 26 348 26zM559 86q280 0 435 156.5t155 419.5q0 257 -156.5 411t-447.5 154
q-132 0 -236 -13v-505h240q8 -28 8 -47q0 -18 -8 -50h-240v-512q109 -14 250 -14z" />
    <glyph glyph-name="dcroat" unicode="&#x111;" horiz-adv-x="1136" 
d="M1149 1178q0 -21 -6 -45h-168v-1072q-169 -86 -367 -86q-144 0 -257.5 56.5t-181 171t-67.5 272.5q0 119 41.5 217t112 161.5t162 98.5t192.5 35q155 0 252 -53v199h-198q-7 25 -7 45q0 19 7 47h198v123q24 6 56 6q30 0 57 -6v-123h168q6 -21 6 -47zM608 82
q139 -3 254 47v686q-95 66 -250 66q-172 0 -283.5 -111.5t-111.5 -292.5q0 -184 109 -289.5t282 -105.5z" />
    <glyph glyph-name="Emacron" unicode="&#x112;" horiz-adv-x="1110" 
d="M877 1475h-531q-6 21 -6 49q0 3 6 45h531q6 -14 6 -45q0 -33 -6 -49zM1010 104q8 -21 8 -49q0 -34 -8 -55h-813v1315h788q8 -21 8 -55q0 -31 -8 -52h-676v-475h609q8 -24 8 -51q0 -29 -8 -53h-609v-525h701z" />
    <glyph glyph-name="emacron" unicode="&#x113;" horiz-adv-x="1071" 
d="M813 1165h-518q-6 14 -6 47q0 27 6 48h518q8 -21 8 -48q0 -26 -8 -47zM979 541q0 -27 -6 -80h-754q5 -173 100.5 -277t255.5 -104q75 0 139 19t95.5 38t69.5 49q47 -23 61 -77q-158 -134 -365 -134q-211 0 -342 134.5t-131 369.5q0 113 36.5 209.5t98.5 162t145.5 102
t176.5 36.5q182 0 300.5 -120t119.5 -328zM223 557h635q0 151 -82 240.5t-217 89.5q-139 0 -230.5 -93.5t-105.5 -236.5z" />
    <glyph glyph-name="Edotaccent" unicode="&#x116;" horiz-adv-x="1110" 
d="M612 1452q-37 0 -62.5 24.5t-25.5 61.5t25.5 62.5t62.5 25.5q35 0 60.5 -25.5t25.5 -62.5q0 -36 -25 -61t-61 -25zM1010 104q8 -21 8 -49q0 -34 -8 -55h-813v1315h788q8 -21 8 -55q0 -31 -8 -52h-676v-475h609q8 -24 8 -51q0 -29 -8 -53h-609v-525h701z" />
    <glyph glyph-name="edotaccent" unicode="&#x117;" horiz-adv-x="1071" 
d="M555 1157q-37 0 -64.5 26t-27.5 64q0 37 27 63.5t65 26.5q37 0 62.5 -26.5t25.5 -63.5q0 -38 -25.5 -64t-62.5 -26zM979 541q0 -27 -6 -80h-754q5 -173 100.5 -277t255.5 -104q75 0 139 19t95.5 38t69.5 49q47 -23 61 -77q-158 -134 -365 -134q-211 0 -342 134.5
t-131 369.5q0 113 36.5 209.5t98.5 162t145.5 102t176.5 36.5q182 0 300.5 -120t119.5 -328zM223 557h635q0 151 -82 240.5t-217 89.5q-139 0 -230.5 -93.5t-105.5 -236.5z" />
    <glyph glyph-name="Eogonek" unicode="&#x118;" horiz-adv-x="1110" 
d="M1061 -238q41 -25 41 -75q-70 -62 -170 -62q-77 0 -125.5 40t-48.5 110q0 64 40 123t107 102h-708v1315h788q8 -21 8 -55q0 -31 -8 -52h-676v-475h609q8 -24 8 -51q0 -29 -8 -53h-609v-525h701q8 -21 8 -49q0 -34 -8 -55q-64 -50 -103 -101t-39 -94q0 -41 24.5 -61
t59.5 -20q54 0 109 38z" />
    <glyph glyph-name="eogonek" unicode="&#x119;" horiz-adv-x="1071" 
d="M979 541q0 -27 -6 -80h-754q5 -173 100.5 -277t255.5 -104q75 0 139 19t95.5 38t69.5 49q47 -23 61 -77q-41 -32 -68 -50q-77 -60 -129.5 -130.5t-52.5 -127.5q0 -39 24 -58t58 -19q56 0 111 38q16 -11 28.5 -31t12.5 -44q-73 -62 -183 -62q-71 0 -116 39.5t-45 108.5
q0 107 110 213q-64 -11 -115 -11q-211 0 -342 134.5t-131 369.5q0 113 36.5 209.5t98.5 162t145.5 102t176.5 36.5q182 0 300.5 -120t119.5 -328zM223 557h635q0 151 -82 240.5t-217 89.5q-139 0 -230.5 -93.5t-105.5 -236.5z" />
    <glyph glyph-name="Ecaron" unicode="&#x11a;" horiz-adv-x="1110" 
d="M655 1399q-43 -12 -84 0l-223 194q12 39 43 62l227 -166l220 166q33 -23 41 -62zM1010 104q8 -21 8 -49q0 -34 -8 -55h-813v1315h788q8 -21 8 -55q0 -31 -8 -52h-676v-475h609q8 -24 8 -51q0 -29 -8 -53h-609v-525h701z" />
    <glyph glyph-name="ecaron" unicode="&#x11b;" horiz-adv-x="1071" 
d="M594 1094q-41 -9 -82 0l-217 229q15 49 55 66l207 -195l207 190q43 -17 57 -61zM979 541q0 -27 -6 -80h-754q5 -173 100.5 -277t255.5 -104q75 0 139 19t95.5 38t69.5 49q47 -23 61 -77q-158 -134 -365 -134q-211 0 -342 134.5t-131 369.5q0 113 36.5 209.5t98.5 162
t145.5 102t176.5 36.5q182 0 300.5 -120t119.5 -328zM223 557h635q0 151 -82 240.5t-217 89.5q-139 0 -230.5 -93.5t-105.5 -236.5z" />
    <glyph glyph-name="Gbreve" unicode="&#x11e;" horiz-adv-x="1335" 
d="M721 1413q-109 0 -183 63.5t-83 161.5q44 16 86 11q15 -67 65 -105.5t117 -38.5q69 0 121 39.5t61 104.5q41 5 82 -11q-6 -94 -81.5 -159.5t-184.5 -65.5zM770 649h432v-573q-195 -105 -444 -105q-284 0 -465.5 188.5t-181.5 495.5q0 154 51 285t139.5 219.5t208.5 138.5
t256 50q260 0 424 -121q-13 -66 -62 -94q-83 54 -165.5 80t-196.5 26q-152 0 -272.5 -69t-191.5 -203t-71 -312q0 -261 139 -418t390 -157q195 0 327 61v400h-317q-8 27 -8 53q0 31 8 55z" />
    <glyph glyph-name="gbreve" unicode="&#x11f;" horiz-adv-x="1130" 
d="M588 1096q-118 0 -188 70.5t-78 185.5q39 16 84 10q12 -85 59.5 -130.5t124.5 -45.5q75 0 125 46.5t57 129.5q49 3 82 -10q-5 -110 -77 -183t-189 -73zM606 989q108 0 202.5 -34t160.5 -91v-848q0 -181 -119.5 -296t-308.5 -115q-271 0 -416 168q19 54 76 75
q35 -41 73.5 -69.5t108 -50t158.5 -21.5q148 0 230.5 84.5t82.5 224.5v99q-122 -76 -258 -76q-139 0 -250.5 54.5t-178.5 162.5t-67 252t68.5 254.5t183 168.5t254.5 58zM604 141q136 0 250 84v580q-94 78 -248 78q-170 0 -278.5 -104.5t-108.5 -270.5q0 -172 106 -269.5
t279 -97.5z" />
    <glyph glyph-name="Gdotaccent" unicode="&#x120;" horiz-adv-x="1335" 
d="M723 1452q-37 0 -62.5 24.5t-25.5 61.5t25.5 62.5t62.5 25.5q35 0 60.5 -25.5t25.5 -62.5q0 -36 -25 -61t-61 -25zM770 649h432v-573q-195 -105 -444 -105q-284 0 -465.5 188.5t-181.5 495.5q0 154 51 285t139.5 219.5t208.5 138.5t256 50q260 0 424 -121
q-13 -66 -62 -94q-83 54 -165.5 80t-196.5 26q-152 0 -272.5 -69t-191.5 -203t-71 -312q0 -261 139 -418t390 -157q195 0 327 61v400h-317q-8 27 -8 53q0 31 8 55z" />
    <glyph glyph-name="gdotaccent" unicode="&#x121;" horiz-adv-x="1130" 
d="M588 1157q-37 0 -64.5 26t-27.5 64q0 37 27 63.5t65 26.5q37 0 62.5 -26.5t25.5 -63.5q0 -38 -25.5 -64t-62.5 -26zM606 989q108 0 202.5 -34t160.5 -91v-848q0 -181 -119.5 -296t-308.5 -115q-271 0 -416 168q19 54 76 75q35 -41 73.5 -69.5t108 -50t158.5 -21.5
q148 0 230.5 84.5t82.5 224.5v99q-122 -76 -258 -76q-139 0 -250.5 54.5t-178.5 162.5t-67 252t68.5 254.5t183 168.5t254.5 58zM604 141q136 0 250 84v580q-94 78 -248 78q-170 0 -278.5 -104.5t-108.5 -270.5q0 -172 106 -269.5t279 -97.5z" />
    <glyph glyph-name="Gcommaaccent" unicode="&#x122;" horiz-adv-x="1335" 
d="M770 649h432v-573q-195 -105 -444 -105q-284 0 -465.5 188.5t-181.5 495.5q0 154 51 285t139.5 219.5t208.5 138.5t256 50q260 0 424 -121q-13 -66 -62 -94q-83 54 -165.5 80t-196.5 26q-152 0 -272.5 -69t-191.5 -203t-71 -312q0 -261 139 -418t390 -157q195 0 327 61
v400h-317q-8 27 -8 53q0 31 8 55zM750 -80q34 0 53 -8q10 -38 10 -90q0 -75 -36 -142.5t-95 -107.5q-26 7 -37 39q64 64 64 182q0 51 -19 117q17 10 60 10z" />
    <glyph glyph-name="gcommaaccent" unicode="&#x123;" horiz-adv-x="1130" 
d="M580 1040q-33 0 -54 9q-10 38 -10 90q0 75 36 142.5t95 107.5q26 -7 37 -39q-63 -63 -63 -183q0 -58 20 -116q-22 -11 -61 -11zM606 989q108 0 202.5 -34t160.5 -91v-848q0 -181 -119.5 -296t-308.5 -115q-271 0 -416 168q19 54 76 75q35 -41 73.5 -69.5t108 -50
t158.5 -21.5q148 0 230.5 84.5t82.5 224.5v99q-122 -76 -258 -76q-139 0 -250.5 54.5t-178.5 162.5t-67 252t68.5 254.5t183 168.5t254.5 58zM604 141q136 0 250 84v580q-94 78 -248 78q-170 0 -278.5 -104.5t-108.5 -270.5q0 -172 106 -269.5t279 -97.5z" />
    <glyph glyph-name="Hbar" unicode="&#x126;" horiz-adv-x="1409" 
d="M1360 971q0 -13 -8 -45h-140v-926q-36 -8 -53 -8q-21 0 -61 8v623h-787v-623q-40 -8 -59 -8q-15 0 -55 8v926h-131q-9 32 -9 45t9 45h131v299q24 8 55 8q35 0 59 -8v-299h787v299q40 8 59 8t55 -8v-299h140q8 -28 8 -45zM1098 727v199h-787v-199h787z" />
    <glyph glyph-name="hbar" unicode="&#x127;" horiz-adv-x="1155" 
d="M598 989q101 0 179.5 -31t126 -85.5t71.5 -123.5t24 -149v-600q-27 -6 -57 -6t-57 6v565q0 53 -9 97.5t-31 86t-57 70t-89 45.5t-124 17q-146 0 -292 -97v-784q-27 -6 -58 -6q-30 0 -57 6v1133h-135q-6 21 -6 45q0 23 6 47h135v121q27 6 57 6q31 0 58 -6v-121h229
q6 -21 6 -47q0 -21 -6 -45h-229v-238q149 94 315 94z" />
    <glyph glyph-name="Itilde" unicode="&#x128;" horiz-adv-x="507" 
d="M356 1438q-43 0 -108.5 39t-91.5 39q-63 0 -82 -76q-56 0 -82 33q17 67 60.5 105t99.5 38q39 0 110.5 -40t91.5 -40q29 0 51 20.5t31 57.5q60 0 80 -33q-17 -67 -61 -105t-99 -38zM254 -8q-17 0 -57 8v1315q27 8 57 8q33 0 57 -8v-1315q-36 -8 -57 -8z" />
    <glyph glyph-name="itilde" unicode="&#x129;" horiz-adv-x="456" 
d="M315 1163q-41 0 -102.5 34t-85.5 34q-30 0 -49.5 -20t-36.5 -58q-23 0 -45.5 11t-34.5 28q55 135 158 135q38 0 99 -33.5t89 -33.5q57 0 88 73q23 0 45.5 -11t34.5 -28q-55 -131 -160 -131zM229 -6q-30 0 -57 6v963q24 8 57 8q35 0 56 -8v-963q-24 -6 -56 -6z" />
    <glyph glyph-name="Imacron" unicode="&#x12a;" horiz-adv-x="507" 
d="M61 1475q-6 21 -6 49q0 3 6 45h383q7 -16 7 -45q0 -30 -7 -49h-383zM254 -8q-17 0 -57 8v1315q27 8 57 8q33 0 57 -8v-1315q-36 -8 -57 -8z" />
    <glyph glyph-name="imacron" unicode="&#x12b;" horiz-adv-x="456" 
d="M47 1167q-4 14 -4 47q0 34 4 48h363q6 -24 6 -48q0 -23 -6 -47h-363zM229 -6q-30 0 -57 6v963q24 8 57 8q35 0 56 -8v-963q-24 -6 -56 -6z" />
    <glyph glyph-name="Iogonek" unicode="&#x12e;" horiz-adv-x="507" 
d="M373 -238q41 -25 41 -75q-70 -62 -183 -62q-71 0 -116 39.5t-45 108.5q0 113 127 227v1315q27 8 57 8q33 0 57 -8v-1315q-58 -43 -94.5 -95t-36.5 -100q0 -42 24.5 -61.5t59.5 -19.5q54 0 109 38z" />
    <glyph glyph-name="iogonek" unicode="&#x12f;" horiz-adv-x="456" 
d="M223 1159q-38 0 -65 26t-27 64q0 37 27 63.5t65 26.5q35 0 61.5 -26.5t26.5 -63.5q0 -38 -26 -64t-62 -26zM348 -233q41 -29 41 -76q-72 -64 -182 -64q-73 0 -118.5 40.5t-45.5 113.5q0 107 125 219h4v963q24 8 57 8q35 0 56 -8v-963q-4 0 -6 -2q-62 -54 -91.5 -99
t-29.5 -94q0 -40 23.5 -58.5t58.5 -18.5q58 0 108 39z" />
    <glyph glyph-name="Idotaccent" unicode="&#x130;" horiz-adv-x="507" 
d="M256 1452q-37 0 -62.5 24.5t-25.5 61.5t25.5 62.5t62.5 25.5q35 0 60.5 -25.5t25.5 -62.5q0 -36 -25 -61t-61 -25zM254 -8q-17 0 -57 8v1315q27 8 57 8q33 0 57 -8v-1315q-36 -8 -57 -8z" />
    <glyph glyph-name="dotlessi" unicode="&#x131;" horiz-adv-x="456" 
d="M229 -6q-30 0 -57 6v963q24 8 57 8q35 0 56 -8v-963q-24 -6 -56 -6z" />
    <glyph glyph-name="IJ" unicode="&#x132;" horiz-adv-x="1036" 
d="M240 287q-33 0 -60 8v1022q27 8 60 8t57 -8v-1022q-24 -8 -57 -8zM518 -33q-86 0 -151 33.5t-97 71.5q20 52 74 82q43 -42 80 -62t94 -20q99 0 159 57.5t60 185.5v1000q21 8 56 8q33 0 57 -8v-998q0 -91 -27 -160t-73.5 -109.5t-105 -60.5t-126.5 -20z" />
    <glyph glyph-name="ij" unicode="&#x133;" horiz-adv-x="919" 
d="M229 1159q-37 0 -64.5 26t-27.5 64q0 37 27 63.5t65 26.5q37 0 62.5 -26.5t25.5 -63.5q0 -38 -25.5 -64t-62.5 -26zM690 1155q-37 0 -63.5 26t-26.5 64q0 37 26.5 62.5t63.5 25.5t62.5 -25.5t25.5 -62.5q0 -38 -25.5 -64t-62.5 -26zM229 -6q-30 0 -57 6v963q24 8 57 8
q35 0 56 -8v-963q-24 -6 -56 -6zM457 -401q-82 0 -141.5 25.5t-92.5 58.5q4 23 22 45t42 34q45 -32 77.5 -46.5t79.5 -14.5q82 0 136.5 56t54.5 175v1026q31 7 55 7q30 0 58 -7v-1026q0 -84 -26.5 -150t-69.5 -104.5t-93 -58.5t-102 -20z" />
    <glyph glyph-name="Kcommaaccent" unicode="&#x136;" horiz-adv-x="1183" 
d="M573 709l592 -703q-45 -10 -98 -10l-47 2l-535 641q-55 -39 -174 -119v-520q-36 -8 -59 -8q-19 0 -55 8v1315q36 8 55 8q23 0 59 -8v-668q222 144 370 291.5t304 378.5q16 4 55 4q45 0 72 -8q-121 -187 -251 -332.5t-288 -271.5zM645 -80q34 0 53 -8q11 -42 11 -90
q0 -75 -36 -142.5t-95 -107.5q-26 7 -37 39q63 63 63 182q0 54 -18 117q17 10 59 10z" />
    <glyph glyph-name="kcommaaccent" unicode="&#x137;" horiz-adv-x="968" 
d="M496 508l456 -504q-38 -10 -80 -10q-35 0 -55 4l-411 448q-20 -14 -125 -73v-373q-24 -6 -56 -6q-30 0 -57 6v1346q27 6 57 6q32 0 56 -6v-854q148 78 280.5 202t206.5 264q31 7 59 7q33 0 62 -11q-130 -246 -393 -446zM489 -80q35 0 54 -8q10 -38 10 -90
q0 -75 -36 -142.5t-95 -107.5q-26 7 -37 39q64 64 64 182q0 51 -19 117q17 10 59 10z" />
    <glyph glyph-name="kgreenlandic" unicode="&#x138;" horiz-adv-x="974" 
d="M487 510l476 -506q-42 -10 -89 -10q-39 0 -57 4l-424 446q-55 -35 -117 -67v-377q-24 -6 -55 -6q-28 0 -55 6v958q32 7 55 7q27 0 55 -7v-460q144 72 282.5 199t211.5 261q21 7 57 7q33 0 66 -11q-142 -252 -406 -444z" />
    <glyph glyph-name="Lacute" unicode="&#x139;" horiz-adv-x="978" 
d="M453 1663q31 -18 44 -42t15 -62l-367 -168q-23 20 -26 51zM938 102q8 -24 8 -49q0 -28 -8 -55h-741v1317q40 8 55 8q19 0 59 -8v-1213h627z" />
    <glyph glyph-name="lacute" unicode="&#x13a;" horiz-adv-x="456" 
d="M76 1391q-24 21 -27 51l334 221q31 -18 44 -42t15 -62zM227 -6q-28 0 -55 6v1348q27 6 55 6q34 0 58 -6v-1348q-24 -6 -58 -6z" />
    <glyph glyph-name="Lcommaaccent" unicode="&#x13b;" horiz-adv-x="978" 
d="M938 102q8 -24 8 -49q0 -28 -8 -55h-741v1317q40 8 55 8q19 0 59 -8v-1213h627zM592 -80q34 0 53 -8q10 -38 10 -90q0 -75 -36 -142.5t-95 -107.5q-26 7 -37 39q64 64 64 182q0 51 -19 117q17 10 60 10z" />
    <glyph glyph-name="lcommaaccent" unicode="&#x13c;" horiz-adv-x="456" 
d="M227 -6q-28 0 -55 6v1348q27 6 55 6q34 0 58 -6v-1348q-24 -6 -58 -6zM164 -428q-26 7 -37 39q63 63 63 182q0 54 -18 117q17 10 59 10q35 0 54 -8q10 -38 10 -90q0 -75 -36 -142.5t-95 -107.5z" />
    <glyph glyph-name="Lcaron" unicode="&#x13d;" horiz-adv-x="978" 
d="M692 1085q-31 6 -45 29q20 39 29.5 98t9.5 99q0 77 -18 127q17 14 59 14q31 0 49 -12q12 -36 12 -86q0 -77 -27.5 -151t-68.5 -118zM938 102q8 -24 8 -49q0 -28 -8 -55h-741v1317q40 8 55 8q19 0 59 -8v-1213h627z" />
    <glyph glyph-name="lcaron" unicode="&#x13e;" horiz-adv-x="462" 
d="M459 1085q-32 6 -47 29q20 39 29.5 98t9.5 99q0 74 -19 127q21 14 60 14q30 0 51 -12q10 -30 10 -86q0 -78 -26.5 -151.5t-67.5 -117.5zM227 -6q-28 0 -55 6v1348q27 6 55 6q34 0 58 -6v-1348q-24 -6 -58 -6z" />
    <glyph glyph-name="Ldot" unicode="&#x13f;" horiz-adv-x="980" 
d="M938 102q8 -24 8 -49q0 -28 -8 -55h-741v1317q40 8 55 8q19 0 59 -8v-1213h627zM729 610q-38 0 -65 27t-27 65t27 65.5t65 27.5t66 -27.5t28 -65.5t-28 -65t-66 -27z" />
    <glyph glyph-name="ldot" unicode="&#x140;" horiz-adv-x="532" 
d="M227 -6q-28 0 -55 6v1348q27 6 55 6q34 0 58 -6v-1348q-24 -6 -58 -6zM492 578q-39 0 -67 27t-28 65t28 65t67 27q38 0 66 -27t28 -65t-28 -65t-66 -27z" />
    <glyph glyph-name="Lslash" unicode="&#x141;" horiz-adv-x="978" 
d="M938 102q8 -24 8 -49q0 -28 -8 -55h-741v577l-127 -63q-14 10 -27 35.5t-16 48.5l170 86v633q40 8 55 8q19 0 59 -8v-574l178 90q14 -12 28 -39t15 -47l-221 -110v-533h627z" />
    <glyph glyph-name="lslash" unicode="&#x142;" horiz-adv-x="456" 
d="M451 731l-166 -84v-647q-24 -6 -58 -6q-28 0 -55 6v590l-127 -66q-36 29 -39 78l166 86v660q27 6 55 6q34 0 58 -6v-603l127 66q32 -29 39 -80z" />
    <glyph glyph-name="Nacute" unicode="&#x143;" horiz-adv-x="1396" 
d="M543 1391q-24 21 -27 51l334 221q31 -18 44 -42t15 -62zM1145 1325q19 0 55 -8v-1309q-44 -12 -100 -12l-766 1081l-29 53l2 -61v-1069q-24 -8 -55 -8t-55 8v1305q52 27 104 16l766 -1083l27 -45l-2 65v1059q36 8 53 8z" />
    <glyph glyph-name="nacute" unicode="&#x144;" horiz-adv-x="1148" 
d="M420 1077q-27 16 -35 47l293 271q49 -25 74 -95zM584 989q105 0 184.5 -30t128 -84t72.5 -123t24 -152v-600q-27 -6 -57 -6t-57 6v567q0 316 -310 316q-87 0 -165.5 -25.5t-129.5 -58.5v-799q-27 -6 -57 -6t-57 6v850q73 58 184.5 98.5t239.5 40.5z" />
    <glyph glyph-name="Ncommaaccent" unicode="&#x145;" horiz-adv-x="1396" 
d="M1145 1325q19 0 55 -8v-1309q-44 -12 -100 -12l-766 1081l-29 53l2 -61v-1069q-24 -8 -55 -8t-55 8v1305q52 27 104 16l766 -1083l27 -45l-2 65v1059q36 8 53 8zM709 -80q34 0 53 -8q10 -38 10 -90q0 -75 -36 -142.5t-95 -107.5q-26 7 -37 39q64 64 64 182q0 51 -19 117
q17 10 60 10z" />
    <glyph glyph-name="ncommaaccent" unicode="&#x146;" horiz-adv-x="1148" 
d="M584 989q105 0 184.5 -30t128 -84t72.5 -123t24 -152v-600q-27 -6 -57 -6t-57 6v567q0 316 -310 316q-87 0 -165.5 -25.5t-129.5 -58.5v-799q-27 -6 -57 -6t-57 6v850q73 58 184.5 98.5t239.5 40.5zM575 -80q35 0 54 -8q10 -38 10 -90q0 -75 -36 -142.5t-95 -107.5
q-26 7 -37 39q64 64 64 182q0 51 -19 117q17 10 59 10z" />
    <glyph glyph-name="Ncaron" unicode="&#x147;" horiz-adv-x="1396" 
d="M745 1399q-43 -12 -83 0l-224 194q12 39 43 62l228 -166l219 166q33 -23 41 -62zM1145 1325q19 0 55 -8v-1309q-44 -12 -100 -12l-766 1081l-29 53l2 -61v-1069q-24 -8 -55 -8t-55 8v1305q52 27 104 16l766 -1083l27 -45l-2 65v1059q36 8 53 8z" />
    <glyph glyph-name="ncaron" unicode="&#x148;" horiz-adv-x="1148" 
d="M606 1094q-41 -9 -82 0l-217 229q15 49 55 66l207 -195l207 190q44 -18 58 -61zM584 989q105 0 184.5 -30t128 -84t72.5 -123t24 -152v-600q-27 -6 -57 -6t-57 6v567q0 316 -310 316q-87 0 -165.5 -25.5t-129.5 -58.5v-799q-27 -6 -57 -6t-57 6v850q73 58 184.5 98.5
t239.5 40.5z" />
    <glyph glyph-name="napostrophe" unicode="&#x149;" horiz-adv-x="1193" 
d="M244 1370q14 -33 14 -98q0 -96 -43 -176t-96 -127q-13 2 -26.5 12.5t-14.5 24.5q65 69 65 223q0 85 -22 139q25 10 65 10q42 0 58 -8zM584 989q105 0 184.5 -30t128 -84t72.5 -123t24 -152v-600q-27 -6 -57 -6t-57 6v567q0 316 -310 316q-87 0 -165.5 -25.5t-129.5 -58.5
v-799q-27 -6 -57 -6t-57 6v850q73 58 184.5 98.5t239.5 40.5z" />
    <glyph glyph-name="Eng" unicode="&#x14a;" horiz-adv-x="1396" 
d="M1145 1325q19 0 55 -8v-1368q0 -91 -27.5 -160.5t-75 -109.5t-105.5 -60t-124 -20q-87 0 -151 33t-96 71q18 57 71 76q26 -24 45.5 -39t55 -28t75.5 -13q101 0 161.5 58.5t60.5 189.5v63l-756 1067l-29 53l2 -61v-1069q-24 -8 -55 -8t-55 8v1305q52 27 104 16l766 -1083
l27 -45l-2 65v1059q36 8 53 8z" />
    <glyph glyph-name="eng" unicode="&#x14b;" horiz-adv-x="1148" 
d="M584 989q203 0 305 -108.5t102 -280.5v-668q0 -84 -26.5 -150t-70 -104.5t-96 -58.5t-108.5 -20q-137 0 -221 84q19 56 63 79q37 -34 72 -49.5t86 -15.5q81 0 135 57t54 178v635q0 149 -76.5 231.5t-237.5 82.5q-83 0 -161 -27t-132 -63v-791q-24 -6 -55 -6q-30 0 -57 6
v844q74 62 184 103.5t240 41.5z" />
    <glyph glyph-name="Omacron" unicode="&#x14c;" horiz-adv-x="1495" 
d="M481 1475q-6 21 -6 49q0 3 6 45h531q6 -14 6 -45q0 -33 -6 -49h-531zM748 -27q-187 0 -333 89.5t-225 245.5t-79 351q0 193 79 349.5t225 248t333 91.5t332.5 -89t224.5 -246t79 -354q0 -143 -46.5 -269t-128.5 -218t-201.5 -145.5t-259.5 -53.5zM748 80q235 0 376.5 162
t141.5 417q0 259 -141 420.5t-377 161.5q-237 0 -378 -161.5t-141 -420.5q0 -256 141.5 -417.5t377.5 -161.5z" />
    <glyph glyph-name="omacron" unicode="&#x14d;" horiz-adv-x="1173" 
d="M328 1165q-6 14 -6 47q0 27 6 48h518q8 -21 8 -48q0 -26 -8 -47h-518zM584 -23q-212 0 -348 143t-136 363q0 217 140.5 361.5t349.5 144.5q211 0 347 -144t136 -362q0 -217 -140 -361.5t-349 -144.5zM588 84q168 0 269 112t101 287q0 172 -101.5 286t-268.5 114
t-269 -114t-102 -286q0 -174 101.5 -286.5t269.5 -112.5z" />
    <glyph glyph-name="Ohungarumlaut" unicode="&#x150;" horiz-adv-x="1495" 
d="M516 1370q-19 9 -26.5 17.5t-12.5 23.5l213 277q63 -15 84 -80zM834 1370q-34 16 -41 41l215 277q63 -15 84 -80zM748 -27q-187 0 -333 89.5t-225 245.5t-79 351q0 193 79 349.5t225 248t333 91.5t332.5 -89t224.5 -246t79 -354q0 -143 -46.5 -269t-128.5 -218
t-201.5 -145.5t-259.5 -53.5zM748 80q235 0 376.5 162t141.5 417q0 259 -141 420.5t-377 161.5q-237 0 -378 -161.5t-141 -420.5q0 -256 141.5 -417.5t377.5 -161.5z" />
    <glyph glyph-name="ohungarumlaut" unicode="&#x151;" horiz-adv-x="1173" 
d="M387 1065q-34 10 -47 33l176 311q34 -6 53.5 -19.5t42.5 -43.5zM686 1065q-34 10 -47 33l174 311q34 -6 55 -19.5t43 -43.5zM584 -23q-212 0 -348 143t-136 363q0 217 140.5 361.5t349.5 144.5q211 0 347 -144t136 -362q0 -217 -140 -361.5t-349 -144.5zM588 84
q168 0 269 112t101 287q0 172 -101.5 286t-268.5 114t-269 -114t-102 -286q0 -174 101.5 -286.5t269.5 -112.5z" />
    <glyph glyph-name="OE" unicode="&#x152;" horiz-adv-x="1824" 
d="M1733 55q0 -28 -9 -55h-759q-101 -16 -207 -16q-294 0 -470.5 186t-176.5 487q0 190 80.5 342t229 240t339.5 88q110 0 201 -12h739q8 -24 8 -55q0 -30 -8 -54h-625v-471h557q8 -24 8 -53q0 -31 -8 -55h-557v-518h649q9 -27 9 -54zM236 657q0 -164 60.5 -291t180 -200.5
t281.5 -73.5q110 0 203 19v1085q-89 21 -201 21q-240 0 -382 -156.5t-142 -403.5z" />
    <glyph glyph-name="oe" unicode="&#x153;" horiz-adv-x="1863" 
d="M1767 539q0 -45 -2 -78h-725q3 -178 94.5 -280.5t249.5 -102.5q169 0 291 108q44 -24 60 -84q-152 -129 -351 -129q-141 0 -247 64t-160 184q-61 -114 -168 -180t-236 -66q-206 0 -339.5 142.5t-133.5 363.5q0 214 137 361t336 147q134 0 242.5 -68.5t167.5 -185.5
q55 118 156 185t221 67q179 0 293 -119t114 -329zM1042 555h611q0 150 -81.5 240t-213.5 90q-130 0 -215 -96t-101 -234zM573 82q158 0 256.5 112t98.5 287q0 173 -98.5 287.5t-256.5 114.5q-159 0 -258.5 -114.5t-99.5 -287.5q0 -175 99 -287t259 -112z" />
    <glyph glyph-name="Racute" unicode="&#x154;" horiz-adv-x="1169" 
d="M403 1391q-23 20 -26 51l334 221q31 -18 44 -42t15 -62zM739 555l346 -549q-45 -10 -86 -10q-31 0 -43 2l-335 534q-20 -2 -64 -2q-132 0 -248 11v-541q-24 -8 -57 -8q-31 0 -55 8v1294q174 43 370 43q230 0 350.5 -103t122.5 -282q-1 -151 -82 -253.5t-219 -143.5z
M309 647q82 -12 248 -12q185 0 276 84.5t93 228.5q-2 133 -93 210t-268 77q-121 0 -256 -23v-565z" />
    <glyph glyph-name="racute" unicode="&#x155;" horiz-adv-x="761" 
d="M313 1077q-16 10 -22.5 19.5t-11.5 27.5l292 271q49 -25 74 -95zM735 958q3 -58 -28 -100q-84 23 -181 23q-150 0 -252 -66v-815q-24 -6 -57 -6q-30 0 -57 6v866q65 52 164 87.5t213 35.5q113 0 198 -31z" />
    <glyph glyph-name="Rcommaaccent" unicode="&#x156;" horiz-adv-x="1169" 
d="M739 555l346 -549q-45 -10 -86 -10q-31 0 -43 2l-335 534q-20 -2 -64 -2q-132 0 -248 11v-541q-24 -8 -57 -8q-31 0 -55 8v1294q174 43 370 43q230 0 350.5 -103t122.5 -282q-1 -151 -82 -253.5t-219 -143.5zM309 647q82 -12 248 -12q185 0 276 84.5t93 228.5
q-2 133 -93 210t-268 77q-121 0 -256 -23v-565zM586 -80q34 0 53 -8q10 -38 10 -90q0 -75 -36 -142.5t-95 -107.5q-26 7 -37 39q64 64 64 182q0 51 -19 117q17 10 60 10z" />
    <glyph glyph-name="rcommaaccent" unicode="&#x157;" horiz-adv-x="761" 
d="M735 958q3 -58 -28 -100q-84 23 -181 23q-150 0 -252 -66v-815q-24 -6 -57 -6q-30 0 -57 6v866q65 52 164 87.5t213 35.5q113 0 198 -31zM223 -80q34 0 53 -8q11 -42 11 -90q0 -75 -36 -142.5t-95 -107.5q-26 7 -37 39q63 63 63 182q0 54 -18 117q17 10 59 10z" />
    <glyph glyph-name="Rcaron" unicode="&#x158;" horiz-adv-x="1169" 
d="M604 1399q-44 -12 -84 0l-223 194q12 39 43 62l227 -166l219 166q33 -23 41 -62zM739 555l346 -549q-45 -10 -86 -10q-31 0 -43 2l-335 534q-20 -2 -64 -2q-132 0 -248 11v-541q-24 -8 -57 -8q-31 0 -55 8v1294q174 43 370 43q230 0 350.5 -103t122.5 -282
q-1 -151 -82 -253.5t-219 -143.5zM309 647q82 -12 248 -12q185 0 276 84.5t93 228.5q-2 133 -93 210t-268 77q-121 0 -256 -23v-565z" />
    <glyph glyph-name="rcaron" unicode="&#x159;" horiz-adv-x="761" 
d="M500 1094q-41 -9 -82 0l-217 229q15 49 55 66l207 -195l207 190q43 -17 57 -61zM735 958q3 -58 -28 -100q-84 23 -181 23q-150 0 -252 -66v-815q-24 -6 -57 -6q-30 0 -57 6v866q65 52 164 87.5t213 35.5q113 0 198 -31z" />
    <glyph glyph-name="Sacute" unicode="&#x15a;" horiz-adv-x="1071" 
d="M379 1391q-24 21 -27 51l334 221q31 -18 44 -42t15 -62zM520 -31q-272 0 -434 166q17 57 72 84q140 -143 362 -143q161 0 247.5 73.5t86.5 198.5q0 108 -75 173t-259 110q-67 16 -118 33t-105 46.5t-88.5 67t-57 94t-22.5 127.5q0 150 111.5 247t296.5 97q252 0 405 -131
q-3 -26 -21 -52.5t-40 -37.5q-72 55 -153 85t-191 30q-136 0 -215.5 -64.5t-79.5 -166.5q0 -104 72.5 -160.5t232.5 -95.5q103 -26 176.5 -57.5t131 -78t86 -112t28.5 -152.5q0 -175 -121 -278t-328 -103z" />
    <glyph glyph-name="sacute" unicode="&#x15b;" horiz-adv-x="921" 
d="M317 1077q-16 10 -22.5 19.5t-11.5 27.5l292 271q49 -25 74 -95zM444 -23q-123 0 -213.5 35.5t-142.5 81.5q19 58 66 84q119 -100 290 -100q138 0 205.5 50t67.5 132q0 78 -59 120t-212 66q-160 24 -246.5 85t-86.5 184q0 122 99.5 198t264.5 76q106 0 191.5 -26.5
t132.5 -61.5q-9 -51 -49 -88q-124 74 -285 74q-117 0 -179.5 -42.5t-62.5 -117.5q0 -73 55.5 -110.5t186.5 -59.5q89 -15 151.5 -35t112 -52.5t74 -81.5t24.5 -116q0 -136 -103 -215.5t-282 -79.5z" />
    <glyph glyph-name="Scedilla" unicode="&#x15e;" horiz-adv-x="1071" 
d="M969 350q0 -164 -106.5 -265.5t-291.5 -113.5l-18 -51q73 -14 114.5 -46t41.5 -95q0 -46 -21 -80t-56 -52t-71 -26t-74 -8q-87 0 -129 22q6 45 31 74q41 -18 96 -18q53 0 87 20.5t34 59.5q0 45 -40 65t-120 25l43 108q-251 10 -403 166q17 57 72 84q140 -143 362 -143
q161 0 247.5 73.5t86.5 198.5q0 108 -75 173t-259 110q-67 16 -118 33t-105 46.5t-88.5 67t-57 94t-22.5 127.5q0 150 111.5 247t296.5 97q252 0 405 -131q-3 -26 -21 -52.5t-40 -37.5q-72 55 -153 85t-191 30q-136 0 -215.5 -64.5t-79.5 -166.5q0 -104 72.5 -160.5
t232.5 -95.5q103 -26 176.5 -57.5t131 -78t86 -112t28.5 -152.5z" />
    <glyph glyph-name="scedilla" unicode="&#x15f;" horiz-adv-x="921" 
d="M829 272q0 -123 -85.5 -201t-237.5 -91l-23 -60q73 -14 114.5 -46t41.5 -95q0 -46 -21 -80t-55.5 -52t-70.5 -26t-74 -8q-87 0 -129 22q6 47 30 74q41 -18 97 -18q53 0 87 20.5t34 59.5q0 45 -40 65t-120 25l45 116q-115 4 -199.5 38.5t-134.5 78.5q19 58 66 84
q119 -100 290 -100q138 0 205.5 50t67.5 132q0 78 -59 120t-212 66q-160 24 -246.5 85t-86.5 184q0 122 99.5 198t264.5 76q106 0 191.5 -26.5t132.5 -61.5q-9 -51 -49 -88q-124 74 -285 74q-117 0 -179.5 -42.5t-62.5 -117.5q0 -73 55.5 -110.5t186.5 -59.5
q89 -15 151.5 -35t112 -52.5t74 -81.5t24.5 -116z" />
    <glyph glyph-name="Scaron" unicode="&#x160;" horiz-adv-x="1071" 
d="M496 1399l-224 194q12 39 43 62l228 -166l219 166q33 -23 41 -62l-223 -194q-44 -12 -84 0zM520 -31q-272 0 -434 166q17 57 72 84q140 -143 362 -143q161 0 247.5 73.5t86.5 198.5q0 108 -75 173t-259 110q-67 16 -118 33t-105 46.5t-88.5 67t-57 94t-22.5 127.5
q0 150 111.5 247t296.5 97q252 0 405 -131q-3 -26 -21 -52.5t-40 -37.5q-72 55 -153 85t-191 30q-136 0 -215.5 -64.5t-79.5 -166.5q0 -104 72.5 -160.5t232.5 -95.5q103 -26 176.5 -57.5t131 -78t86 -112t28.5 -152.5q0 -175 -121 -278t-328 -103z" />
    <glyph glyph-name="scaron" unicode="&#x161;" horiz-adv-x="921" 
d="M422 1094l-217 229q15 49 55 66l207 -195l207 190q43 -17 57 -61l-227 -229q-41 -9 -82 0zM444 -23q-123 0 -213.5 35.5t-142.5 81.5q19 58 66 84q119 -100 290 -100q138 0 205.5 50t67.5 132q0 78 -59 120t-212 66q-160 24 -246.5 85t-86.5 184q0 122 99.5 198t264.5 76
q106 0 191.5 -26.5t132.5 -61.5q-9 -51 -49 -88q-124 74 -285 74q-117 0 -179.5 -42.5t-62.5 -117.5q0 -73 55.5 -110.5t186.5 -59.5q89 -15 151.5 -35t112 -52.5t74 -81.5t24.5 -116q0 -136 -103 -215.5t-282 -79.5z" />
    <glyph glyph-name="uni0162" unicode="&#x162;" horiz-adv-x="1093" 
d="M602 -2l-16 -4l-29 -74q73 -14 114.5 -46t41.5 -95q0 -46 -21 -80t-55.5 -52t-70.5 -26t-74 -8q-88 0 -130 22q6 45 31 74q41 -18 96 -18q53 0 87 20.5t34 59.5q0 45 -39.5 65t-119.5 25l53 135q-3 0 -8 1t-7 1v1212h-448q-8 24 -8 52q0 29 8 53h1010q8 -24 8 -53
q0 -28 -8 -52h-449v-1212z" />
    <glyph glyph-name="uni0163" unicode="&#x163;" horiz-adv-x="784" 
d="M500 -80q73 -13 114 -45.5t41 -95.5q0 -46 -21 -80t-55.5 -52t-70.5 -26t-74 -8q-87 0 -129 22q6 45 31 74q40 -18 96 -18q53 0 87 20.5t34 59.5q0 45 -40 65t-120 25l49 125q-103 20 -164 94t-61 207v577h-168q-6 24 -6 47q0 24 6 45h168v263q24 6 55 6q32 0 56 -6v-263
h387q6 -24 6 -45q0 -23 -6 -47h-387v-549q0 -237 200 -237q93 0 193 69q41 -29 51 -81q-105 -89 -250 -89z" />
    <glyph glyph-name="Tcaron" unicode="&#x164;" horiz-adv-x="1093" 
d="M588 1399q-44 -12 -84 0l-223 194q12 39 43 62l227 -166l219 166q33 -23 41 -62zM1059 1262q0 -28 -8 -52h-449v-1212q-27 -6 -57 -6q-29 0 -56 6v1212h-448q-8 24 -8 52q0 29 8 53h1010q8 -24 8 -53z" />
    <glyph glyph-name="tcaron" unicode="&#x165;" horiz-adv-x="784" 
d="M569 1085q-31 6 -45 29q20 39 29.5 98t9.5 99q0 77 -18 127q17 14 59 14q31 0 49 -12q13 -39 13 -86q0 -77 -28 -150.5t-69 -118.5zM721 147q41 -29 51 -81q-105 -89 -252 -89q-64 0 -117 17.5t-95.5 53.5t-66.5 97t-24 142v577h-168q-6 24 -6 47q0 24 6 45h168v263
q24 6 55 6q32 0 56 -6v-263h387q6 -24 6 -45q0 -23 -6 -47h-387v-549q0 -237 200 -237q93 0 193 69z" />
    <glyph glyph-name="Tbar" unicode="&#x166;" horiz-adv-x="1093" 
d="M1051 1210h-449v-505h201q8 -28 8 -48q0 -17 -8 -49h-201v-610q-27 -6 -57 -6q-29 0 -56 6v610h-202q-8 19 -8 47q0 31 8 50h202v505h-448q-8 24 -8 52q0 29 8 53h1010q8 -24 8 -53q0 -28 -8 -52z" />
    <glyph glyph-name="tbar" unicode="&#x167;" horiz-adv-x="784" 
d="M721 147q41 -29 51 -81q-105 -89 -252 -89q-64 0 -117 17.5t-95.5 53.5t-66.5 97t-24 142v229h-133q-8 28 -8 45q0 15 8 47h133v256h-168q-6 24 -6 47q0 24 6 45h168v263q24 6 55 6q32 0 56 -6v-263h387q6 -24 6 -45q0 -23 -6 -47h-387v-256h245q7 -25 7 -47
q0 -17 -7 -45h-245v-201q0 -237 200 -237q93 0 193 69z" />
    <glyph glyph-name="Utilde" unicode="&#x168;" horiz-adv-x="1376" 
d="M449 1427q-24 0 -49.5 9.5t-37.5 21.5q23 75 76.5 116.5t128.5 41.5q52 0 140 -43t122 -43q95 0 121 90q25 0 50.5 -9t35.5 -22q-23 -75 -75.5 -116t-124.5 -41q-43 0 -94 21.5t-96.5 43t-74.5 21.5q-96 0 -122 -91zM696 -29q-232 0 -374 145.5t-142 395.5v803q40 8 58 8
q23 0 59 -8v-803q0 -193 105 -311.5t294 -118.5q183 0 284 118.5t101 311.5v803q40 8 60 8q21 0 53 -8v-803q0 -247 -135.5 -394t-362.5 -147z" />
    <glyph glyph-name="utilde" unicode="&#x169;" horiz-adv-x="1134" 
d="M440 1235q-83 0 -112 -92q-24 0 -50 9.5t-38 21.5q23 75 73.5 116t118.5 41q45 0 96.5 -21.5t97 -43t76.5 -21.5q84 0 113 90q54 0 84 -30q-22 -73 -72 -114.5t-116 -41.5q-57 0 -146 43t-125 43zM915 963q27 0 58 -7v-895q-199 -88 -420 -88q-198 0 -297.5 100.5
t-99.5 276.5v606q31 7 57 7q25 0 57 -7v-559q0 -76 13.5 -130.5t47 -98.5t96 -66t153.5 -22q145 0 278 55v821q31 7 57 7z" />
    <glyph glyph-name="Umacron" unicode="&#x16a;" horiz-adv-x="1376" 
d="M434 1475q-6 21 -6 49q0 3 6 45h531q6 -14 6 -45q0 -33 -6 -49h-531zM696 -29q-232 0 -374 145.5t-142 395.5v803q40 8 58 8q23 0 59 -8v-803q0 -193 105 -311.5t294 -118.5q183 0 284 118.5t101 311.5v803q40 8 60 8q21 0 53 -8v-803q0 -247 -135.5 -394t-362.5 -147z
" />
    <glyph glyph-name="umacron" unicode="&#x16b;" horiz-adv-x="1134" 
d="M827 1165h-518q-6 14 -6 47q0 27 6 48h518q9 -24 9 -48q0 -23 -9 -47zM915 963q27 0 58 -7v-895q-199 -88 -420 -88q-198 0 -297.5 100.5t-99.5 276.5v606q31 7 57 7q25 0 57 -7v-559q0 -76 13.5 -130.5t47 -98.5t96 -66t153.5 -22q145 0 278 55v821q31 7 57 7z" />
    <glyph glyph-name="Uring" unicode="&#x16e;" horiz-adv-x="1376" 
d="M700 1341q-78 0 -133 55.5t-55 133.5q0 77 55 131.5t133 54.5q77 0 132 -55t55 -131q0 -78 -55 -133.5t-132 -55.5zM700 1421q45 0 74 32.5t29 76.5t-29 76t-74 32t-74.5 -32t-29.5 -76t29.5 -76.5t74.5 -32.5zM696 -29q-232 0 -374 145.5t-142 395.5v803q40 8 58 8
q23 0 59 -8v-803q0 -193 105 -311.5t294 -118.5q183 0 284 118.5t101 311.5v803q40 8 60 8q21 0 53 -8v-803q0 -247 -135.5 -394t-362.5 -147z" />
    <glyph glyph-name="uring" unicode="&#x16f;" horiz-adv-x="1134" 
d="M569 1044q-78 0 -133 56t-55 133q0 78 55 133t133 55q77 0 132 -55t55 -133q0 -77 -55.5 -133t-131.5 -56zM569 1343q-45 0 -75.5 -32.5t-30.5 -77.5q0 -44 30.5 -76.5t75.5 -32.5q46 0 76.5 32.5t30.5 76.5q0 45 -30.5 77.5t-76.5 32.5zM915 963q27 0 58 -7v-895
q-199 -88 -420 -88q-198 0 -297.5 100.5t-99.5 276.5v606q31 7 57 7q25 0 57 -7v-559q0 -76 13.5 -130.5t47 -98.5t96 -66t153.5 -22q145 0 278 55v821q31 7 57 7z" />
    <glyph glyph-name="Uhungarumlaut" unicode="&#x170;" horiz-adv-x="1376" 
d="M469 1370q-19 9 -26.5 17.5t-12.5 23.5l213 277q63 -15 84 -80zM786 1370q-34 16 -41 41l216 277q62 -15 83 -80zM696 -29q-232 0 -374 145.5t-142 395.5v803q40 8 58 8q23 0 59 -8v-803q0 -193 105 -311.5t294 -118.5q183 0 284 118.5t101 311.5v803q40 8 60 8
q21 0 53 -8v-803q0 -247 -135.5 -394t-362.5 -147z" />
    <glyph glyph-name="uhungarumlaut" unicode="&#x171;" horiz-adv-x="1134" 
d="M367 1065q-36 11 -48 33l177 311q34 -6 53.5 -19.5t42.5 -43.5zM666 1065q-36 11 -48 33l175 311q34 -6 55 -19.5t43 -43.5zM915 963q27 0 58 -7v-895q-199 -88 -420 -88q-198 0 -297.5 100.5t-99.5 276.5v606q31 7 57 7q25 0 57 -7v-559q0 -76 13.5 -130.5t47 -98.5
t96 -66t153.5 -22q145 0 278 55v821q31 7 57 7z" />
    <glyph glyph-name="Uogonek" unicode="&#x172;" horiz-adv-x="1376" 
d="M1141 1323q21 0 53 -8v-803q0 -170 -66.5 -295.5t-187.5 -189.5q-63 -57 -103 -116.5t-40 -109.5q0 -39 24 -58t58 -19q55 0 110 38q16 -11 28.5 -31t12.5 -44q-73 -62 -182 -62q-71 0 -116.5 39.5t-45.5 108.5q0 98 102 204q-44 -6 -92 -6q-232 0 -374 145.5t-142 395.5
v803q40 8 58 8q23 0 59 -8v-803q0 -193 105 -311.5t294 -118.5q183 0 284 118.5t101 311.5v803q40 8 60 8z" />
    <glyph glyph-name="uogonek" unicode="&#x173;" horiz-adv-x="1134" 
d="M975 -238q16 -11 28.5 -31t12.5 -44q-73 -62 -182 -62q-71 0 -116.5 39.5t-45.5 108.5q0 115 125 227q-118 -27 -244 -27q-198 0 -297.5 100.5t-99.5 276.5v606q31 7 57 7q25 0 57 -7v-559q0 -76 13.5 -130.5t47 -98.5t96 -66t153.5 -22q145 0 278 55v821q31 7 57 7
q27 0 58 -7v-895q-8 -4 -10 -4q-77 -60 -129 -129.5t-52 -126.5q0 -39 24 -58t58 -19q56 0 111 38z" />
    <glyph glyph-name="Wcircumflex" unicode="&#x174;" horiz-adv-x="1847" 
d="M707 1389q-33 20 -41 59l223 197q43 12 84 0l223 -195q-11 -40 -41 -61l-229 163zM1724 1325q30 0 66 -12q-172 -752 -412 -1313q-25 -10 -67 -10q-35 0 -60 10l-288 944l-25 105l-31 -107l-317 -942q-40 -8 -62 -8q-27 0 -67 8q-126 299 -217.5 615t-175.5 698
q35 14 73 14q31 0 52 -6q129 -670 335 -1204l23 88l328 993q27 6 59 6q34 0 55 -6l310 -989l22 -92q215 560 350 1202q24 6 49 6z" />
    <glyph glyph-name="wcircumflex" unicode="&#x175;" horiz-adv-x="1474" 
d="M518 1087q-40 16 -55 60l223 231q41 9 82 0l221 -231q-18 -48 -59 -64l-207 193zM1352 961q43 0 67 -9q-50 -235 -156.5 -506.5t-209.5 -447.5q-21 -6 -58 -6q-31 0 -55 6q-101 189 -201 475q-77 -251 -196 -475q-21 -6 -62 -6q-31 0 -55 6q-113 191 -216 452t-159 502
q24 9 72 9q11 0 25.5 -1.5t19.5 -1.5q50 -212 142.5 -454t168.5 -387q3 -14 8 -23q3 10 9 23q118 257 194 504q-50 162 -90 331q21 9 72 9q10 0 25 -1.5t20 -1.5q47 -221 128.5 -461t151.5 -380q1 -3 4.5 -9.5t4.5 -9.5q5 15 8 21q84 170 167 396.5t126 442.5q4 0 20 1.5
t25 1.5z" />
    <glyph glyph-name="Ycircumflex" unicode="&#x176;" horiz-adv-x="1163" 
d="M356 1389q-33 20 -41 59l224 197q43 12 84 0l223 -195q-11 -40 -41 -61l-230 163zM1053 1325q37 0 67 -12l-481 -785v-528q-36 -8 -57 -8q-20 0 -56 8v532l-493 781q37 12 76 12q25 0 49 -4l407 -641l23 -47l22 47l391 641q16 4 52 4z" />
    <glyph glyph-name="ycircumflex" unicode="&#x177;" horiz-adv-x="1009" 
d="M303 1087q-40 16 -55 60l223 231q41 9 82 0l221 -231q-18 -48 -59 -64l-207 193zM891 963q28 0 67 -13q-94 -402 -267 -739t-439 -625q-28 6 -49.5 25t-30.5 45q175 190 281 362q-126 199 -234 449.5t-164 484.5q33 11 70 11q16 0 51 -5q87 -374 330 -819q2 -5 7 -14
t7 -14q2 6 8 14.5t7 11.5q229 426 307 821q30 5 49 5z" />
    <glyph glyph-name="Ydieresis" unicode="&#x178;" horiz-adv-x="1163" 
d="M381 1452q-36 0 -61 24t-25 60q0 34 25 58t61 24q34 0 57 -24t23 -58q0 -36 -23 -60t-57 -24zM782 1452q-34 0 -58 24t-24 60q0 34 23.5 58t58.5 24q34 0 58 -24t24 -58q0 -36 -24 -60t-58 -24zM1053 1325q37 0 67 -12l-481 -785v-528q-36 -8 -57 -8q-20 0 -56 8v532
l-493 781q37 12 76 12q25 0 49 -4l407 -641l23 -47l22 47l391 641q16 4 52 4z" />
    <glyph glyph-name="Zacute" unicode="&#x179;" horiz-adv-x="1144" 
d="M408 1391q-24 21 -27 51l334 221q31 -18 44 -42t15 -62zM1069 100q6 -27 6 -47q0 -26 -6 -53h-981q-10 27 -10 59q0 44 35 88l778 1027l33 40l-834 -2q-8 27 -8 50q0 29 8 53h957q8 -24 8 -58q0 -48 -35 -92l-776 -1022l-35 -43h860z" />
    <glyph glyph-name="zacute" unicode="&#x17a;" horiz-adv-x="946" 
d="M317 1077q-16 10 -22.5 19.5t-11.5 27.5l292 271q49 -25 74 -95zM866 96q8 -20 8 -47q0 -25 -8 -49h-778q-8 24 -8 47q0 62 51 119l569 668l27 26h-631q-6 48 -6 49t6 49h750q4 -28 4 -43q0 -65 -49 -122l-545 -641l-53 -56h663z" />
    <glyph glyph-name="Zdotaccent" unicode="&#x17b;" horiz-adv-x="1144" 
d="M567 1452q-37 0 -62.5 24.5t-25.5 61.5t25.5 62.5t62.5 25.5q35 0 60.5 -25.5t25.5 -62.5q0 -36 -25 -61t-61 -25zM1069 100q6 -27 6 -47q0 -26 -6 -53h-981q-10 27 -10 59q0 44 35 88l778 1027l33 40l-834 -2q-8 27 -8 50q0 29 8 53h957q8 -24 8 -58q0 -48 -35 -92
l-776 -1022l-35 -43h860z" />
    <glyph glyph-name="zdotaccent" unicode="&#x17c;" horiz-adv-x="946" 
d="M467 1157q-37 0 -64.5 26t-27.5 64q0 37 27 63.5t65 26.5q37 0 62.5 -26.5t25.5 -63.5q0 -38 -25.5 -64t-62.5 -26zM866 96q8 -20 8 -47q0 -25 -8 -49h-778q-8 24 -8 47q0 62 51 119l569 668l27 26h-631q-6 48 -6 49t6 49h750q4 -28 4 -43q0 -65 -49 -122l-545 -641
l-53 -56h663z" />
    <glyph glyph-name="Zcaron" unicode="&#x17d;" horiz-adv-x="1144" 
d="M610 1399q-44 -12 -84 0l-223 194q12 39 43 62l227 -166l220 166q33 -23 41 -62zM1069 100q6 -27 6 -47q0 -26 -6 -53h-981q-10 27 -10 59q0 44 35 88l778 1027l33 40l-834 -2q-8 27 -8 50q0 29 8 53h957q8 -24 8 -58q0 -48 -35 -92l-776 -1022l-35 -43h860z" />
    <glyph glyph-name="zcaron" unicode="&#x17e;" horiz-adv-x="946" 
d="M506 1094q-41 -9 -82 0l-217 229q15 49 55 66l207 -195l207 190q43 -17 57 -61zM866 96q8 -20 8 -47q0 -25 -8 -49h-778q-8 24 -8 47q0 62 51 119l569 668l27 26h-631q-6 48 -6 49t6 49h750q4 -28 4 -43q0 -65 -49 -122l-545 -641l-53 -56h663z" />
    <glyph glyph-name="uni01EA" unicode="&#x1ea;" horiz-adv-x="1495" 
d="M1047 45q-72 -58 -119 -124t-47 -120q0 -39 24 -58t58 -19q55 0 110 38q16 -11 28.5 -31t12.5 -44q-73 -62 -182 -62q-71 0 -116.5 39.5t-45.5 108.5q0 106 111 213q-70 -13 -133 -13q-187 0 -333 89.5t-225 245.5t-79 351q0 193 79 349.5t225 248t333 91.5t332.5 -89
t224.5 -246t79 -354q0 -202 -90 -365.5t-247 -248.5zM229 659q0 -256 141.5 -417.5t377.5 -161.5q235 0 376.5 162t141.5 417q0 259 -141 420.5t-377 161.5q-237 0 -378 -161.5t-141 -420.5z" />
    <glyph glyph-name="uni01EB" unicode="&#x1eb;" horiz-adv-x="1173" 
d="M840 47q-72 -58 -120 -125t-48 -121q0 -39 24 -58t58 -19q55 0 110 38q16 -11 28.5 -31t12.5 -44q-73 -62 -182 -62q-71 0 -116.5 39.5t-45.5 108.5q0 102 109 211q-51 -7 -86 -7q-212 0 -348 143t-136 363q0 217 140.5 361.5t349.5 144.5q211 0 347 -144t136 -362
q0 -140 -62.5 -254.5t-170.5 -181.5zM217 483q0 -174 101.5 -286.5t269.5 -112.5t269 112t101 287q0 172 -101.5 286t-268.5 114t-269 -114t-102 -286z" />
    <glyph glyph-name="AEacute" unicode="&#x1fc;" horiz-adv-x="1638" 
d="M809 1391q-24 21 -27 51l334 221q32 -18 45 -42t15 -62zM1540 106q6 -27 6 -51q0 -28 -6 -55h-719v545h-381l-321 -547q-16 -4 -47 -4q-34 0 -74 14l768 1307h745q9 -41 9 -55q0 -11 -9 -52h-575v-557h514q8 -36 8 -53t-8 -53h-514v-439h604zM504 651h317v471l4 84
l-45 -86z" />
    <glyph glyph-name="aeacute" unicode="&#x1fd;" horiz-adv-x="1638" 
d="M686 1077q-27 16 -35 47l293 271q49 -25 74 -95zM412 -25q-152 0 -239 78t-87 215q0 135 104 212t283 77l264 2v78q0 125 -73.5 184.5t-198.5 59.5q-150 0 -281 -99q-41 24 -59 80q50 46 141 86.5t203 40.5q83 0 150 -20.5t123 -74.5t77 -138q43 110 137 171.5t205 61.5
q176 0 276.5 -124.5t100.5 -340.5q0 -40 -2 -63h-684v-6q4 -178 91 -276.5t228 -98.5q56 0 101 9t82.5 29.5t54 32t47.5 37.5q47 -26 62 -86q-77 -59 -156.5 -93t-190.5 -34q-158 0 -255 74.5t-132 204.5q-41 -138 -143 -208.5t-229 -70.5zM854 559h567q0 139 -65 232.5
t-191 93.5q-131 0 -218 -93.5t-93 -232.5zM418 76q44 0 86 11t85 38.5t75 69.5t52.5 110.5t20.5 155.5h-264q-268 -3 -268 -193q-1 -90 56.5 -141t156.5 -51z" />
    <glyph glyph-name="Oslashacute" unicode="&#x1fe;" horiz-adv-x="1495" 
d="M588 1391q-24 21 -27 51l334 221q31 -18 44 -42t15 -62zM1384 1280l-147 -162q147 -186 147 -459q0 -143 -46.5 -269t-128.5 -218t-201.5 -145.5t-259.5 -53.5q-243 0 -416 152l-142 -156q-58 19 -73 74l143 158q-149 185 -149 458q0 193 79 349.5t225 248t333 91.5
q244 0 419 -154l142 154q53 -15 75 -68zM229 659q0 -221 109 -374l756 827q-138 129 -346 129q-237 0 -378 -161.5t-141 -420.5zM1266 659q0 224 -105 375l-755 -829q137 -125 342 -125q235 0 376.5 162t141.5 417z" />
    <glyph glyph-name="oslashacute" unicode="&#x1ff;" horiz-adv-x="1179" 
d="M442 1077q-16 10 -22.5 19.5t-11.5 27.5l292 271q49 -25 74 -95zM956 827q119 -141 119 -344q0 -217 -140 -361.5t-349 -144.5q-170 0 -301 101l-117 -131q-22 6 -39.5 23t-24.5 40l117 129q-119 138 -119 344q0 217 140.5 361.5t351.5 144.5q177 0 301 -102l115 127
q46 -13 63 -58zM219 483q0 -149 78 -260l524 582q-97 78 -231 78q-167 0 -269 -114t-102 -286zM590 84q168 0 269.5 112.5t101.5 286.5q0 151 -80 258l-523 -581q99 -76 232 -76z" />
    <glyph glyph-name="Scommaaccent" unicode="&#x218;" horiz-adv-x="1071" 
d="M520 -31q-272 0 -434 166q17 57 72 84q140 -143 362 -143q161 0 247.5 73.5t86.5 198.5q0 108 -75 173t-259 110q-67 16 -118 33t-105 46.5t-88.5 67t-57 94t-22.5 127.5q0 150 111.5 247t296.5 97q252 0 405 -131q-3 -26 -21 -52.5t-40 -37.5q-72 55 -153 85t-191 30
q-136 0 -215.5 -64.5t-79.5 -166.5q0 -104 72.5 -160.5t232.5 -95.5q103 -26 176.5 -57.5t131 -78t86 -112t28.5 -152.5q0 -175 -121 -278t-328 -103zM481 -428q-26 7 -37 39q64 64 64 182q0 51 -19 117q17 10 60 10q34 0 53 -8q10 -38 10 -90q0 -75 -36 -142.5t-95 -107.5z
" />
    <glyph glyph-name="scommaaccent" unicode="&#x219;" horiz-adv-x="921" 
d="M444 -23q-123 0 -213.5 35.5t-142.5 81.5q19 58 66 84q119 -100 290 -100q138 0 205.5 50t67.5 132q0 78 -59 120t-212 66q-160 24 -246.5 85t-86.5 184q0 122 99.5 198t264.5 76q106 0 191.5 -26.5t132.5 -61.5q-9 -51 -49 -88q-124 74 -285 74q-117 0 -179.5 -42.5
t-62.5 -117.5q0 -73 55.5 -110.5t186.5 -59.5q89 -15 151.5 -35t112 -52.5t74 -81.5t24.5 -116q0 -136 -103 -215.5t-282 -79.5zM412 -428q-26 7 -37 39q63 63 63 182q0 54 -18 117q17 10 59 10q34 0 53 -8q11 -42 11 -90q0 -75 -36 -142.5t-95 -107.5z" />
    <glyph glyph-name="uni021A" unicode="&#x21a;" horiz-adv-x="1093" 
d="M1051 1315q8 -24 8 -53q0 -28 -8 -52h-449v-1212q-27 -6 -57 -6q-29 0 -56 6v1212h-448q-8 24 -8 52q0 29 8 53h1010zM553 -80q34 0 53 -8q10 -38 10 -90q0 -75 -36 -142.5t-95 -107.5q-25 6 -36 39q63 63 63 182q0 54 -18 117q17 10 59 10z" />
    <glyph glyph-name="uni021B" unicode="&#x21b;" horiz-adv-x="784" 
d="M772 66q-105 -89 -252 -89q-64 0 -117 17.5t-95.5 53.5t-66.5 97t-24 142v577h-168q-6 24 -6 47q0 24 6 45h168v263q24 6 55 6q32 0 56 -6v-263h387q6 -24 6 -45q0 -23 -6 -47h-387v-549q0 -237 200 -237q93 0 193 69q41 -29 51 -81zM496 -80q34 0 53 -8q10 -38 10 -90
q0 -75 -36 -142.5t-95 -107.5q-26 7 -37 39q64 64 64 182q0 51 -19 117q17 10 60 10z" />
    <glyph glyph-name="circumflex" unicode="&#x2c6;" horiz-adv-x="602" 
d="M346 1378l221 -231q-18 -48 -59 -64l-207 193l-205 -189q-40 16 -55 60l223 231q41 9 82 0z" />
    <glyph glyph-name="caron" unicode="&#x2c7;" horiz-adv-x="600" 
d="M262 1094l-217 229q15 49 55 66l207 -195l207 190q43 -17 57 -61l-227 -229q-41 -9 -82 0z" />
    <glyph glyph-name="breve" unicode="&#x2d8;" horiz-adv-x="618" 
d="M307 1096q-117 0 -187.5 70.5t-78.5 185.5q39 16 84 10q12 -85 59.5 -130.5t124.5 -45.5q75 0 125.5 46.5t57.5 129.5q48 3 81 -10q-5 -110 -77 -183t-189 -73z" />
    <glyph glyph-name="dotaccent" unicode="&#x2d9;" horiz-adv-x="335" 
d="M170 1157q-38 0 -65 26t-27 64q0 37 27 63.5t65 26.5q35 0 61.5 -26.5t26.5 -63.5q0 -38 -26 -64t-62 -26z" />
    <glyph glyph-name="ring" unicode="&#x2da;" horiz-adv-x="473" 
d="M238 1044q-78 0 -133.5 56t-55.5 133q0 78 55.5 133t133.5 55q77 0 131.5 -55t54.5 -133q0 -77 -55 -133t-131 -56zM238 1124q46 0 76 32.5t30 76.5q0 45 -30 77.5t-76 32.5q-45 0 -76 -32.5t-31 -77.5q0 -44 31 -76.5t76 -32.5z" />
    <glyph glyph-name="ogonek" unicode="&#x2db;" horiz-adv-x="499" 
d="M246 -375q-71 0 -116.5 39.5t-45.5 108.5q0 141 201 290h98q-79 -60 -133.5 -132t-54.5 -130q0 -39 24 -58t57 -19q56 0 111 38q16 -11 28.5 -31t12.5 -44q-73 -62 -182 -62z" />
    <glyph glyph-name="tilde" unicode="&#x2dc;" horiz-adv-x="737" 
d="M123 1143q-53 0 -88 31q23 75 74 116t120 41q44 0 95.5 -21.5t97 -43t76.5 -21.5q83 0 112 90q54 0 84 -30q-22 -73 -72 -114.5t-116 -41.5q-44 0 -95 21.5t-96.5 43t-76.5 21.5q-86 0 -115 -92z" />
    <glyph glyph-name="hungarumlaut" unicode="&#x2dd;" horiz-adv-x="657" 
d="M88 1065q-34 10 -47 33l176 311q34 -6 53.5 -19.5t42.5 -43.5zM387 1065q-34 10 -47 33l174 311q34 -6 55 -19.5t43 -43.5z" />
    <glyph glyph-name="gravecomb" unicode="&#x300;" 
d="M-80 1077l-332 223q13 37 29 59t45 36l291 -271q-5 -27 -33 -47z" />
    <glyph glyph-name="acutecomb" unicode="&#x301;" 
d="M-379 1077q-27 16 -35 47l293 271q49 -25 74 -95z" />
    <glyph glyph-name="uni0302" unicode="&#x302;" 
d="M-266 1378l221 -231q-18 -48 -59 -64l-207 193l-205 -189q-40 16 -55 60l223 231q41 9 82 0z" />
    <glyph glyph-name="tildecomb" unicode="&#x303;" 
d="M-606 1143q-24 0 -50 9.5t-38 21.5q23 75 73.5 116t118.5 41q45 0 96.5 -21.5t97.5 -43t77 -21.5q83 0 112 90q54 0 84 -30q-22 -73 -72 -114.5t-116 -41.5q-57 0 -146 43t-125 43q-83 0 -112 -92z" />
    <glyph glyph-name="uni0304" unicode="&#x304;" 
d="M-582 1165q-6 14 -6 47q0 27 6 48h519q8 -21 8 -48q0 -26 -8 -47h-519z" />
    <glyph glyph-name="uni0306" unicode="&#x306;" 
d="M-307 1096q-117 0 -187.5 70.5t-78.5 185.5q39 16 84 10q12 -85 59.5 -130.5t124.5 -45.5q75 0 125 46.5t57 129.5q49 3 82 -10q-5 -110 -77 -183t-189 -73z" />
    <glyph glyph-name="uni0307" unicode="&#x307;" 
d="M-166 1157q-38 0 -65 26t-27 64q0 37 27 63.5t65 26.5q35 0 61.5 -26.5t26.5 -63.5q0 -38 -26 -64t-62 -26z" />
    <glyph glyph-name="uni0308" unicode="&#x308;" 
d="M-547 1149q-36 0 -61 24t-25 60q0 35 24.5 59.5t61.5 24.5q35 0 59.5 -24.5t24.5 -59.5q0 -36 -24 -60t-60 -24zM-137 1149q-36 0 -61 24t-25 60q0 35 24.5 59.5t61.5 24.5q34 0 59 -24.5t25 -59.5q0 -36 -25 -60t-59 -24z" />
    <glyph glyph-name="uni030A" unicode="&#x30a;" 
d="M-236 1044q-78 0 -133 56t-55 133q0 78 55 133t133 55q77 0 132 -55t55 -133q0 -77 -55.5 -133t-131.5 -56zM-236 1124q46 0 76.5 32.5t30.5 76.5q0 45 -30.5 77.5t-76.5 32.5q-45 0 -75.5 -32.5t-30.5 -77.5q0 -44 30.5 -76.5t75.5 -32.5z" />
    <glyph glyph-name="uni030B" unicode="&#x30b;" 
d="M-565 1065q-34 10 -47 33l176 311q34 -6 53.5 -19.5t42.5 -43.5zM-266 1065q-34 10 -47 33l174 311q34 -6 55 -19.5t43 -43.5z" />
    <glyph glyph-name="uni030C" unicode="&#x30c;" 
d="M-350 1094l-217 229q15 49 55 66l207 -195l207 190q43 -17 57 -61l-227 -229q-41 -9 -82 0z" />
    <glyph glyph-name="uni0326" unicode="&#x326;" 
d="M-190 -428q-26 7 -37 39q63 63 63 182q0 54 -18 117q17 10 59 10q34 0 53 -8q11 -42 11 -90q0 -75 -36 -142.5t-95 -107.5z" />
    <glyph glyph-name="uni0327" unicode="&#x327;" 
d="M-233 12h81l-34 -92q73 -13 114 -45.5t41 -95.5q0 -46 -21 -80t-55.5 -52t-70.5 -26t-74 -8q-87 0 -129 22q6 45 31 74q40 -18 96 -18q53 0 87 20.5t34 59.5q0 45 -40 65t-120 25z" />
    <glyph glyph-name="uni0328" unicode="&#x328;" 
d="M-223 -375q-71 0 -116.5 39.5t-45.5 108.5q0 141 201 290h98q-79 -60 -133.5 -132t-54.5 -130q0 -39 24 -58t57 -19q56 0 111 38q16 -11 28.5 -31t12.5 -44q-73 -62 -182 -62z" />
    <glyph glyph-name="uni0335" unicode="&#x335;" 
d="M-535 915q-6 21 -6 46q0 23 6 47h480q6 -21 6 -47q0 -22 -6 -46h-480z" />
    <glyph glyph-name="uni0336" unicode="&#x336;" 
d="M-1321 920q-8 28 -8 45t8 45h1260q8 -19 8 -45q0 -24 -8 -45h-1260z" />
    <glyph glyph-name="uni0337" unicode="&#x337;" 
d="M-430 555q-36 29 -39 78l406 209q31 -28 38 -80z" />
    <glyph glyph-name="uni0338" unicode="&#x338;" 
d="M-1028 -53q-52 17 -64 63l906 1006q47 -18 63 -60z" />
    <glyph glyph-name="Wgrave" unicode="&#x1e80;" horiz-adv-x="1847" 
d="M1106 1442q-3 -32 -25 -51l-368 168q3 70 59 104zM1724 1325q30 0 66 -12q-172 -752 -412 -1313q-25 -10 -67 -10q-35 0 -60 10l-288 944l-25 105l-31 -107l-317 -942q-40 -8 -62 -8q-27 0 -67 8q-126 299 -217.5 615t-175.5 698q35 14 73 14q31 0 52 -6
q129 -670 335 -1204l23 88l328 993q27 6 59 6q34 0 55 -6l310 -989l22 -92q215 560 350 1202q24 6 49 6z" />
    <glyph glyph-name="wgrave" unicode="&#x1e81;" horiz-adv-x="1474" 
d="M891 1124q-5 -27 -33 -47l-332 223q13 37 29 59t45 36zM1352 961q43 0 67 -9q-50 -235 -156.5 -506.5t-209.5 -447.5q-21 -6 -58 -6q-31 0 -55 6q-101 189 -201 475q-77 -251 -196 -475q-21 -6 -62 -6q-31 0 -55 6q-113 191 -216 452t-159 502q24 9 72 9q11 0 25.5 -1.5
t19.5 -1.5q50 -212 142.5 -454t168.5 -387q3 -14 8 -23q3 10 9 23q118 257 194 504q-50 162 -90 331q21 9 72 9q10 0 25 -1.5t20 -1.5q47 -221 128.5 -461t151.5 -380q1 -3 4.5 -9.5t4.5 -9.5q5 15 8 21q84 170 167 396.5t126 442.5q4 0 20 1.5t25 1.5z" />
    <glyph glyph-name="Wacute" unicode="&#x1e82;" horiz-adv-x="1847" 
d="M772 1391q-24 21 -27 51l334 221q32 -18 45 -42t15 -62zM1724 1325q30 0 66 -12q-172 -752 -412 -1313q-25 -10 -67 -10q-35 0 -60 10l-288 944l-25 105l-31 -107l-317 -942q-40 -8 -62 -8q-27 0 -67 8q-126 299 -217.5 615t-175.5 698q35 14 73 14q31 0 52 -6
q129 -670 335 -1204l23 88l328 993q27 6 59 6q34 0 55 -6l310 -989l22 -92q215 560 350 1202q24 6 49 6z" />
    <glyph glyph-name="wacute" unicode="&#x1e83;" horiz-adv-x="1474" 
d="M578 1077q-27 16 -35 47l293 271q28 -14 44 -36.5t29 -58.5zM1352 961q43 0 67 -9q-50 -235 -156.5 -506.5t-209.5 -447.5q-21 -6 -58 -6q-31 0 -55 6q-101 189 -201 475q-77 -251 -196 -475q-21 -6 -62 -6q-31 0 -55 6q-113 191 -216 452t-159 502q24 9 72 9
q11 0 25.5 -1.5t19.5 -1.5q50 -212 142.5 -454t168.5 -387q3 -14 8 -23q3 10 9 23q118 257 194 504q-50 162 -90 331q21 9 72 9q10 0 25 -1.5t20 -1.5q47 -221 128.5 -461t151.5 -380q1 -3 4.5 -9.5t4.5 -9.5q5 15 8 21q84 170 167 396.5t126 442.5q4 0 20 1.5t25 1.5z" />
    <glyph glyph-name="Wdieresis" unicode="&#x1e84;" horiz-adv-x="1847" 
d="M731 1452q-36 0 -61 24t-25 60q0 34 25 58t61 24q34 0 57 -24t23 -58q0 -36 -23 -60t-57 -24zM1133 1452q-34 0 -58 24t-24 60q0 34 23.5 58t58.5 24q34 0 57.5 -24t23.5 -58q0 -36 -23.5 -60t-57.5 -24zM1724 1325q30 0 66 -12q-172 -752 -412 -1313q-25 -10 -67 -10
q-35 0 -60 10l-288 944l-25 105l-31 -107l-317 -942q-40 -8 -62 -8q-27 0 -67 8q-126 299 -217.5 615t-175.5 698q35 14 73 14q31 0 52 -6q129 -670 335 -1204l23 88l328 993q27 6 59 6q34 0 55 -6l310 -989l22 -92q215 560 350 1202q24 6 49 6z" />
    <glyph glyph-name="wdieresis" unicode="&#x1e85;" horiz-adv-x="1474" 
d="M522 1149q-36 0 -61 24t-25 60q0 35 24.5 59.5t61.5 24.5q35 0 59.5 -24.5t24.5 -59.5q0 -36 -24 -60t-60 -24zM932 1149q-36 0 -61 24t-25 60q0 35 24.5 59.5t61.5 24.5q34 0 59 -24.5t25 -59.5q0 -36 -25 -60t-59 -24zM1352 961q43 0 67 -9q-50 -235 -156.5 -506.5
t-209.5 -447.5q-21 -6 -58 -6q-31 0 -55 6q-101 189 -201 475q-77 -251 -196 -475q-21 -6 -62 -6q-31 0 -55 6q-113 191 -216 452t-159 502q24 9 72 9q11 0 25.5 -1.5t19.5 -1.5q50 -212 142.5 -454t168.5 -387q3 -14 8 -23q3 10 9 23q118 257 194 504q-50 162 -90 331
q21 9 72 9q10 0 25 -1.5t20 -1.5q47 -221 128.5 -461t151.5 -380q1 -3 4.5 -9.5t4.5 -9.5q5 15 8 21q84 170 167 396.5t126 442.5q4 0 20 1.5t25 1.5z" />
    <glyph glyph-name="uni1E9E" unicode="&#x1e9e;" horiz-adv-x="1257" 
d="M862 723q71 -38 114.5 -65.5t87 -64t67 -74t37.5 -88t14 -112.5q0 -161 -103.5 -253.5t-261.5 -92.5q-200 0 -325 125q15 57 69 88q103 -106 256 -106q122 0 186 63t66 162q0 93 -46.5 156t-188.5 141q-64 35 -102 60.5t-80.5 66.5t-62.5 93t-20 118q0 89 51.5 160
t145.5 114q-70 -6 -115 -6q-159 0 -256.5 -81.5t-97.5 -245.5v-881q-27 -6 -55 -6q-33 0 -60 6v883q1 140 66 239.5t170 146t239 46.5h349q8 -21 8 -49q0 -31 -8 -58q-158 -14 -240 -84t-82 -172q0 -71 38 -122.5t140 -106.5z" />
    <glyph glyph-name="Ygrave" unicode="&#x1ef2;" horiz-adv-x="1163" 
d="M754 1442q-3 -32 -25 -51l-369 168q3 69 60 104zM1053 1325q37 0 67 -12l-481 -785v-528q-36 -8 -57 -8q-20 0 -56 8v532l-493 781q37 12 76 12q25 0 49 -4l407 -641l23 -47l22 47l391 641q16 4 52 4z" />
    <glyph glyph-name="ygrave" unicode="&#x1ef3;" horiz-adv-x="1009" 
d="M676 1124q-5 -27 -33 -47l-332 223q13 37 29 59t45 36zM891 963q28 0 67 -13q-94 -402 -267 -739t-439 -625q-28 6 -49.5 25t-30.5 45q175 190 281 362q-126 199 -234 449.5t-164 484.5q33 11 70 11q16 0 51 -5q87 -374 330 -819q2 -5 7 -14t7 -14q2 6 8 14.5t7 11.5
q229 426 307 821q30 5 49 5z" />
    <glyph glyph-name="uni1EF8" unicode="&#x1ef8;" horiz-adv-x="1163" 
d="M453 1518q-97 0 -123 -91q-24 0 -49 9.5t-37 21.5q23 75 76.5 116.5t128.5 41.5q52 0 140 -43t122 -43q94 0 120 90q25 0 51 -9t36 -22q-23 -75 -76 -116t-125 -41q-43 0 -94 21.5t-96 43t-74 21.5zM1053 1325q37 0 67 -12l-481 -785v-528q-36 -8 -57 -8q-20 0 -56 8v532
l-493 781q37 12 76 12q25 0 49 -4l407 -641l23 -47l22 47l391 641q16 4 52 4z" />
    <glyph glyph-name="uni1EF9" unicode="&#x1ef9;" horiz-adv-x="1009" 
d="M383 1235q-84 0 -113 -92q-24 0 -50 9.5t-38 21.5q23 75 74 116t119 41q45 0 96.5 -21.5t97 -43t76.5 -21.5q84 0 113 90q54 0 84 -30q-22 -73 -72.5 -114.5t-116.5 -41.5q-45 0 -96 21.5t-96.5 43t-77.5 21.5zM891 963q28 0 67 -13q-94 -402 -267 -739t-439 -625
q-28 6 -49.5 25t-30.5 45q175 190 281 362q-126 199 -234 449.5t-164 484.5q33 11 70 11q16 0 51 -5q87 -374 330 -819q2 -5 7 -14t7 -14q2 6 8 14.5t7 11.5q229 426 307 821q30 5 49 5z" />
    <glyph glyph-name="endash" unicode="&#x2013;" horiz-adv-x="1187" 
d="M154 461q-7 32 -7 51q0 20 7 45h878q6 -14 6 -45q0 -33 -6 -51h-878z" />
    <glyph glyph-name="emdash" unicode="&#x2014;" horiz-adv-x="2201" 
d="M154 463q-7 28 -7 49q0 22 7 47h1894q6 -24 6 -47q0 -25 -6 -49h-1894z" />
    <glyph glyph-name="quoteleft" unicode="&#x2018;" horiz-adv-x="407" 
d="M195 969q-38 0 -58 10q-14 33 -14 98q0 96 43.5 176t95.5 125q13 -2 26.5 -12t14.5 -23q-65 -69 -65 -223q0 -85 22 -139q-30 -12 -65 -12z" />
    <glyph glyph-name="quoteright" unicode="&#x2019;" horiz-adv-x="403" 
d="M154 969q-13 2 -25.5 12.5t-15.5 24.5q67 69 67 223q0 78 -22 139q25 10 65 10t58 -8q14 -33 14 -98q0 -96 -43.5 -176.5t-97.5 -126.5z" />
    <glyph glyph-name="quotesinglbase" unicode="&#x201a;" horiz-adv-x="421" 
d="M135 -219q-14 2 -28 12.5t-15 24.5q70 70 70 223q0 78 -25 139q25 10 68 10q39 0 55 -8q16 -28 16 -98q0 -96 -43.5 -176.5t-97.5 -126.5z" />
    <glyph glyph-name="quotedblleft" unicode="&#x201c;" horiz-adv-x="665" 
d="M195 969q-38 0 -58 10q-14 33 -14 98q0 97 43 177t96 124q13 -2 26.5 -12t16.5 -23q-69 -69 -69 -223q0 -80 24 -139q-30 -12 -65 -12zM451 969q-38 0 -58 10q-16 28 -16 98q0 97 44 177t97 124q13 -2 26.5 -12t14.5 -23q-65 -69 -65 -223q0 -85 22 -139q-30 -12 -65 -12
z" />
    <glyph glyph-name="quotedblright" unicode="&#x201d;" horiz-adv-x="661" 
d="M156 965q-13 2 -26.5 11.5t-14.5 22.5q38 41 52.5 106t14.5 118q0 81 -24 139q30 12 65 12q38 0 58 -10q14 -24 14 -98q0 -97 -43 -177t-96 -124zM412 965q-13 2 -26.5 11.5t-14.5 22.5q67 69 67 224q0 78 -22 139q27 12 65 12q36 0 56 -10q14 -33 14 -98q0 -97 -43 -177
t-96 -124z" />
    <glyph glyph-name="quotedblbase" unicode="&#x201e;" horiz-adv-x="675" 
d="M135 -219q-13 2 -26.5 12.5t-14.5 24.5q27 29 43 77.5t19.5 81.5t3.5 64q0 83 -23 139q25 10 66 10t57 -8q16 -28 16 -98q0 -96 -43.5 -176.5t-97.5 -126.5zM391 -219q-13 2 -26.5 12.5t-16.5 24.5q68 70 68 223q0 83 -23 139q25 10 66 10t57 -8q14 -24 14 -98
q0 -97 -43 -177t-96 -126z" />
    <glyph glyph-name="dagger" unicode="&#x2020;" horiz-adv-x="1024" 
d="M905 1008q0 -29 -6 -56l-334 11v-1270q-27 -6 -55 -6q-29 0 -53 6v1270l-332 -11q-6 24 -6 56q0 29 6 53l332 -10v417q28 7 53 7q27 0 55 -7v-417l334 10q6 -21 6 -53z" />
    <glyph glyph-name="daggerdbl" unicode="&#x2021;" horiz-adv-x="1024" 
d="M565 199l334 12q6 -24 6 -55q0 -29 -6 -56l-334 11v-418q-27 -6 -55 -6q-29 0 -53 6v418l-332 -11q-6 27 -6 56q0 28 6 55l332 -12v764l-332 -11q-6 24 -6 56q0 29 6 53l332 -10v417q28 7 53 7q27 0 55 -7v-417l334 10q6 -21 6 -53q0 -29 -6 -56l-334 11v-764z" />
    <glyph glyph-name="bullet" unicode="&#x2022;" horiz-adv-x="761" 
d="M381 348q-85 0 -145 60t-60 145q0 86 60 146.5t145 60.5t145 -60.5t60 -146.5q0 -85 -60 -145t-145 -60z" />
    <glyph glyph-name="ellipsis" unicode="&#x2026;" horiz-adv-x="1124" 
d="M219 -20q-37 0 -62.5 24.5t-25.5 61.5t25 60.5t63 23.5q34 0 59 -24t25 -60t-25 -61t-59 -25zM567 -20q-36 0 -61 25t-25 61q0 37 24.5 60.5t61.5 23.5q36 0 60 -24t24 -60q0 -37 -24.5 -61.5t-59.5 -24.5zM907 -20q-36 0 -61 25t-25 61q0 37 24.5 60.5t61.5 23.5
q36 0 60 -24t24 -60q0 -37 -24.5 -61.5t-59.5 -24.5z" />
    <glyph glyph-name="perthousand" unicode="&#x2030;" horiz-adv-x="2205" 
d="M272 -96l879 1356q60 15 111 0l-879 -1356q-63 -15 -111 0zM360 586q-132 0 -209 84.5t-77 214.5q0 131 77 215t209 84q130 0 207.5 -84.5t77.5 -214.5q0 -129 -78 -214t-207 -85zM360 674q92 0 140.5 58.5t48.5 152.5q0 93 -49 153t-140 60q-93 0 -141.5 -60t-48.5 -153
q0 -94 48.5 -152.5t141.5 -58.5zM1171 -20q-130 0 -208 85t-78 214q0 130 77.5 214.5t208.5 84.5t208 -84t77 -215q0 -129 -77.5 -214t-207.5 -85zM1843 -20q-130 0 -207 84.5t-77 214.5q0 131 76.5 215t207.5 84t209 -84.5t78 -214.5q0 -129 -78 -214t-209 -85zM1171 68
q93 0 142 58.5t49 152.5q0 93 -49 153t-142 60t-141.5 -60t-48.5 -153q0 -94 48.5 -152.5t141.5 -58.5zM1843 68q93 0 142 58.5t49 152.5q0 93 -49 153t-142 60q-91 0 -140.5 -60t-49.5 -153t49 -152t141 -59z" />
    <glyph glyph-name="guilsinglleft" unicode="&#x2039;" horiz-adv-x="557" 
d="M362 217l-272 305l272 314q38 -8 54 -45l-185 -269l185 -264q-13 -33 -54 -41z" />
    <glyph glyph-name="guilsinglright" unicode="&#x203a;" horiz-adv-x="555" 
d="M195 217q-43 9 -56 41l185 264l-185 269q16 37 56 45l270 -314z" />
    <glyph glyph-name="fraction" unicode="&#x2044;" horiz-adv-x="1103" 
d="M12 -96l971 1442q55 12 111 0l-971 -1442q-55 -15 -111 0z" />
    <glyph glyph-name="Euro" unicode="&#x20ac;" horiz-adv-x="1325" 
d="M1184 178q45 -29 53 -80q-148 -123 -387 -123q-228 0 -382 134.5t-200 363.5h-188q-6 21 -6 45t6 45h174q-4 66 -4 99q0 52 6 102h-139q-6 21 -6 45t6 45h153q50 228 207.5 362t384.5 134q207 0 361 -113q-15 -51 -56 -78q-77 49 -144 70.5t-161 21.5q-188 0 -312 -103.5
t-165 -293.5h451q6 -21 6 -45t-6 -45h-465q-6 -50 -6 -102q0 -37 4 -99h432q6 -21 6 -45t-6 -45h-416q41 -188 164 -293.5t301 -105.5q114 0 192 27t142 77z" />
    <glyph glyph-name="trademark" unicode="&#x2122;" horiz-adv-x="1525" 
d="M1284 1354q49 0 78 -4v-717q-27 -6 -55 -6q-25 0 -43 6v432l6 98l-191 -446q-20 -8 -55 -8t-55 8l-205 450l6 -102v-432q-18 -6 -45 -6t-51 6v715q24 8 71 8q31 0 39 -2l224 -480l20 -57l21 57l204 480h31zM74 1352h542q7 -28 7 -45q0 -21 -7 -45h-217v-631
q-21 -6 -47 -6q-24 0 -51 6v631h-227q-6 21 -6 45q0 18 6 45z" />
    <glyph glyph-name="minus" unicode="&#x2212;" horiz-adv-x="1136" 
d="M158 434q-6 24 -6 49t6 49h819q6 -21 6 -49q0 -25 -6 -49h-819z" />
    <glyph glyph-name="approxequal" unicode="&#x2248;" horiz-adv-x="1116" 
d="M225 539q-20 3 -42 17t-31 30q35 72 97.5 111.5t139.5 39.5q63 0 170.5 -46t165.5 -46q99 0 160 98q59 -9 82 -47q-37 -73 -100.5 -114t-141.5 -41q-60 0 -120 23t-115 46t-101 23q-111 0 -164 -94zM225 170q-21 5 -43 19t-30 30q35 71 98 110.5t139 39.5
q63 0 170.5 -46.5t165.5 -46.5q98 0 160 99q22 -2 46.5 -15t35.5 -32q-37 -74 -100.5 -115t-141.5 -41q-60 0 -120 23t-115 46t-101 23q-111 0 -164 -94z" />
    <glyph glyph-name="notequal" unicode="&#x2260;" horiz-adv-x="1097" 
d="M557 352h383q6 -24 6 -49t-6 -49h-440l-138 -238q-44 13 -83 52l108 186h-229q-6 24 -6 49t6 49h286l148 256h-434q-6 24 -6 51q0 26 6 50h491l137 235q46 -13 84 -51l-106 -184h176q6 -24 6 -50q0 -27 -6 -51h-235z" />
    <glyph glyph-name="dotlessj" unicode="&#xf6be;" horiz-adv-x="485" 
d="M23 -401q-82 0 -141.5 25.5t-92.5 58.5q14 53 64 79q45 -32 77.5 -46.5t79.5 -14.5q82 0 136.5 56t54.5 175v1026q31 7 55 7q28 0 59 -7v-1026q0 -84 -26.5 -150t-70 -104.5t-93.5 -58.5t-102 -20z" />
    <glyph glyph-name="uniF8FF" unicode="&#xf8ff;" horiz-adv-x="2971" 
d="M1415 1194q0 54 36 90.5t89 36.5q54 0 90.5 -36.5t36.5 -90.5q0 -53 -36.5 -89t-90.5 -36q-52 0 -88.5 36.5t-36.5 88.5zM449 553h-244q0 274 18 643h205q1 -10 4 -65t5.5 -108t5.5 -128t4.5 -164t1.5 -178zM1421 553q0 187 6 301h-124l6 -133q8 -8 30 -8q27 0 37 10
v-152q-26 -30 -139 -30q-168 0 -168 135q0 25 4 100.5t4 77.5h-45v162l244 61l2 -35h364q21 -138 21 -489h-242zM672 543q-90 0 -139.5 58t-49.5 175q0 133 68.5 205t206.5 72q128 0 191 -62t63 -178v-260h-170l-17 125q-13 -67 -48 -101t-105 -34zM2232 553h-233
q0 54 2 115t2 75q0 33 -6 46.5t-25 13.5q-23 0 -30 -15t-7 -45q0 -14 3.5 -75t3.5 -115h-234q0 351 21 489h163q13 -97 13 -155q2 20 9 42t23 53t50 51t81 20q87 0 121 -51t37 -166zM2767 801q0 -125 -62 -191.5t-190 -66.5q-127 0 -188.5 66.5t-61.5 187.5q0 53 12 96
t39 80.5t79 58.5t124 21q248 0 248 -252zM799 768q0 53 -49 53q-24 0 -34.5 -12t-10.5 -41q0 -61 45 -61q49 0 49 61zM2562 768q0 53 -47 53q-22 0 -32.5 -12t-10.5 -41q0 -61 43 -61q22 0 34.5 16t12.5 45zM877 487h213q20 -107 20 -282q0 -166 -68.5 -236.5t-242.5 -70.5
q-127 0 -181 34v170q48 -32 144 -32q43 0 69.5 12.5t33.5 24t7 20.5q-35 -23 -100 -23q-184 0 -184 170v27h-113l6 -133q12 -8 31 -8q27 0 37 10v-150q-37 -30 -139 -30q-91 0 -128.5 34.5t-37.5 110.5q0 79 6 166h-37v164l240 59l-2 -37h362v-243q0 -33 6 -44.5t25 -11.5
t26 12.5t7 43.5v243zM1501 498q76 0 120 -60t44 -172q0 -276 -281 -276q2 -31 2 -80h-243q0 292 20 577h160q14 -87 14 -155q3 16 7 29.5t16.5 41t28.5 46.5t46 34t66 15zM2191 260q0 -45 -6 -72h-254q23 -36 103 -36q68 0 112 24v-153q-47 -33 -159 -33q-289 0 -289 250
q0 121 67 189.5t189 68.5q113 0 175 -61.5t62 -176.5zM2003 223q6 56 -35 56q-47 0 -47 -56h82zM1372 147q11 0 26.5 5t32.5 24t17 47q0 47 -41 47q-45 0 -45 -63q0 -30 10 -60zM2200 27q0 -22 13.5 -34.5t35.5 -12.5t35.5 12.5t13.5 34.5t-13.5 34.5t-35.5 12.5
t-35.5 -12.5t-13.5 -34.5zM2212 27q0 36 37 36t37 -36q0 -37 -37 -37t-37 37zM2269 4l-12 19q14 0 14 14t-20 14h-23v-47h10v19h11l8 -19h12zM2253 31h-15v12h15q8 0 8 -6t-8 -6z" />
    <glyph glyph-name="A.ss01" horiz-adv-x="1214" 
d="M657 1315q280 -559 508 -1305q-27 -16 -71 -16q-36 0 -50 4q-53 185 -124 399h-633q-65 -205 -117 -397q-24 -6 -47 -6q-41 0 -72 16q212 735 492 1305q24 8 57 8t57 -8zM319 496h566q-116 322 -258 614l-31 72l-29 -72q-136 -285 -248 -614z" />
    <glyph glyph-name="Aacute.ss01" horiz-adv-x="1214" 
d="M442 1391q-23 20 -26 51l334 221q31 -18 44 -42t15 -62zM657 1315q280 -559 508 -1305q-27 -16 -71 -16q-36 0 -50 4q-53 185 -124 399h-633q-65 -205 -117 -397q-24 -6 -47 -6q-41 0 -72 16q212 735 492 1305q24 8 57 8t57 -8zM319 496h566q-116 322 -258 614l-31 72
l-29 -72q-136 -285 -248 -614z" />
    <glyph glyph-name="Abreve.ss01" horiz-adv-x="1214" 
d="M602 1413q-109 0 -183 63.5t-83 161.5q44 16 86 11q15 -67 65 -105.5t117 -38.5q68 0 120.5 39.5t61.5 104.5q41 5 82 -11q-6 -94 -81.5 -159.5t-184.5 -65.5zM657 1315q280 -559 508 -1305q-27 -16 -71 -16q-36 0 -50 4q-53 185 -124 399h-633q-65 -205 -117 -397
q-24 -6 -47 -6q-41 0 -72 16q212 735 492 1305q24 8 57 8t57 -8zM319 496h566q-116 322 -258 614l-31 72l-29 -72q-136 -285 -248 -614z" />
    <glyph glyph-name="Acircumflex.ss01" horiz-adv-x="1214" 
d="M377 1389q-33 20 -41 59l223 197q43 12 84 0l223 -195q-11 -40 -41 -61l-229 163zM657 1315q280 -559 508 -1305q-27 -16 -71 -16q-36 0 -50 4q-53 185 -124 399h-633q-65 -205 -117 -397q-24 -6 -47 -6q-41 0 -72 16q212 735 492 1305q24 8 57 8t57 -8zM319 496h566
q-116 322 -258 614l-31 72l-29 -72q-136 -285 -248 -614z" />
    <glyph glyph-name="Adieresis.ss01" horiz-adv-x="1214" 
d="M401 1452q-36 0 -61 24t-25 60q0 34 25 58t61 24q34 0 57 -24t23 -58q0 -36 -23 -60t-57 -24zM803 1452q-34 0 -58 24t-24 60q0 34 23.5 58t58.5 24q34 0 58 -24t24 -58q0 -36 -24 -60t-58 -24zM657 1315q280 -559 508 -1305q-27 -16 -71 -16q-36 0 -50 4
q-53 185 -124 399h-633q-65 -205 -117 -397q-24 -6 -47 -6q-41 0 -72 16q212 735 492 1305q24 8 57 8t57 -8zM319 496h566q-116 322 -258 614l-31 72l-29 -72q-136 -285 -248 -614z" />
    <glyph glyph-name="Agrave.ss01" horiz-adv-x="1214" 
d="M776 1442q-3 -32 -24 -51l-369 168q3 70 59 104zM657 1315q280 -559 508 -1305q-27 -16 -71 -16q-36 0 -50 4q-53 185 -124 399h-633q-65 -205 -117 -397q-24 -6 -47 -6q-41 0 -72 16q212 735 492 1305q24 8 57 8t57 -8zM319 496h566q-116 322 -258 614l-31 72l-29 -72
q-136 -285 -248 -614z" />
    <glyph glyph-name="Amacron.ss01" horiz-adv-x="1214" 
d="M866 1475h-530q-6 21 -6 49q0 3 6 45h530q6 -14 6 -45q0 -33 -6 -49zM657 1315q280 -559 508 -1305q-27 -16 -71 -16q-36 0 -50 4q-53 185 -124 399h-633q-65 -205 -117 -397q-24 -6 -47 -6q-41 0 -72 16q212 735 492 1305q24 8 57 8t57 -8zM319 496h566
q-116 322 -258 614l-31 72l-29 -72q-136 -285 -248 -614z" />
    <glyph glyph-name="Aogonek.ss01" horiz-adv-x="1214" 
d="M1225 -238q41 -25 41 -75q-70 -62 -181 -62q-72 0 -116.5 39.5t-44.5 108.5q0 114 118 227h2q-49 171 -124 397h-633q-65 -205 -117 -397q-24 -6 -47 -6q-41 0 -72 16q212 735 492 1305q24 8 57 8t57 -8q280 -559 508 -1305q-133 -100 -133 -200q0 -44 24.5 -65t59.5 -21
q62 0 109 38zM319 496h566q-116 322 -258 614l-31 72l-29 -72q-136 -285 -248 -614z" />
    <glyph glyph-name="Aring.ss01" horiz-adv-x="1214" 
d="M604 1341q-78 0 -133 55.5t-55 133.5q0 77 55 131.5t133 54.5q77 0 132 -55t55 -131q0 -78 -55 -133.5t-132 -55.5zM604 1638q-45 0 -74.5 -32t-29.5 -76t29.5 -76.5t74.5 -32.5t74 32.5t29 76.5t-29 76t-74 32zM657 1315q280 -559 508 -1305q-27 -16 -71 -16
q-36 0 -50 4q-53 185 -124 399h-633q-65 -205 -117 -397q-24 -6 -47 -6q-41 0 -72 16q212 735 492 1305q24 8 57 8t57 -8zM319 496h566q-116 322 -258 614l-31 72l-29 -72q-136 -285 -248 -614z" />
    <glyph glyph-name="Atilde.ss01" horiz-adv-x="1214" 
d="M473 1518q-97 0 -123 -91q-24 0 -49 9.5t-37 21.5q23 75 76.5 116.5t128.5 41.5q52 0 140 -43t122 -43q95 0 121 90q25 0 50.5 -9t35.5 -22q-23 -75 -76 -116t-125 -41q-43 0 -94 21.5t-96 43t-74 21.5zM657 1315q280 -559 508 -1305q-27 -16 -71 -16q-36 0 -50 4
q-53 185 -124 399h-633q-65 -205 -117 -397q-24 -6 -47 -6q-41 0 -72 16q212 735 492 1305q24 8 57 8t57 -8zM319 496h566q-116 322 -258 614l-31 72l-29 -72q-136 -285 -248 -614z" />
    <glyph glyph-name="E.ss01" horiz-adv-x="1001" 
d="M901 178q40 -27 49 -86q-149 -112 -377 -112q-216 0 -337 96t-121 276q0 125 68.5 213t185.5 129q-96 37 -149.5 112t-53.5 187q0 155 110.5 250.5t286.5 95.5q184 0 311 -84q-6 -57 -47 -92q-119 72 -260 72q-134 0 -212.5 -65.5t-78.5 -176.5q0 -113 82 -181.5
t252 -68.5h131q7 -25 7 -49q0 -25 -7 -53h-153q-173 0 -266 -77t-93 -206t89.5 -202.5t256.5 -73.5q104 0 180.5 22.5t145.5 73.5z" />
    <glyph glyph-name="Eacute.ss01" horiz-adv-x="1001" 
d="M387 1391q-24 21 -27 51l334 221q32 -18 45 -42t15 -62zM901 178q40 -27 49 -86q-149 -112 -377 -112q-216 0 -337 96t-121 276q0 125 68.5 213t185.5 129q-96 37 -149.5 112t-53.5 187q0 155 110.5 250.5t286.5 95.5q184 0 311 -84q-6 -57 -47 -92q-119 72 -260 72
q-134 0 -212.5 -65.5t-78.5 -176.5q0 -113 82 -181.5t252 -68.5h131q7 -25 7 -49q0 -25 -7 -53h-153q-173 0 -266 -77t-93 -206t89.5 -202.5t256.5 -73.5q104 0 180.5 22.5t145.5 73.5z" />
    <glyph glyph-name="Ecaron.ss01" horiz-adv-x="1001" 
d="M590 1399q-44 -12 -84 0l-223 194q12 39 43 62l227 -166l219 166q33 -23 41 -62zM901 178q40 -27 49 -86q-149 -112 -377 -112q-216 0 -337 96t-121 276q0 125 68.5 213t185.5 129q-96 37 -149.5 112t-53.5 187q0 155 110.5 250.5t286.5 95.5q184 0 311 -84
q-6 -57 -47 -92q-119 72 -260 72q-134 0 -212.5 -65.5t-78.5 -176.5q0 -113 82 -181.5t252 -68.5h131q7 -25 7 -49q0 -25 -7 -53h-153q-173 0 -266 -77t-93 -206t89.5 -202.5t256.5 -73.5q104 0 180.5 22.5t145.5 73.5z" />
    <glyph glyph-name="Ecircumflex.ss01" horiz-adv-x="1001" 
d="M322 1389q-33 20 -41 59l223 197q44 12 84 0l223 -195q-11 -40 -41 -61l-229 163zM901 178q40 -27 49 -86q-149 -112 -377 -112q-216 0 -337 96t-121 276q0 125 68.5 213t185.5 129q-96 37 -149.5 112t-53.5 187q0 155 110.5 250.5t286.5 95.5q184 0 311 -84
q-6 -57 -47 -92q-119 72 -260 72q-134 0 -212.5 -65.5t-78.5 -176.5q0 -113 82 -181.5t252 -68.5h131q7 -25 7 -49q0 -25 -7 -53h-153q-173 0 -266 -77t-93 -206t89.5 -202.5t256.5 -73.5q104 0 180.5 22.5t145.5 73.5z" />
    <glyph glyph-name="Edieresis.ss01" horiz-adv-x="1001" 
d="M346 1452q-36 0 -61 24t-25 60q0 34 25 58t61 24q34 0 57 -24t23 -58q0 -36 -23 -60t-57 -24zM748 1452q-34 0 -58 24t-24 60q0 34 23.5 58t58.5 24q34 0 57.5 -24t23.5 -58q0 -36 -23.5 -60t-57.5 -24zM901 178q40 -27 49 -86q-149 -112 -377 -112q-216 0 -337 96
t-121 276q0 125 68.5 213t185.5 129q-96 37 -149.5 112t-53.5 187q0 155 110.5 250.5t286.5 95.5q184 0 311 -84q-6 -57 -47 -92q-119 72 -260 72q-134 0 -212.5 -65.5t-78.5 -176.5q0 -113 82 -181.5t252 -68.5h131q7 -25 7 -49q0 -25 -7 -53h-153q-173 0 -266 -77
t-93 -206t89.5 -202.5t256.5 -73.5q104 0 180.5 22.5t145.5 73.5z" />
    <glyph glyph-name="Edotaccent.ss01" horiz-adv-x="1001" 
d="M547 1452q-37 0 -62.5 24.5t-25.5 61.5t25.5 62.5t62.5 25.5q35 0 60.5 -25.5t25.5 -62.5q0 -36 -25 -61t-61 -25zM901 178q40 -27 49 -86q-149 -112 -377 -112q-216 0 -337 96t-121 276q0 125 68.5 213t185.5 129q-96 37 -149.5 112t-53.5 187q0 155 110.5 250.5
t286.5 95.5q184 0 311 -84q-6 -57 -47 -92q-119 72 -260 72q-134 0 -212.5 -65.5t-78.5 -176.5q0 -113 82 -181.5t252 -68.5h131q7 -25 7 -49q0 -25 -7 -53h-153q-173 0 -266 -77t-93 -206t89.5 -202.5t256.5 -73.5q104 0 180.5 22.5t145.5 73.5z" />
    <glyph glyph-name="Egrave.ss01" horiz-adv-x="1001" 
d="M719 1442q-3 -32 -25 -51l-368 168q3 70 59 104zM901 178q40 -27 49 -86q-149 -112 -377 -112q-216 0 -337 96t-121 276q0 125 68.5 213t185.5 129q-96 37 -149.5 112t-53.5 187q0 155 110.5 250.5t286.5 95.5q184 0 311 -84q-6 -57 -47 -92q-119 72 -260 72
q-134 0 -212.5 -65.5t-78.5 -176.5q0 -113 82 -181.5t252 -68.5h131q7 -25 7 -49q0 -25 -7 -53h-153q-173 0 -266 -77t-93 -206t89.5 -202.5t256.5 -73.5q104 0 180.5 22.5t145.5 73.5z" />
    <glyph glyph-name="Emacron.ss01" horiz-adv-x="1001" 
d="M811 1475h-530q-7 24 -7 49q0 8 3.5 25.5t3.5 19.5h530q6 -14 6 -45q0 -33 -6 -49zM901 178q40 -27 49 -86q-149 -112 -377 -112q-216 0 -337 96t-121 276q0 125 68.5 213t185.5 129q-96 37 -149.5 112t-53.5 187q0 155 110.5 250.5t286.5 95.5q184 0 311 -84
q-6 -57 -47 -92q-119 72 -260 72q-134 0 -212.5 -65.5t-78.5 -176.5q0 -113 82 -181.5t252 -68.5h131q7 -25 7 -49q0 -25 -7 -53h-153q-173 0 -266 -77t-93 -206t89.5 -202.5t256.5 -73.5q104 0 180.5 22.5t145.5 73.5z" />
    <glyph glyph-name="Eogonek.ss01" horiz-adv-x="1001" 
d="M901 -238q16 -11 28.5 -31t12.5 -44q-73 -62 -182 -62q-71 0 -116.5 39.5t-45.5 108.5q0 106 117 219q-65 -12 -142 -12q-216 0 -337 96t-121 276q0 125 68.5 213t185.5 129q-96 37 -149.5 112t-53.5 187q0 155 110.5 250.5t286.5 95.5q184 0 311 -84q-6 -57 -47 -92
q-119 72 -260 72q-134 0 -212.5 -65.5t-78.5 -176.5q0 -113 82 -181.5t252 -68.5h131q7 -25 7 -49q0 -25 -7 -53h-153q-173 0 -266 -77t-93 -206t89.5 -202.5t256.5 -73.5q104 0 180.5 22.5t145.5 73.5q40 -27 49 -86q-48 -34 -78 -47q-71 -58 -117 -124t-46 -120
q0 -39 24 -58t58 -19q55 0 110 38z" />
    <glyph glyph-name="Q.ss02" horiz-adv-x="1495" 
d="M1384 659q0 -174 -67 -320t-187 -239l158 -200q-12 -27 -36 -46.5t-52 -23.5l-166 209q-135 -66 -286 -66q-187 0 -333 89.5t-225 245.5t-79 351q0 193 79 349.5t225 248t333 91.5t332.5 -89t224.5 -246t79 -354zM748 80q121 0 219 45l-140 176q34 45 91 66l145 -183
q97 77 150 199.5t53 275.5q0 259 -141 420.5t-377 161.5q-237 0 -378 -161.5t-141 -420.5q0 -256 141.5 -417.5t377.5 -161.5z" />
    <glyph glyph-name="a.ss01" horiz-adv-x="1150" 
d="M956 250q0 -77 23 -109.5t86 -62.5q0 -28 -16.5 -54.5t-36.5 -37.5q-122 38 -152 137q-126 -148 -321 -148q-92 0 -170 29t-138.5 86t-94.5 150t-34 213t39 221.5t106.5 170t159 106.5t195.5 38q209 0 354 -106v-633zM551 80q91 0 170 48.5t123 133.5v557
q-102 64 -242 64q-167 0 -275 -114.5t-108 -315.5q0 -179 91 -276t241 -97z" />
    <glyph glyph-name="aacute.ss01" horiz-adv-x="1150" 
d="M426 1077q-27 16 -35 47l293 271q49 -25 74 -95zM956 250q0 -77 23 -109.5t86 -62.5q0 -28 -16.5 -54.5t-36.5 -37.5q-122 38 -152 137q-126 -148 -321 -148q-92 0 -170 29t-138.5 86t-94.5 150t-34 213t39 221.5t106.5 170t159 106.5t195.5 38q209 0 354 -106v-633z
M551 80q91 0 170 48.5t123 133.5v557q-102 64 -242 64q-167 0 -275 -114.5t-108 -315.5q0 -179 91 -276t241 -97z" />
    <glyph glyph-name="abreve.ss01" horiz-adv-x="1150" 
d="M573 1096q-117 0 -187.5 70.5t-78.5 185.5q39 16 84 10q12 -85 59.5 -130.5t124.5 -45.5q75 0 125.5 46.5t57.5 129.5q49 3 82 -10q-5 -110 -77.5 -183t-189.5 -73zM956 250q0 -77 23 -109.5t86 -62.5q0 -28 -16.5 -54.5t-36.5 -37.5q-122 38 -152 137
q-126 -148 -321 -148q-92 0 -170 29t-138.5 86t-94.5 150t-34 213t39 221.5t106.5 170t159 106.5t195.5 38q209 0 354 -106v-633zM551 80q91 0 170 48.5t123 133.5v557q-102 64 -242 64q-167 0 -275 -114.5t-108 -315.5q0 -179 91 -276t241 -97z" />
    <glyph glyph-name="acircumflex.ss01" horiz-adv-x="1150" 
d="M365 1087q-41 16 -56 60l223 231q41 9 82 0l222 -231q-18 -48 -60 -64l-207 193zM956 250q0 -77 23 -109.5t86 -62.5q0 -28 -16.5 -54.5t-36.5 -37.5q-122 38 -152 137q-126 -148 -321 -148q-92 0 -170 29t-138.5 86t-94.5 150t-34 213t39 221.5t106.5 170t159 106.5
t195.5 38q209 0 354 -106v-633zM551 80q91 0 170 48.5t123 133.5v557q-102 64 -242 64q-167 0 -275 -114.5t-108 -315.5q0 -179 91 -276t241 -97z" />
    <glyph glyph-name="adieresis.ss01" horiz-adv-x="1150" 
d="M369 1149q-36 0 -61 24t-25 60q0 35 24.5 59.5t61.5 24.5q35 0 59.5 -24.5t24.5 -59.5q0 -36 -24 -60t-60 -24zM778 1149q-36 0 -61 24t-25 60q0 35 24.5 59.5t61.5 24.5q34 0 59 -24.5t25 -59.5q0 -36 -25 -60t-59 -24zM956 250q0 -77 23 -109.5t86 -62.5
q0 -28 -16.5 -54.5t-36.5 -37.5q-122 38 -152 137q-126 -148 -321 -148q-92 0 -170 29t-138.5 86t-94.5 150t-34 213t39 221.5t106.5 170t159 106.5t195.5 38q209 0 354 -106v-633zM551 80q91 0 170 48.5t123 133.5v557q-102 64 -242 64q-167 0 -275 -114.5t-108 -315.5
q0 -179 91 -276t241 -97z" />
    <glyph glyph-name="agrave.ss01" horiz-adv-x="1150" 
d="M737 1124q-5 -28 -32 -47l-332 223q13 38 28.5 59.5t44.5 35.5zM956 250q0 -77 23 -109.5t86 -62.5q0 -28 -16.5 -54.5t-36.5 -37.5q-122 38 -152 137q-126 -148 -321 -148q-92 0 -170 29t-138.5 86t-94.5 150t-34 213t39 221.5t106.5 170t159 106.5t195.5 38
q209 0 354 -106v-633zM551 80q91 0 170 48.5t123 133.5v557q-102 64 -242 64q-167 0 -275 -114.5t-108 -315.5q0 -179 91 -276t241 -97z" />
    <glyph glyph-name="amacron.ss01" horiz-adv-x="1150" 
d="M831 1165h-518q-6 14 -6 47q0 27 6 48h518q9 -24 9 -48q0 -23 -9 -47zM956 250q0 -77 23 -109.5t86 -62.5q0 -28 -16.5 -54.5t-36.5 -37.5q-122 38 -152 137q-126 -148 -321 -148q-92 0 -170 29t-138.5 86t-94.5 150t-34 213t39 221.5t106.5 170t159 106.5t195.5 38
q209 0 354 -106v-633zM551 80q91 0 170 48.5t123 133.5v557q-102 64 -242 64q-167 0 -275 -114.5t-108 -315.5q0 -179 91 -276t241 -97z" />
    <glyph glyph-name="aogonek.ss01" horiz-adv-x="1155" 
d="M1010 -238q17 -10 30 -30t13 -43q-72 -64 -172 -64q-75 0 -123.5 42.5t-48.5 111.5q0 82 60 150t161 114q-47 28 -68 82q-126 -150 -334 -150q-89 0 -164.5 28.5t-134.5 85.5t-92 150.5t-33 215.5q0 120 39.5 221.5t106.5 169t157 105.5t191 38q215 0 360 -106v-633
q0 -67 22.5 -98t82.5 -37q1 -30 -8 -61t-21 -44q-108 -36 -161.5 -91.5t-53.5 -113.5q0 -40 25 -60.5t61 -20.5q57 0 105 38zM543 80q92 0 173 46.5t130 131.5v561q-99 64 -248 64q-162 0 -269.5 -114t-107.5 -314q0 -179 88.5 -277t233.5 -98z" />
    <glyph glyph-name="aring.ss01" horiz-adv-x="1150" 
d="M573 1044q-78 0 -133 56t-55 133q0 78 55 133t133 55q77 0 132 -55t55 -133q0 -77 -55.5 -133t-131.5 -56zM573 1343q-45 0 -75.5 -32.5t-30.5 -77.5q0 -44 30.5 -76.5t75.5 -32.5q46 0 76.5 32.5t30.5 76.5q0 45 -30.5 77.5t-76.5 32.5zM956 250q0 -77 23 -109.5
t86 -62.5q0 -28 -16.5 -54.5t-36.5 -37.5q-122 38 -152 137q-126 -148 -321 -148q-92 0 -170 29t-138.5 86t-94.5 150t-34 213t39 221.5t106.5 170t159 106.5t195.5 38q209 0 354 -106v-633zM551 80q91 0 170 48.5t123 133.5v557q-102 64 -242 64q-167 0 -275 -114.5
t-108 -315.5q0 -179 91 -276t241 -97z" />
    <glyph glyph-name="atilde.ss01" horiz-adv-x="1150" 
d="M444 1235q-83 0 -112 -92q-24 0 -50 9.5t-38 21.5q23 75 73.5 116t118.5 41q45 0 96.5 -21.5t97.5 -43t77 -21.5q83 0 112 90q54 0 84 -30q-22 -73 -72 -114.5t-116 -41.5q-56 0 -145.5 43t-125.5 43zM956 250q0 -77 23 -109.5t86 -62.5q0 -28 -16.5 -54.5t-36.5 -37.5
q-122 38 -152 137q-126 -148 -321 -148q-92 0 -170 29t-138.5 86t-94.5 150t-34 213t39 221.5t106.5 170t159 106.5t195.5 38q209 0 354 -106v-633zM551 80q91 0 170 48.5t123 133.5v557q-102 64 -242 64q-167 0 -275 -114.5t-108 -315.5q0 -179 91 -276t241 -97z" />
    <glyph glyph-name="e.ss01" horiz-adv-x="1034" 
d="M870 197q48 -28 60 -84q-149 -138 -359 -138q-97 0 -180.5 30t-149 88.5t-102.5 154t-37 217.5q0 117 38 216t102.5 165.5t150 103.5t180.5 37q165 0 261 -82.5t96 -208.5q0 -276 -393 -276q-173 0 -318 61v-14q0 -185 97 -285t257 -100q59 0 108.5 11t86.5 31.5
t57.5 35.5t44.5 37zM573 885q-132 0 -225 -83.5t-119 -228.5q141 -57 310 -57q137 0 206.5 41t69.5 133q0 79 -63 137t-179 58z" />
    <glyph glyph-name="eacute.ss01" horiz-adv-x="1034" 
d="M399 1077q-16 10 -22.5 19.5t-11.5 27.5l292 271q49 -25 74 -95zM870 197q48 -28 60 -84q-149 -138 -359 -138q-97 0 -180.5 30t-149 88.5t-102.5 154t-37 217.5q0 117 38 216t102.5 165.5t150 103.5t180.5 37q165 0 261 -82.5t96 -208.5q0 -276 -393 -276
q-173 0 -318 61v-14q0 -185 97 -285t257 -100q59 0 108.5 11t86.5 31.5t57.5 35.5t44.5 37zM573 885q-132 0 -225 -83.5t-119 -228.5q141 -57 310 -57q137 0 206.5 41t69.5 133q0 79 -63 137t-179 58z" />
    <glyph glyph-name="ecaron.ss01" horiz-adv-x="1034" 
d="M586 1094q-41 -9 -82 0l-217 229q15 49 55 66l207 -195l207 190q43 -17 57 -61zM870 197q48 -28 60 -84q-149 -138 -359 -138q-97 0 -180.5 30t-149 88.5t-102.5 154t-37 217.5q0 117 38 216t102.5 165.5t150 103.5t180.5 37q165 0 261 -82.5t96 -208.5q0 -276 -393 -276
q-173 0 -318 61v-14q0 -185 97 -285t257 -100q59 0 108.5 11t86.5 31.5t57.5 35.5t44.5 37zM573 885q-132 0 -225 -83.5t-119 -228.5q141 -57 310 -57q137 0 206.5 41t69.5 133q0 79 -63 137t-179 58z" />
    <glyph glyph-name="ecircumflex.ss01" horiz-adv-x="1034" 
d="M338 1087q-40 16 -55 60l223 231q41 9 82 0l221 -231q-18 -48 -59 -64l-207 193zM870 197q48 -28 60 -84q-149 -138 -359 -138q-97 0 -180.5 30t-149 88.5t-102.5 154t-37 217.5q0 117 38 216t102.5 165.5t150 103.5t180.5 37q165 0 261 -82.5t96 -208.5
q0 -276 -393 -276q-173 0 -318 61v-14q0 -185 97 -285t257 -100q59 0 108.5 11t86.5 31.5t57.5 35.5t44.5 37zM573 885q-132 0 -225 -83.5t-119 -228.5q141 -57 310 -57q137 0 206.5 41t69.5 133q0 79 -63 137t-179 58z" />
    <glyph glyph-name="edieresis.ss01" horiz-adv-x="1034" 
d="M342 1149q-36 0 -61 24t-25 60q0 35 24.5 59.5t61.5 24.5q35 0 59.5 -24.5t24.5 -59.5q0 -36 -24 -60t-60 -24zM752 1149q-36 0 -61 24t-25 60q0 35 24.5 59.5t61.5 24.5q34 0 59 -24.5t25 -59.5q0 -36 -25 -60t-59 -24zM870 197q48 -28 60 -84q-149 -138 -359 -138
q-97 0 -180.5 30t-149 88.5t-102.5 154t-37 217.5q0 117 38 216t102.5 165.5t150 103.5t180.5 37q165 0 261 -82.5t96 -208.5q0 -276 -393 -276q-173 0 -318 61v-14q0 -185 97 -285t257 -100q59 0 108.5 11t86.5 31.5t57.5 35.5t44.5 37zM573 885q-132 0 -225 -83.5
t-119 -228.5q141 -57 310 -57q137 0 206.5 41t69.5 133q0 79 -63 137t-179 58z" />
    <glyph glyph-name="edotaccent.ss01" horiz-adv-x="1034" 
d="M547 1157q-37 0 -64.5 26t-27.5 64q0 37 27 63.5t65 26.5q37 0 62.5 -26.5t25.5 -63.5q0 -38 -25.5 -64t-62.5 -26zM870 197q48 -28 60 -84q-149 -138 -359 -138q-97 0 -180.5 30t-149 88.5t-102.5 154t-37 217.5q0 117 38 216t102.5 165.5t150 103.5t180.5 37
q165 0 261 -82.5t96 -208.5q0 -276 -393 -276q-173 0 -318 61v-14q0 -185 97 -285t257 -100q59 0 108.5 11t86.5 31.5t57.5 35.5t44.5 37zM573 885q-132 0 -225 -83.5t-119 -228.5q141 -57 310 -57q137 0 206.5 41t69.5 133q0 79 -63 137t-179 58z" />
    <glyph glyph-name="egrave.ss01" horiz-adv-x="1034" 
d="M711 1124q-5 -27 -33 -47l-332 223q13 37 29 59t45 36zM870 197q48 -28 60 -84q-149 -138 -359 -138q-97 0 -180.5 30t-149 88.5t-102.5 154t-37 217.5q0 117 38 216t102.5 165.5t150 103.5t180.5 37q165 0 261 -82.5t96 -208.5q0 -276 -393 -276q-173 0 -318 61v-14
q0 -185 97 -285t257 -100q59 0 108.5 11t86.5 31.5t57.5 35.5t44.5 37zM573 885q-132 0 -225 -83.5t-119 -228.5q141 -57 310 -57q137 0 206.5 41t69.5 133q0 79 -63 137t-179 58z" />
    <glyph glyph-name="emacron.ss01" horiz-adv-x="1034" 
d="M805 1165h-518q-6 14 -6 47q0 27 6 48h518q8 -21 8 -48q0 -26 -8 -47zM870 197q48 -28 60 -84q-149 -138 -359 -138q-97 0 -180.5 30t-149 88.5t-102.5 154t-37 217.5q0 117 38 216t102.5 165.5t150 103.5t180.5 37q165 0 261 -82.5t96 -208.5q0 -276 -393 -276
q-173 0 -318 61v-14q0 -185 97 -285t257 -100q59 0 108.5 11t86.5 31.5t57.5 35.5t44.5 37zM573 885q-132 0 -225 -83.5t-119 -228.5q141 -57 310 -57q137 0 206.5 41t69.5 133q0 79 -63 137t-179 58z" />
    <glyph glyph-name="eogonek.ss01" horiz-adv-x="1034" 
d="M866 61q-79 -60 -132.5 -131t-53.5 -129q0 -39 24 -58t58 -19q55 0 110 38q16 -11 28.5 -31t12.5 -44q-73 -62 -182 -62q-71 0 -116.5 39.5t-45.5 108.5q0 100 109 213q-60 -11 -107 -11q-97 0 -180.5 30t-149 88.5t-102.5 154t-37 217.5q0 117 38 216t102.5 165.5
t150 103.5t180.5 37q165 0 261 -82.5t96 -208.5q0 -276 -393 -276q-173 0 -318 61v-14q0 -185 97 -285t257 -100q59 0 108.5 11t86.5 31.5t57.5 35.5t44.5 37q48 -28 60 -84q-44 -39 -64 -52zM573 885q-132 0 -225 -83.5t-119 -228.5q141 -57 310 -57q137 0 206.5 41
t69.5 133q0 79 -63 137t-179 58z" />
    <glyph glyph-name="g.ss01" horiz-adv-x="1124" 
d="M600 989q103 0 198.5 -34.5t164.5 -90.5v-856q0 -184 -124.5 -295.5t-324.5 -111.5q-152 0 -231.5 64t-79.5 175q0 168 215 250q-145 43 -231.5 153t-86.5 271q0 107 39.5 197t107.5 150.5t159.5 94t193.5 33.5zM219 514q0 -163 104 -254.5t275 -91.5q138 0 252 88v547
q-99 80 -248 80q-169 0 -276 -103t-107 -266zM514 -297q153 0 244.5 83.5t91.5 221.5v127q-80 -51 -186 -63q-189 -33 -269 -87t-80 -137q0 -73 53 -109t146 -36z" />
    <glyph glyph-name="gbreve.ss01" horiz-adv-x="1124" 
d="M561 1096q-117 0 -187.5 70.5t-78.5 185.5q39 16 84 10q12 -85 59.5 -130.5t124.5 -45.5q75 0 125 46.5t57 129.5q49 3 82 -10q-5 -110 -77 -183t-189 -73zM600 989q103 0 198.5 -34.5t164.5 -90.5v-856q0 -184 -124.5 -295.5t-324.5 -111.5q-152 0 -231.5 64t-79.5 175
q0 168 215 250q-145 43 -231.5 153t-86.5 271q0 107 39.5 197t107.5 150.5t159.5 94t193.5 33.5zM219 514q0 -163 104 -254.5t275 -91.5q138 0 252 88v547q-99 80 -248 80q-169 0 -276 -103t-107 -266zM514 -297q153 0 244.5 83.5t91.5 221.5v127q-80 -51 -186 -63
q-189 -33 -269 -87t-80 -137q0 -73 53 -109t146 -36z" />
    <glyph glyph-name="gcommaaccent.ss01" horiz-adv-x="1124" 
d="M553 1040q-32 0 -53 9q-11 42 -11 90q0 75 36 142.5t96 107.5q25 -6 36 -39q-63 -63 -63 -183q0 -58 20 -116q-22 -11 -61 -11zM600 989q103 0 198.5 -34.5t164.5 -90.5v-856q0 -184 -124.5 -295.5t-324.5 -111.5q-152 0 -231.5 64t-79.5 175q0 168 215 250
q-145 43 -231.5 153t-86.5 271q0 107 39.5 197t107.5 150.5t159.5 94t193.5 33.5zM219 514q0 -163 104 -254.5t275 -91.5q138 0 252 88v547q-99 80 -248 80q-169 0 -276 -103t-107 -266zM514 -297q153 0 244.5 83.5t91.5 221.5v127q-80 -51 -186 -63q-189 -33 -269 -87
t-80 -137q0 -73 53 -109t146 -36z" />
    <glyph glyph-name="gdotaccent.ss01" horiz-adv-x="1124" 
d="M561 1157q-37 0 -64.5 26t-27.5 64q0 37 27 63.5t65 26.5q37 0 62.5 -26.5t25.5 -63.5q0 -38 -25.5 -64t-62.5 -26zM600 989q103 0 198.5 -34.5t164.5 -90.5v-856q0 -184 -124.5 -295.5t-324.5 -111.5q-152 0 -231.5 64t-79.5 175q0 168 215 250q-145 43 -231.5 153
t-86.5 271q0 107 39.5 197t107.5 150.5t159.5 94t193.5 33.5zM219 514q0 -163 104 -254.5t275 -91.5q138 0 252 88v547q-99 80 -248 80q-169 0 -276 -103t-107 -266zM514 -297q153 0 244.5 83.5t91.5 221.5v127q-80 -51 -186 -63q-189 -33 -269 -87t-80 -137q0 -73 53 -109
t146 -36z" />
    <glyph glyph-name="k.ss01" horiz-adv-x="1077" 
d="M680 377l321 -375q-42 -10 -88 -10q-37 0 -57 4l-276 330q-23 28 -30 50.5t-7 59.5q149 34 227 92t78 164q0 87 -59 140t-158 53q-145 0 -247.5 -94.5t-102.5 -237.5v-553q-24 -6 -56 -6q-30 0 -57 6v1346q27 6 57 6q32 0 56 -6v-547q60 91 153 139.5t207 48.5
q154 0 238 -78.5t84 -206.5q0 -121 -75.5 -203t-207.5 -122z" />
    <glyph glyph-name="kcommaaccent.ss01" horiz-adv-x="1077" 
d="M680 377l321 -375q-42 -10 -88 -10q-37 0 -57 4l-276 330q-23 28 -30 50.5t-7 59.5q149 34 227 92t78 164q0 87 -59 140t-158 53q-145 0 -247.5 -94.5t-102.5 -237.5v-553q-24 -6 -56 -6q-30 0 -57 6v1346q27 6 57 6q32 0 56 -6v-547q60 91 153 139.5t207 48.5
q154 0 238 -78.5t84 -206.5q0 -121 -75.5 -203t-207.5 -122zM504 -80q34 0 53 -8q10 -38 10 -90q0 -75 -36 -142.5t-95 -107.5q-26 7 -37 39q64 64 64 182q0 51 -19 117q17 10 60 10z" />
    <glyph glyph-name="l.ss01" horiz-adv-x="606" 
d="M391 -16q-96 0 -163.5 55t-67.5 162v1147q24 8 57 8t57 -8v-1133q0 -65 36.5 -97t92.5 -32q41 0 71.5 15.5t62.5 50.5q51 -25 65 -80q-83 -88 -211 -88z" />
    <glyph glyph-name="lacute.ss01" horiz-adv-x="606" 
d="M72 1391q-24 21 -27 51l334 221q31 -18 44 -42t15 -62zM391 -16q-96 0 -163.5 55t-67.5 162v1147q24 8 57 8t57 -8v-1133q0 -65 36.5 -97t92.5 -32q41 0 71.5 15.5t62.5 50.5q51 -25 65 -80q-83 -88 -211 -88z" />
    <glyph glyph-name="lcaron.ss01" horiz-adv-x="606" 
d="M432 1085q-31 6 -45 29q20 39 29.5 98t9.5 99q0 77 -18 127q18 14 59 14q31 0 49 -12q12 -36 12 -86q0 -77 -27.5 -151t-68.5 -118zM391 -16q-96 0 -163.5 55t-67.5 162v1147q24 8 57 8t57 -8v-1133q0 -65 36.5 -97t92.5 -32q41 0 71.5 15.5t62.5 50.5q51 -25 65 -80
q-83 -88 -211 -88z" />
    <glyph glyph-name="lcommaaccent.ss01" horiz-adv-x="606" 
d="M391 -16q-96 0 -163.5 55t-67.5 162v1147q24 8 57 8t57 -8v-1133q0 -65 36.5 -97t92.5 -32q41 0 71.5 15.5t62.5 50.5q51 -25 65 -80q-83 -88 -211 -88zM301 -428q-26 7 -37 39q64 64 64 182q0 51 -19 117q17 10 60 10q34 0 53 -8q10 -38 10 -90q0 -75 -36 -142.5
t-95 -107.5z" />
    <glyph glyph-name="ldot.ss01" horiz-adv-x="573" 
d="M391 -16q-96 0 -163.5 55t-67.5 162v1147q24 8 57 8t57 -8v-1133q0 -65 36.5 -97t92.5 -32q41 0 71.5 15.5t62.5 50.5q51 -25 65 -80q-83 -88 -211 -88zM479 588q-38 0 -66 27t-28 65t28 65t66 27t65 -27t27 -65t-27 -65t-65 -27z" />
    <glyph glyph-name="lslash.ss01" horiz-adv-x="606" 
d="M537 152q51 -25 65 -80q-83 -88 -211 -88q-96 0 -163.5 55t-67.5 162v407l-125 -63q-36 29 -39 78l164 84v641q24 8 57 8t57 -8v-582l127 65q33 -29 39 -79l-166 -84v-453q0 -65 36.5 -97t92.5 -32q41 0 71.5 15.5t62.5 50.5z" />
    <glyph glyph-name="y.ss01" horiz-adv-x="1132" 
d="M907 965q27 0 58 -7v-950q0 -185 -122.5 -296t-320.5 -111q-149 0 -231 61t-82 166q0 170 213 248q-130 29 -198 120t-68 230v532q31 7 55 7q25 0 57 -7v-485q0 -75 14 -129.5t47 -98t93.5 -65.5t148.5 -22q162 0 281 78v722q31 7 55 7zM522 -297q150 0 240 84t90 221
v115q-91 -46 -180 -62q-4 0 -8 -2q-11 0 -27 -4q-167 -25 -239 -77t-72 -132q0 -69 52 -106t144 -37z" />
    <glyph glyph-name="yacute.ss01" horiz-adv-x="1132" 
d="M416 1077q-27 16 -35 47l293 271q49 -25 74 -95zM907 965q27 0 58 -7v-950q0 -185 -122.5 -296t-320.5 -111q-149 0 -231 61t-82 166q0 170 213 248q-130 29 -198 120t-68 230v532q31 7 55 7q25 0 57 -7v-485q0 -75 14 -129.5t47 -98t93.5 -65.5t148.5 -22q162 0 281 78
v722q31 7 55 7zM522 -297q150 0 240 84t90 221v115q-91 -46 -180 -62q-4 0 -8 -2q-11 0 -27 -4q-167 -25 -239 -77t-72 -132q0 -69 52 -106t144 -37z" />
    <glyph glyph-name="ycircumflex.ss01" horiz-adv-x="1132" 
d="M356 1087q-40 16 -55 60l223 231q41 9 82 0l221 -231q-18 -48 -59 -64l-207 193zM907 965q27 0 58 -7v-950q0 -185 -122.5 -296t-320.5 -111q-149 0 -231 61t-82 166q0 170 213 248q-130 29 -198 120t-68 230v532q31 7 55 7q25 0 57 -7v-485q0 -75 14 -129.5t47 -98
t93.5 -65.5t148.5 -22q162 0 281 78v722q31 7 55 7zM522 -297q150 0 240 84t90 221v115q-91 -46 -180 -62q-4 0 -8 -2q-11 0 -27 -4q-167 -25 -239 -77t-72 -132q0 -69 52 -106t144 -37z" />
    <glyph glyph-name="ydieresis.ss01" horiz-adv-x="1132" 
d="M360 1149q-36 0 -61 24t-25 60q0 35 24.5 59.5t61.5 24.5q35 0 59.5 -24.5t24.5 -59.5q0 -36 -24 -60t-60 -24zM770 1149q-36 0 -61 24t-25 60q0 35 24.5 59.5t61.5 24.5q34 0 59 -24.5t25 -59.5q0 -36 -25 -60t-59 -24zM907 965q27 0 58 -7v-950q0 -185 -122.5 -296
t-320.5 -111q-149 0 -231 61t-82 166q0 170 213 248q-130 29 -198 120t-68 230v532q31 7 55 7q25 0 57 -7v-485q0 -75 14 -129.5t47 -98t93.5 -65.5t148.5 -22q162 0 281 78v722q31 7 55 7zM522 -297q150 0 240 84t90 221v115q-91 -46 -180 -62q-4 0 -8 -2q-11 0 -27 -4
q-167 -25 -239 -77t-72 -132q0 -69 52 -106t144 -37z" />
    <glyph glyph-name="ygrave.ss01" horiz-adv-x="1132" 
d="M727 1124q-5 -27 -33 -47l-332 223q13 37 29 59t45 36zM907 965q27 0 58 -7v-950q0 -185 -122.5 -296t-320.5 -111q-149 0 -231 61t-82 166q0 170 213 248q-130 29 -198 120t-68 230v532q31 7 55 7q25 0 57 -7v-485q0 -75 14 -129.5t47 -98t93.5 -65.5t148.5 -22
q162 0 281 78v722q31 7 55 7zM522 -297q150 0 240 84t90 221v115q-91 -46 -180 -62q-4 0 -8 -2q-11 0 -27 -4q-167 -25 -239 -77t-72 -132q0 -69 52 -106t144 -37z" />
    <glyph glyph-name="a.ss02" horiz-adv-x="1030" 
d="M848 219q0 -65 21 -93t85 -48q-4 -71 -39 -96q-83 12 -124 50t-48 111l-8 9v2q-55 -90 -141 -134.5t-184 -44.5q-150 0 -237 78t-87 213q0 136 104 211.5t295 77.5h250v80q0 127 -72.5 187.5t-195.5 60.5q-146 0 -279 -101q-41 24 -59 80q48 46 139.5 86.5t204.5 40.5
q77 0 142 -19t118.5 -60t84 -113t30.5 -170v-408zM422 74q44 0 86 10.5t84 37.5t73 67.5t50.5 105.5t19.5 147v17l-250 -2q-282 0 -282 -189q0 -93 57 -143.5t162 -50.5z" />
    <glyph glyph-name="aacute.ss02" horiz-adv-x="1030" 
d="M322 1077q-27 16 -35 47l293 271q28 -14 44 -36.5t29 -58.5zM848 219q0 -65 21 -93t85 -48q-4 -71 -39 -96q-83 12 -124 50t-48 111l-8 9v2q-55 -90 -141 -134.5t-184 -44.5q-150 0 -237 78t-87 213q0 136 104 211.5t295 77.5h250v80q0 127 -72.5 187.5t-195.5 60.5
q-146 0 -279 -101q-41 24 -59 80q48 46 139.5 86.5t204.5 40.5q77 0 142 -19t118.5 -60t84 -113t30.5 -170v-408zM422 74q44 0 86 10.5t84 37.5t73 67.5t50.5 105.5t19.5 147v17l-250 -2q-282 0 -282 -189q0 -93 57 -143.5t162 -50.5z" />
    <glyph glyph-name="abreve.ss02" horiz-adv-x="1030" 
d="M469 1096q-117 0 -187.5 70.5t-78.5 185.5q39 16 84 10q12 -85 59.5 -130.5t124.5 -45.5q75 0 125 46.5t57 129.5q49 3 82 -10q-5 -110 -77 -183t-189 -73zM848 219q0 -65 21 -93t85 -48q-4 -71 -39 -96q-83 12 -124 50t-48 111l-8 9v2q-55 -90 -141 -134.5t-184 -44.5
q-150 0 -237 78t-87 213q0 136 104 211.5t295 77.5h250v80q0 127 -72.5 187.5t-195.5 60.5q-146 0 -279 -101q-41 24 -59 80q48 46 139.5 86.5t204.5 40.5q77 0 142 -19t118.5 -60t84 -113t30.5 -170v-408zM422 74q44 0 86 10.5t84 37.5t73 67.5t50.5 105.5t19.5 147v17
l-250 -2q-282 0 -282 -189q0 -93 57 -143.5t162 -50.5z" />
    <glyph glyph-name="acircumflex.ss02" horiz-adv-x="1030" 
d="M260 1087q-40 16 -55 60l223 231q41 9 82 0l221 -231q-18 -48 -59 -64l-207 193zM848 219q0 -65 21 -93t85 -48q-4 -71 -39 -96q-83 12 -124 50t-48 111l-8 9v2q-55 -90 -141 -134.5t-184 -44.5q-150 0 -237 78t-87 213q0 136 104 211.5t295 77.5h250v80
q0 127 -72.5 187.5t-195.5 60.5q-146 0 -279 -101q-41 24 -59 80q48 46 139.5 86.5t204.5 40.5q77 0 142 -19t118.5 -60t84 -113t30.5 -170v-408zM422 74q44 0 86 10.5t84 37.5t73 67.5t50.5 105.5t19.5 147v17l-250 -2q-282 0 -282 -189q0 -93 57 -143.5t162 -50.5z" />
    <glyph glyph-name="adieresis.ss02" horiz-adv-x="1030" 
d="M266 1149q-36 0 -61 24t-25 60q0 35 24.5 59.5t61.5 24.5q35 0 59.5 -24.5t24.5 -59.5q0 -36 -24 -60t-60 -24zM676 1149q-36 0 -61 24t-25 60q0 35 24.5 59.5t61.5 24.5q34 0 59 -24.5t25 -59.5q0 -36 -25 -60t-59 -24zM848 219q0 -65 21 -93t85 -48q-4 -71 -39 -96
q-83 12 -124 50t-48 111l-8 9v2q-55 -90 -141 -134.5t-184 -44.5q-150 0 -237 78t-87 213q0 136 104 211.5t295 77.5h250v80q0 127 -72.5 187.5t-195.5 60.5q-146 0 -279 -101q-41 24 -59 80q48 46 139.5 86.5t204.5 40.5q77 0 142 -19t118.5 -60t84 -113t30.5 -170v-408z
M422 74q44 0 86 10.5t84 37.5t73 67.5t50.5 105.5t19.5 147v17l-250 -2q-282 0 -282 -189q0 -93 57 -143.5t162 -50.5z" />
    <glyph glyph-name="agrave.ss02" horiz-adv-x="1030" 
d="M633 1124q-5 -27 -33 -47l-332 223q13 37 29 59t45 36zM848 219q0 -65 21 -93t85 -48q-4 -71 -39 -96q-83 12 -124 50t-48 111l-8 9v2q-55 -90 -141 -134.5t-184 -44.5q-150 0 -237 78t-87 213q0 136 104 211.5t295 77.5h250v80q0 127 -72.5 187.5t-195.5 60.5
q-146 0 -279 -101q-41 24 -59 80q48 46 139.5 86.5t204.5 40.5q77 0 142 -19t118.5 -60t84 -113t30.5 -170v-408zM422 74q44 0 86 10.5t84 37.5t73 67.5t50.5 105.5t19.5 147v17l-250 -2q-282 0 -282 -189q0 -93 57 -143.5t162 -50.5z" />
    <glyph glyph-name="amacron.ss02" horiz-adv-x="1030" 
d="M727 1165h-518q-6 14 -6 47q0 27 6 48h518q8 -21 8 -48q0 -26 -8 -47zM848 219q0 -65 21 -93t85 -48q-4 -71 -39 -96q-83 12 -124 50t-48 111l-8 9v2q-55 -90 -141 -134.5t-184 -44.5q-150 0 -237 78t-87 213q0 136 104 211.5t295 77.5h250v80q0 127 -72.5 187.5
t-195.5 60.5q-146 0 -279 -101q-41 24 -59 80q48 46 139.5 86.5t204.5 40.5q77 0 142 -19t118.5 -60t84 -113t30.5 -170v-408zM422 74q44 0 86 10.5t84 37.5t73 67.5t50.5 105.5t19.5 147v17l-250 -2q-282 0 -282 -189q0 -93 57 -143.5t162 -50.5z" />
    <glyph glyph-name="aogonek.ss02" horiz-adv-x="1028" 
d="M895 -240q47 -25 47 -71q-72 -64 -174 -64q-75 0 -123.5 41.5t-48.5 114.5q0 80 56.5 145.5t154.5 106.5q-47 30 -64 110l-6 7q-58 -88 -144 -131.5t-177 -43.5q-155 0 -242.5 78t-87.5 213t104.5 211.5t294.5 77.5h250v82q0 127 -72.5 186.5t-195.5 59.5
q-143 0 -279 -101q-41 24 -59 80q60 52 149 89.5t195 37.5q77 0 142 -19t118.5 -60t84 -113t30.5 -170v-377q0 -76 22 -107t84 -41q1 -29 -8 -60t-20 -44q-107 -26 -163 -80t-56 -113q0 -41 25 -61t61 -20q57 0 102 36zM422 74q39 0 77.5 8.5t82 34t76.5 64.5t55 106.5
t22 154.5v17l-250 -2q-282 0 -282 -189q0 -91 57 -142.5t162 -51.5z" />
    <glyph glyph-name="aring.ss02" horiz-adv-x="1030" 
d="M471 1044q-78 0 -133 56t-55 133q0 78 55 133t133 55q77 0 131.5 -55t54.5 -133q0 -77 -55 -133t-131 -56zM471 1343q-45 0 -75.5 -32.5t-30.5 -77.5q0 -44 30.5 -76.5t75.5 -32.5q46 0 76.5 32.5t30.5 76.5q0 45 -30.5 77.5t-76.5 32.5zM848 219q0 -65 21 -93t85 -48
q-4 -71 -39 -96q-83 12 -124 50t-48 111l-8 9v2q-55 -90 -141 -134.5t-184 -44.5q-150 0 -237 78t-87 213q0 136 104 211.5t295 77.5h250v80q0 127 -72.5 187.5t-195.5 60.5q-146 0 -279 -101q-41 24 -59 80q48 46 139.5 86.5t204.5 40.5q77 0 142 -19t118.5 -60t84 -113
t30.5 -170v-408zM422 74q44 0 86 10.5t84 37.5t73 67.5t50.5 105.5t19.5 147v17l-250 -2q-282 0 -282 -189q0 -93 57 -143.5t162 -50.5z" />
    <glyph glyph-name="atilde.ss02" horiz-adv-x="1030" 
d="M340 1235q-84 0 -113 -92q-24 0 -50 9.5t-38 21.5q23 75 74 116t119 41q45 0 96.5 -21.5t97 -43t76.5 -21.5q84 0 113 90q54 0 84 -30q-22 -73 -72.5 -114.5t-116.5 -41.5q-56 0 -145 43t-125 43zM848 219q0 -65 21 -93t85 -48q-4 -71 -39 -96q-83 12 -124 50t-48 111
l-8 9v2q-55 -90 -141 -134.5t-184 -44.5q-150 0 -237 78t-87 213q0 136 104 211.5t295 77.5h250v80q0 127 -72.5 187.5t-195.5 60.5q-146 0 -279 -101q-41 24 -59 80q48 46 139.5 86.5t204.5 40.5q77 0 142 -19t118.5 -60t84 -113t30.5 -170v-408zM422 74q44 0 86 10.5
t84 37.5t73 67.5t50.5 105.5t19.5 147v17l-250 -2q-282 0 -282 -189q0 -93 57 -143.5t162 -50.5z" />
    <glyph glyph-name="e.ss02" horiz-adv-x="1052" 
d="M883 193q45 -23 61 -80q-158 -138 -364 -138q-102 0 -189.5 34.5t-151.5 98.5t-100.5 160.5t-36.5 214.5q0 149 63.5 266t168.5 178.5t231 61.5q169 0 281.5 -109.5t120.5 -271.5l-738 -225q28 -141 121 -221t232 -80q168 0 301 111zM563 885q-156 0 -251 -110.5
t-93 -285.5v-8l615 187q-2 31 -19.5 66.5t-48.5 70t-84.5 57.5t-118.5 23z" />
    <glyph glyph-name="eacute.ss02" horiz-adv-x="1052" 
d="M395 1077q-27 16 -35 47l293 271q49 -25 74 -95zM883 193q45 -23 61 -80q-158 -138 -364 -138q-102 0 -189.5 34.5t-151.5 98.5t-100.5 160.5t-36.5 214.5q0 149 63.5 266t168.5 178.5t231 61.5q169 0 281.5 -109.5t120.5 -271.5l-738 -225q28 -141 121 -221t232 -80
q168 0 301 111zM563 885q-156 0 -251 -110.5t-93 -285.5v-8l615 187q-2 31 -19.5 66.5t-48.5 70t-84.5 57.5t-118.5 23z" />
    <glyph glyph-name="ecaron.ss02" horiz-adv-x="1052" 
d="M582 1094q-41 -9 -82 0l-217 229q15 49 55 66l207 -195l207 190q43 -17 57 -61zM883 193q45 -23 61 -80q-158 -138 -364 -138q-102 0 -189.5 34.5t-151.5 98.5t-100.5 160.5t-36.5 214.5q0 149 63.5 266t168.5 178.5t231 61.5q169 0 281.5 -109.5t120.5 -271.5l-738 -225
q28 -141 121 -221t232 -80q168 0 301 111zM563 885q-156 0 -251 -110.5t-93 -285.5v-8l615 187q-2 31 -19.5 66.5t-48.5 70t-84.5 57.5t-118.5 23z" />
    <glyph glyph-name="ecircumflex.ss02" horiz-adv-x="1052" 
d="M334 1087q-40 16 -55 60l223 231q41 9 82 0l221 -231q-18 -48 -60 -64l-206 193zM883 193q45 -23 61 -80q-158 -138 -364 -138q-102 0 -189.5 34.5t-151.5 98.5t-100.5 160.5t-36.5 214.5q0 149 63.5 266t168.5 178.5t231 61.5q169 0 281.5 -109.5t120.5 -271.5
l-738 -225q28 -141 121 -221t232 -80q168 0 301 111zM563 885q-156 0 -251 -110.5t-93 -285.5v-8l615 187q-2 31 -19.5 66.5t-48.5 70t-84.5 57.5t-118.5 23z" />
    <glyph glyph-name="edieresis.ss02" horiz-adv-x="1052" 
d="M338 1149q-36 0 -61 24t-25 60q0 35 24.5 59.5t61.5 24.5q35 0 59.5 -24.5t24.5 -59.5q0 -36 -24 -60t-60 -24zM748 1149q-36 0 -61 24t-25 60q0 35 24.5 59.5t61.5 24.5q34 0 58.5 -24.5t24.5 -59.5q0 -36 -24.5 -60t-58.5 -24zM883 193q45 -23 61 -80
q-158 -138 -364 -138q-102 0 -189.5 34.5t-151.5 98.5t-100.5 160.5t-36.5 214.5q0 149 63.5 266t168.5 178.5t231 61.5q169 0 281.5 -109.5t120.5 -271.5l-738 -225q28 -141 121 -221t232 -80q168 0 301 111zM563 885q-156 0 -251 -110.5t-93 -285.5v-8l615 187
q-2 31 -19.5 66.5t-48.5 70t-84.5 57.5t-118.5 23z" />
    <glyph glyph-name="edotaccent.ss02" horiz-adv-x="1052" 
d="M543 1157q-37 0 -64.5 26t-27.5 64q0 37 27 63.5t65 26.5q37 0 62.5 -26.5t25.5 -63.5q0 -38 -25.5 -64t-62.5 -26zM883 193q45 -23 61 -80q-158 -138 -364 -138q-102 0 -189.5 34.5t-151.5 98.5t-100.5 160.5t-36.5 214.5q0 149 63.5 266t168.5 178.5t231 61.5
q169 0 281.5 -109.5t120.5 -271.5l-738 -225q28 -141 121 -221t232 -80q168 0 301 111zM563 885q-156 0 -251 -110.5t-93 -285.5v-8l615 187q-2 31 -19.5 66.5t-48.5 70t-84.5 57.5t-118.5 23z" />
    <glyph glyph-name="egrave.ss02" horiz-adv-x="1052" 
d="M707 1124q-5 -27 -33 -47l-332 223q13 37 29 59t45 36zM883 193q45 -23 61 -80q-158 -138 -364 -138q-102 0 -189.5 34.5t-151.5 98.5t-100.5 160.5t-36.5 214.5q0 149 63.5 266t168.5 178.5t231 61.5q169 0 281.5 -109.5t120.5 -271.5l-738 -225q28 -141 121 -221
t232 -80q168 0 301 111zM563 885q-156 0 -251 -110.5t-93 -285.5v-8l615 187q-2 31 -19.5 66.5t-48.5 70t-84.5 57.5t-118.5 23z" />
    <glyph glyph-name="emacron.ss02" horiz-adv-x="1052" 
d="M801 1165h-518q-7 16 -7 47q0 24 7 48h518q8 -21 8 -48q0 -26 -8 -47zM883 193q45 -23 61 -80q-158 -138 -364 -138q-102 0 -189.5 34.5t-151.5 98.5t-100.5 160.5t-36.5 214.5q0 149 63.5 266t168.5 178.5t231 61.5q169 0 281.5 -109.5t120.5 -271.5l-738 -225
q28 -141 121 -221t232 -80q168 0 301 111zM563 885q-156 0 -251 -110.5t-93 -285.5v-8l615 187q-2 31 -19.5 66.5t-48.5 70t-84.5 57.5t-118.5 23z" />
    <glyph glyph-name="eogonek.ss02" horiz-adv-x="1052" 
d="M858 51q-74 -60 -123 -127.5t-49 -122.5q0 -39 24 -58t58 -19q56 0 111 38q16 -11 28.5 -31t12.5 -44q-73 -62 -183 -62q-71 0 -116.5 39.5t-45.5 108.5q0 100 109 213q-60 -11 -104 -11q-102 0 -189.5 34.5t-151.5 98.5t-100.5 160.5t-36.5 214.5q0 149 63.5 266
t168.5 178.5t231 61.5q169 0 281.5 -109.5t120.5 -271.5l-738 -225q28 -141 121 -221t232 -80q168 0 301 111q45 -23 61 -80q-43 -38 -86 -62zM563 885q-156 0 -251 -110.5t-93 -285.5v-8l615 187q-2 31 -19.5 66.5t-48.5 70t-84.5 57.5t-118.5 23z" />
    <glyph glyph-name="g.ss02" horiz-adv-x="1024" 
d="M985 1022q-32 -63 -88 -99t-117 -42q93 -101 90 -258q-3 -142 -109.5 -235t-271.5 -93q-91 0 -170 29q-59 -51 -59 -115q0 -82 123 -82h244q286 0 286 -236q0 -139 -114 -218t-318 -79q-255 0 -391 117q20 61 70 84q54 -44 126 -71t195 -27q167 0 246.5 49t79.5 135
q0 142 -193 142h-227q-235 0 -235 170q0 93 90 172q-123 89 -123 264q0 154 109 251t278 97h174q90 0 139.5 22.5t81.5 81.5q58 -16 84 -59zM758 625q4 145 -96 254h-158q-124 0 -198.5 -67t-74.5 -183q0 -112 68 -175t190 -63q120 0 192.5 61.5t76.5 172.5z" />
    <glyph glyph-name="gbreve.ss02" horiz-adv-x="1024" 
d="M498 1096q-118 0 -188.5 70.5t-78.5 185.5q39 16 84 10q12 -85 60 -130.5t125 -45.5q75 0 125 46.5t57 129.5q49 3 82 -10q-5 -110 -77 -183t-189 -73zM985 1022q-32 -63 -88 -99t-117 -42q93 -101 90 -258q-3 -142 -109.5 -235t-271.5 -93q-91 0 -170 29
q-59 -51 -59 -115q0 -82 123 -82h244q286 0 286 -236q0 -139 -114 -218t-318 -79q-255 0 -391 117q20 61 70 84q54 -44 126 -71t195 -27q167 0 246.5 49t79.5 135q0 142 -193 142h-227q-235 0 -235 170q0 93 90 172q-123 89 -123 264q0 154 109 251t278 97h174
q90 0 139.5 22.5t81.5 81.5q58 -16 84 -59zM758 625q4 145 -96 254h-158q-124 0 -198.5 -67t-74.5 -183q0 -112 68 -175t190 -63q120 0 192.5 61.5t76.5 172.5z" />
    <glyph glyph-name="gcommaaccent.ss02" horiz-adv-x="1024" 
d="M492 1040q-33 0 -54 9q-10 38 -10 90q0 75 36 142.5t95 107.5q26 -7 37 -39q-64 -64 -64 -183q0 -55 21 -116q-22 -11 -61 -11zM985 1022q-32 -63 -88 -99t-117 -42q93 -101 90 -258q-3 -142 -109.5 -235t-271.5 -93q-91 0 -170 29q-59 -51 -59 -115q0 -82 123 -82h244
q286 0 286 -236q0 -139 -114 -218t-318 -79q-255 0 -391 117q20 61 70 84q54 -44 126 -71t195 -27q167 0 246.5 49t79.5 135q0 142 -193 142h-227q-235 0 -235 170q0 93 90 172q-123 89 -123 264q0 154 109 251t278 97h174q90 0 139.5 22.5t81.5 81.5q58 -16 84 -59z
M758 625q4 145 -96 254h-158q-124 0 -198.5 -67t-74.5 -183q0 -112 68 -175t190 -63q120 0 192.5 61.5t76.5 172.5z" />
    <glyph glyph-name="gdotaccent.ss02" horiz-adv-x="1024" 
d="M500 1157q-37 0 -64.5 26t-27.5 64q0 37 27 63.5t65 26.5q37 0 62.5 -26.5t25.5 -63.5q0 -38 -25.5 -64t-62.5 -26zM985 1022q-32 -63 -88 -99t-117 -42q93 -101 90 -258q-3 -142 -109.5 -235t-271.5 -93q-91 0 -170 29q-59 -51 -59 -115q0 -82 123 -82h244
q286 0 286 -236q0 -139 -114 -218t-318 -79q-255 0 -391 117q20 61 70 84q54 -44 126 -71t195 -27q167 0 246.5 49t79.5 135q0 142 -193 142h-227q-235 0 -235 170q0 93 90 172q-123 89 -123 264q0 154 109 251t278 97h174q90 0 139.5 22.5t81.5 81.5q58 -16 84 -59z
M758 625q4 145 -96 254h-158q-124 0 -198.5 -67t-74.5 -183q0 -112 68 -175t190 -63q120 0 192.5 61.5t76.5 172.5z" />
    <glyph glyph-name="w.ss02" horiz-adv-x="1503" 
d="M1360 963q37 0 63 -11q-39 -253 -128 -510.5t-197 -443.5q-21 -6 -51 -6q-32 0 -56 6q-72 138 -140 340t-101 401q-36 -199 -105 -400t-141 -341q-24 -6 -55 -6t-52 6q-105 185 -191.5 442t-127.5 512q26 11 65 11q15 0 45 -5q41 -233 115.5 -470t140.5 -363q4 -15 9 -23
q2 3 5 11.5t5 11.5q63 138 130 368t99 445q28 4 58 4q31 0 59 -4q30 -234 95.5 -451.5t135.5 -361.5l13 -29q8 21 10 29q69 122 143 360t111 473q30 5 43 5z" />
    <glyph glyph-name="wacute.ss02" horiz-adv-x="1503" 
d="M604 1077q-27 16 -35 47l293 271q49 -25 74 -95zM1360 963q37 0 63 -11q-39 -253 -128 -510.5t-197 -443.5q-21 -6 -51 -6q-32 0 -56 6q-72 138 -140 340t-101 401q-36 -199 -105 -400t-141 -341q-24 -6 -55 -6t-52 6q-105 185 -191.5 442t-127.5 512q26 11 65 11
q15 0 45 -5q41 -233 115.5 -470t140.5 -363q4 -15 9 -23q2 3 5 11.5t5 11.5q63 138 130 368t99 445q28 4 58 4q31 0 59 -4q30 -234 95.5 -451.5t135.5 -361.5l13 -29q8 21 10 29q69 122 143 360t111 473q30 5 43 5z" />
    <glyph glyph-name="wcircumflex.ss02" horiz-adv-x="1503" 
d="M543 1087q-41 16 -56 60l224 231q41 9 82 0l221 -231q-18 -48 -60 -64l-206 193zM1360 963q37 0 63 -11q-39 -253 -128 -510.5t-197 -443.5q-21 -6 -51 -6q-32 0 -56 6q-72 138 -140 340t-101 401q-36 -199 -105 -400t-141 -341q-24 -6 -55 -6t-52 6q-105 185 -191.5 442
t-127.5 512q26 11 65 11q15 0 45 -5q41 -233 115.5 -470t140.5 -363q4 -15 9 -23q2 3 5 11.5t5 11.5q63 138 130 368t99 445q28 4 58 4q31 0 59 -4q30 -234 95.5 -451.5t135.5 -361.5l13 -29q8 21 10 29q69 122 143 360t111 473q30 5 43 5z" />
    <glyph glyph-name="wdieresis.ss02" horiz-adv-x="1503" 
d="M549 1149q-36 0 -61 24t-25 60q0 35 24.5 59.5t61.5 24.5q35 0 59.5 -24.5t24.5 -59.5q0 -36 -24 -60t-60 -24zM958 1149q-36 0 -61 24t-25 60q0 35 24.5 59.5t61.5 24.5q34 0 59 -24.5t25 -59.5q0 -36 -25 -60t-59 -24zM1360 963q37 0 63 -11q-39 -253 -128 -510.5
t-197 -443.5q-21 -6 -51 -6q-32 0 -56 6q-72 138 -140 340t-101 401q-36 -199 -105 -400t-141 -341q-24 -6 -55 -6t-52 6q-105 185 -191.5 442t-127.5 512q26 11 65 11q15 0 45 -5q41 -233 115.5 -470t140.5 -363q4 -15 9 -23q2 3 5 11.5t5 11.5q63 138 130 368t99 445
q28 4 58 4q31 0 59 -4q30 -234 95.5 -451.5t135.5 -361.5l13 -29q8 21 10 29q69 122 143 360t111 473q30 5 43 5z" />
    <glyph glyph-name="wgrave.ss02" horiz-adv-x="1503" 
d="M915 1124q-5 -28 -32 -47l-332 223q13 37 29 59t45 36zM1360 963q37 0 63 -11q-39 -253 -128 -510.5t-197 -443.5q-21 -6 -51 -6q-32 0 -56 6q-72 138 -140 340t-101 401q-36 -199 -105 -400t-141 -341q-24 -6 -55 -6t-52 6q-105 185 -191.5 442t-127.5 512q26 11 65 11
q15 0 45 -5q41 -233 115.5 -470t140.5 -363q4 -15 9 -23q2 3 5 11.5t5 11.5q63 138 130 368t99 445q28 4 58 4q31 0 59 -4q30 -234 95.5 -451.5t135.5 -361.5l13 -29q8 21 10 29q69 122 143 360t111 473q30 5 43 5z" />
    <glyph glyph-name="y.ss02" horiz-adv-x="1132" 
d="M907 965q27 0 58 -7v-942q0 -185 -117.5 -298t-310.5 -113q-252 0 -383 145q18 58 73 78q117 -121 310 -121q152 0 233.5 83.5t81.5 225.5v86q-140 -73 -307 -73q-193 0 -291 101.5t-98 272.5v555q31 7 55 7q25 0 57 -7v-514q0 -72 14 -125.5t47 -96.5t93.5 -65
t148.5 -22q156 0 281 78v745q31 7 55 7z" />
    <glyph glyph-name="yacute.ss02" horiz-adv-x="1132" 
d="M416 1077q-27 16 -35 47l293 271q49 -25 74 -95zM907 965q27 0 58 -7v-942q0 -185 -117.5 -298t-310.5 -113q-252 0 -383 145q18 58 73 78q117 -121 310 -121q152 0 233.5 83.5t81.5 225.5v86q-140 -73 -307 -73q-193 0 -291 101.5t-98 272.5v555q31 7 55 7q25 0 57 -7
v-514q0 -72 14 -125.5t47 -96.5t93.5 -65t148.5 -22q156 0 281 78v745q31 7 55 7z" />
    <glyph glyph-name="ycircumflex.ss02" horiz-adv-x="1132" 
d="M356 1087q-40 16 -55 60l223 231q41 9 82 0l221 -231q-18 -48 -59 -64l-207 193zM907 965q27 0 58 -7v-942q0 -185 -117.5 -298t-310.5 -113q-252 0 -383 145q18 58 73 78q117 -121 310 -121q152 0 233.5 83.5t81.5 225.5v86q-140 -73 -307 -73q-193 0 -291 101.5
t-98 272.5v555q31 7 55 7q25 0 57 -7v-514q0 -72 14 -125.5t47 -96.5t93.5 -65t148.5 -22q156 0 281 78v745q31 7 55 7z" />
    <glyph glyph-name="ydieresis.ss02" horiz-adv-x="1132" 
d="M360 1149q-36 0 -61 24t-25 60q0 35 24.5 59.5t61.5 24.5q35 0 59.5 -24.5t24.5 -59.5q0 -36 -24 -60t-60 -24zM770 1149q-36 0 -61 24t-25 60q0 35 24.5 59.5t61.5 24.5q34 0 59 -24.5t25 -59.5q0 -36 -25 -60t-59 -24zM907 965q27 0 58 -7v-942q0 -185 -117.5 -298
t-310.5 -113q-252 0 -383 145q18 58 73 78q117 -121 310 -121q152 0 233.5 83.5t81.5 225.5v86q-140 -73 -307 -73q-193 0 -291 101.5t-98 272.5v555q31 7 55 7q25 0 57 -7v-514q0 -72 14 -125.5t47 -96.5t93.5 -65t148.5 -22q156 0 281 78v745q31 7 55 7z" />
    <glyph glyph-name="ygrave.ss02" horiz-adv-x="1132" 
d="M727 1124q-5 -27 -33 -47l-332 223q13 37 29 59t45 36zM907 965q27 0 58 -7v-942q0 -185 -117.5 -298t-310.5 -113q-252 0 -383 145q18 58 73 78q117 -121 310 -121q152 0 233.5 83.5t81.5 225.5v86q-140 -73 -307 -73q-193 0 -291 101.5t-98 272.5v555q31 7 55 7
q25 0 57 -7v-514q0 -72 14 -125.5t47 -96.5t93.5 -65t148.5 -22q156 0 281 78v745q31 7 55 7z" />
    <glyph glyph-name="a.ss03" horiz-adv-x="1021" 
d="M483 989q83 0 151.5 -19t125 -60t88 -113t31.5 -170v-564q-75 -40 -183.5 -64t-210.5 -24q-194 0 -296.5 78t-102.5 226q0 128 94 200t258 72h328v72q0 130 -76.5 194t-210.5 64q-160 0 -291 -99q-43 27 -57 80q48 46 140.5 86.5t211.5 40.5zM205 283q0 -101 72 -152
t208 -51q166 0 281 53v320h-328q-233 0 -233 -170z" />
    <glyph glyph-name="aacute.ss03" horiz-adv-x="1021" 
d="M344 1077q-27 16 -35 47l293 271q49 -25 74 -95zM483 989q83 0 151.5 -19t125 -60t88 -113t31.5 -170v-564q-75 -40 -183.5 -64t-210.5 -24q-194 0 -296.5 78t-102.5 226q0 128 94 200t258 72h328v72q0 130 -76.5 194t-210.5 64q-160 0 -291 -99q-43 27 -57 80
q48 46 140.5 86.5t211.5 40.5zM205 283q0 -101 72 -152t208 -51q166 0 281 53v320h-328q-233 0 -233 -170z" />
    <glyph glyph-name="abreve.ss03" horiz-adv-x="1021" 
d="M492 1096q-118 0 -188.5 70.5t-78.5 185.5q39 16 84 10q12 -85 60 -130.5t125 -45.5q75 0 125 46.5t57 129.5q49 3 82 -10q-5 -110 -77 -183t-189 -73zM483 989q83 0 151.5 -19t125 -60t88 -113t31.5 -170v-564q-75 -40 -183.5 -64t-210.5 -24q-194 0 -296.5 78
t-102.5 226q0 128 94 200t258 72h328v72q0 130 -76.5 194t-210.5 64q-160 0 -291 -99q-43 27 -57 80q48 46 140.5 86.5t211.5 40.5zM205 283q0 -101 72 -152t208 -51q166 0 281 53v320h-328q-233 0 -233 -170z" />
    <glyph glyph-name="acircumflex.ss03" horiz-adv-x="1021" 
d="M283 1087q-41 16 -56 60l224 231q41 9 81 0l222 -231q-18 -48 -60 -64l-207 193zM483 989q83 0 151.5 -19t125 -60t88 -113t31.5 -170v-564q-75 -40 -183.5 -64t-210.5 -24q-194 0 -296.5 78t-102.5 226q0 128 94 200t258 72h328v72q0 130 -76.5 194t-210.5 64
q-160 0 -291 -99q-43 27 -57 80q48 46 140.5 86.5t211.5 40.5zM205 283q0 -101 72 -152t208 -51q166 0 281 53v320h-328q-233 0 -233 -170z" />
    <glyph glyph-name="adieresis.ss03" horiz-adv-x="1021" 
d="M289 1149q-36 0 -61 24t-25 60q0 35 24.5 59.5t61.5 24.5q35 0 59.5 -24.5t24.5 -59.5q0 -36 -24 -60t-60 -24zM698 1149q-36 0 -61 24t-25 60q0 35 24.5 59.5t61.5 24.5q34 0 59 -24.5t25 -59.5q0 -36 -25 -60t-59 -24zM483 989q83 0 151.5 -19t125 -60t88 -113
t31.5 -170v-564q-75 -40 -183.5 -64t-210.5 -24q-194 0 -296.5 78t-102.5 226q0 128 94 200t258 72h328v72q0 130 -76.5 194t-210.5 64q-160 0 -291 -99q-43 27 -57 80q48 46 140.5 86.5t211.5 40.5zM205 283q0 -101 72 -152t208 -51q166 0 281 53v320h-328
q-233 0 -233 -170z" />
    <glyph glyph-name="agrave.ss03" horiz-adv-x="1021" 
d="M655 1124q-5 -28 -32 -47l-332 223q13 37 29 59t45 36zM483 989q83 0 151.5 -19t125 -60t88 -113t31.5 -170v-564q-75 -40 -183.5 -64t-210.5 -24q-194 0 -296.5 78t-102.5 226q0 128 94 200t258 72h328v72q0 130 -76.5 194t-210.5 64q-160 0 -291 -99q-43 27 -57 80
q48 46 140.5 86.5t211.5 40.5zM205 283q0 -101 72 -152t208 -51q166 0 281 53v320h-328q-233 0 -233 -170z" />
    <glyph glyph-name="amacron.ss03" horiz-adv-x="1021" 
d="M752 1165h-519q-6 14 -6 47q0 27 6 48h519q8 -21 8 -48q0 -26 -8 -47zM483 989q83 0 151.5 -19t125 -60t88 -113t31.5 -170v-564q-75 -40 -183.5 -64t-210.5 -24q-194 0 -296.5 78t-102.5 226q0 128 94 200t258 72h328v72q0 130 -76.5 194t-210.5 64q-160 0 -291 -99
q-43 27 -57 80q48 46 140.5 86.5t211.5 40.5zM205 283q0 -101 72 -152t208 -51q166 0 281 53v320h-328q-233 0 -233 -170z" />
    <glyph glyph-name="aogonek.ss03" horiz-adv-x="1021" 
d="M881 -238q16 -11 28.5 -31t12.5 -44q-73 -62 -183 -62q-71 0 -116 39.5t-45 108.5q0 116 124 227q-112 -25 -217 -25q-194 0 -296.5 78t-102.5 226q0 128 94 200t258 72h328v72q0 130 -76.5 194t-210.5 64q-160 0 -291 -99q-43 27 -57 80q48 46 140.5 86.5t211.5 40.5
q83 0 151.5 -19t125 -60t88 -113t31.5 -170v-564l-7 -4q-78 -60 -131 -130.5t-53 -127.5q0 -39 24 -58t58 -19q56 0 111 38zM205 283q0 -101 72 -152t208 -51q166 0 281 53v320h-328q-233 0 -233 -170z" />
    <glyph glyph-name="aring.ss03" horiz-adv-x="1021" 
d="M494 1044q-78 0 -133.5 56t-55.5 133q0 78 55.5 133t133.5 55q77 0 131.5 -55t54.5 -133q0 -77 -55 -133t-131 -56zM494 1343q-45 0 -76 -32.5t-31 -77.5q0 -44 31 -76.5t76 -32.5q46 0 76 32.5t30 76.5q0 45 -30 77.5t-76 32.5zM483 989q83 0 151.5 -19t125 -60t88 -113
t31.5 -170v-564q-75 -40 -183.5 -64t-210.5 -24q-194 0 -296.5 78t-102.5 226q0 128 94 200t258 72h328v72q0 130 -76.5 194t-210.5 64q-160 0 -291 -99q-43 27 -57 80q48 46 140.5 86.5t211.5 40.5zM205 283q0 -101 72 -152t208 -51q166 0 281 53v320h-328
q-233 0 -233 -170z" />
    <glyph glyph-name="atilde.ss03" horiz-adv-x="1021" 
d="M362 1235q-83 0 -112 -92q-24 0 -50 9.5t-38 21.5q23 75 73.5 116t118.5 41q45 0 96.5 -21.5t97.5 -43t77 -21.5q83 0 112 90q54 0 84 -30q-22 -73 -72 -114.5t-116 -41.5q-57 0 -146 43t-125 43zM483 989q83 0 151.5 -19t125 -60t88 -113t31.5 -170v-564
q-75 -40 -183.5 -64t-210.5 -24q-194 0 -296.5 78t-102.5 226q0 128 94 200t258 72h328v72q0 130 -76.5 194t-210.5 64q-160 0 -291 -99q-43 27 -57 80q48 46 140.5 86.5t211.5 40.5zM205 283q0 -101 72 -152t208 -51q166 0 281 53v320h-328q-233 0 -233 -170z" />
    <glyph glyph-name="e.ss03" horiz-adv-x="1040" 
d="M870 186q22 -10 39 -31.5t23 -45.5q-72 -61 -158 -97.5t-209 -36.5q-208 0 -335.5 130.5t-127.5 369.5q0 114 38.5 211t104.5 163t154 103t187 37q159 0 255.5 -82t96.5 -205q0 -125 -81 -191.5t-234 -66.5h-404q8 -164 102 -264t244 -100q79 0 144.5 19t94 37.5
t66.5 49.5zM586 887q-151 0 -252 -98t-113 -248h410q89 0 139.5 41.5t50.5 119.5q0 80 -65 132.5t-170 52.5z" />
    <glyph glyph-name="eacute.ss03" horiz-adv-x="1040" 
d="M393 1077q-27 16 -35 47l293 271q49 -25 74 -95zM870 186q22 -10 39 -31.5t23 -45.5q-72 -61 -158 -97.5t-209 -36.5q-208 0 -335.5 130.5t-127.5 369.5q0 114 38.5 211t104.5 163t154 103t187 37q159 0 255.5 -82t96.5 -205q0 -125 -81 -191.5t-234 -66.5h-404
q8 -164 102 -264t244 -100q79 0 144.5 19t94 37.5t66.5 49.5zM586 887q-151 0 -252 -98t-113 -248h410q89 0 139.5 41.5t50.5 119.5q0 80 -65 132.5t-170 52.5z" />
    <glyph glyph-name="ecaron.ss03" horiz-adv-x="1040" 
d="M580 1094q-41 -9 -82 0l-217 229q15 49 55 66l207 -195l207 190q43 -17 57 -61zM870 186q22 -10 39 -31.5t23 -45.5q-72 -61 -158 -97.5t-209 -36.5q-208 0 -335.5 130.5t-127.5 369.5q0 114 38.5 211t104.5 163t154 103t187 37q159 0 255.5 -82t96.5 -205
q0 -125 -81 -191.5t-234 -66.5h-404q8 -164 102 -264t244 -100q79 0 144.5 19t94 37.5t66.5 49.5zM586 887q-151 0 -252 -98t-113 -248h410q89 0 139.5 41.5t50.5 119.5q0 80 -65 132.5t-170 52.5z" />
    <glyph glyph-name="ecircumflex.ss03" horiz-adv-x="1040" 
d="M332 1087q-41 16 -56 60l224 231q41 9 82 0l221 -231q-18 -48 -60 -64l-206 193zM870 186q22 -10 39 -31.5t23 -45.5q-72 -61 -158 -97.5t-209 -36.5q-208 0 -335.5 130.5t-127.5 369.5q0 114 38.5 211t104.5 163t154 103t187 37q159 0 255.5 -82t96.5 -205
q0 -125 -81 -191.5t-234 -66.5h-404q8 -164 102 -264t244 -100q79 0 144.5 19t94 37.5t66.5 49.5zM586 887q-151 0 -252 -98t-113 -248h410q89 0 139.5 41.5t50.5 119.5q0 80 -65 132.5t-170 52.5z" />
    <glyph glyph-name="edieresis.ss03" horiz-adv-x="1040" 
d="M338 1149q-36 0 -61 24t-25 60q0 35 24.5 59.5t61.5 24.5q35 0 59.5 -24.5t24.5 -59.5q0 -36 -24 -60t-60 -24zM748 1149q-36 0 -61 24t-25 60q0 35 24.5 59.5t61.5 24.5q34 0 58.5 -24.5t24.5 -59.5q0 -36 -24.5 -60t-58.5 -24zM870 186q22 -10 39 -31.5t23 -45.5
q-72 -61 -158 -97.5t-209 -36.5q-208 0 -335.5 130.5t-127.5 369.5q0 114 38.5 211t104.5 163t154 103t187 37q159 0 255.5 -82t96.5 -205q0 -125 -81 -191.5t-234 -66.5h-404q8 -164 102 -264t244 -100q79 0 144.5 19t94 37.5t66.5 49.5zM586 887q-151 0 -252 -98
t-113 -248h410q89 0 139.5 41.5t50.5 119.5q0 80 -65 132.5t-170 52.5z" />
    <glyph glyph-name="edotaccent.ss03" horiz-adv-x="1040" 
d="M543 1157q-37 0 -64.5 26t-27.5 64q0 37 27 63.5t65 26.5q37 0 62.5 -26.5t25.5 -63.5q0 -38 -25.5 -64t-62.5 -26zM870 186q22 -10 39 -31.5t23 -45.5q-72 -61 -158 -97.5t-209 -36.5q-208 0 -335.5 130.5t-127.5 369.5q0 114 38.5 211t104.5 163t154 103t187 37
q159 0 255.5 -82t96.5 -205q0 -125 -81 -191.5t-234 -66.5h-404q8 -164 102 -264t244 -100q79 0 144.5 19t94 37.5t66.5 49.5zM586 887q-151 0 -252 -98t-113 -248h410q89 0 139.5 41.5t50.5 119.5q0 80 -65 132.5t-170 52.5z" />
    <glyph glyph-name="egrave.ss03" horiz-adv-x="1040" 
d="M705 1124q-5 -27 -33 -47l-332 223q13 37 29 59t45 36zM870 186q22 -10 39 -31.5t23 -45.5q-72 -61 -158 -97.5t-209 -36.5q-208 0 -335.5 130.5t-127.5 369.5q0 114 38.5 211t104.5 163t154 103t187 37q159 0 255.5 -82t96.5 -205q0 -125 -81 -191.5t-234 -66.5h-404
q8 -164 102 -264t244 -100q79 0 144.5 19t94 37.5t66.5 49.5zM586 887q-151 0 -252 -98t-113 -248h410q89 0 139.5 41.5t50.5 119.5q0 80 -65 132.5t-170 52.5z" />
    <glyph glyph-name="emacron.ss03" horiz-adv-x="1040" 
d="M801 1165h-518q-7 16 -7 47q0 24 7 48h518q8 -21 8 -48q0 -26 -8 -47zM870 186q22 -10 39 -31.5t23 -45.5q-72 -61 -158 -97.5t-209 -36.5q-208 0 -335.5 130.5t-127.5 369.5q0 114 38.5 211t104.5 163t154 103t187 37q159 0 255.5 -82t96.5 -205q0 -125 -81 -191.5
t-234 -66.5h-404q8 -164 102 -264t244 -100q79 0 144.5 19t94 37.5t66.5 49.5zM586 887q-151 0 -252 -98t-113 -248h410q89 0 139.5 41.5t50.5 119.5q0 80 -65 132.5t-170 52.5z" />
    <glyph glyph-name="eogonek.ss03" horiz-adv-x="1040" 
d="M872 63q-79 -60 -133.5 -132t-54.5 -130q0 -39 24 -58t58 -19q56 0 111 38q16 -11 28.5 -31t12.5 -44q-73 -62 -183 -62q-71 0 -116.5 39.5t-45.5 108.5q0 106 111 213q-68 -11 -119 -11q-208 0 -335.5 130.5t-127.5 369.5q0 114 38.5 211t104.5 163t154 103t187 37
q159 0 255.5 -82t96.5 -205q0 -125 -81 -191.5t-234 -66.5h-404q8 -164 102 -264t244 -100q79 0 144.5 19t94 37.5t66.5 49.5q22 -10 39 -31.5t23 -45.5q-56 -44 -60 -46zM586 887q-151 0 -252 -98t-113 -248h410q89 0 139.5 41.5t50.5 119.5q0 80 -65 132.5t-170 52.5z" />
    <glyph glyph-name="g.ss03" horiz-adv-x="1071" 
d="M1018 1024q-68 -135 -225 -150q102 -113 102 -288q0 -145 -92 -258q143 -124 143 -310q0 -182 -129.5 -298.5t-324.5 -116.5q-131 0 -231 49t-165 135q31 54 84 74q114 -152 312 -152q155 0 245 86.5t92 222.5q3 146 -114 234q-100 -62 -226 -62q-186 0 -292.5 112
t-106.5 284t124 283.5t304 111.5h168q104 0 156 20t84 86q61 -15 92 -63zM205 590q-2 -135 75 -215t214 -80q128 0 206 82t80 211q0 145 -108 284h-158q-136 0 -220.5 -74.5t-88.5 -207.5z" />
    <glyph glyph-name="gbreve.ss03" horiz-adv-x="1071" 
d="M504 1096q-118 0 -188 70.5t-78 185.5q39 16 84 10q12 -85 59.5 -130.5t124.5 -45.5q75 0 125 46.5t57 129.5q49 3 82 -10q-5 -110 -77 -183t-189 -73zM1018 1024q-68 -135 -225 -150q102 -113 102 -288q0 -145 -92 -258q143 -124 143 -310q0 -182 -129.5 -298.5
t-324.5 -116.5q-131 0 -231 49t-165 135q31 54 84 74q114 -152 312 -152q155 0 245 86.5t92 222.5q3 146 -114 234q-100 -62 -226 -62q-186 0 -292.5 112t-106.5 284t124 283.5t304 111.5h168q104 0 156 20t84 86q61 -15 92 -63zM205 590q-2 -135 75 -215t214 -80
q128 0 206 82t80 211q0 145 -108 284h-158q-136 0 -220.5 -74.5t-88.5 -207.5z" />
    <glyph glyph-name="gcommaaccent.ss03" horiz-adv-x="1071" 
d="M496 1040q-33 0 -54 9q-10 38 -10 90q0 75 36 142.5t95 107.5q26 -7 37 -39q-63 -63 -63 -183q0 -58 20 -116q-22 -11 -61 -11zM1018 1024q-68 -135 -225 -150q102 -113 102 -288q0 -145 -92 -258q143 -124 143 -310q0 -182 -129.5 -298.5t-324.5 -116.5q-131 0 -231 49
t-165 135q31 54 84 74q114 -152 312 -152q155 0 245 86.5t92 222.5q3 146 -114 234q-100 -62 -226 -62q-186 0 -292.5 112t-106.5 284t124 283.5t304 111.5h168q104 0 156 20t84 86q61 -15 92 -63zM205 590q-2 -135 75 -215t214 -80q128 0 206 82t80 211q0 145 -108 284
h-158q-136 0 -220.5 -74.5t-88.5 -207.5z" />
    <glyph glyph-name="gdotaccent.ss03" horiz-adv-x="1071" 
d="M506 1157q-37 0 -64.5 26t-27.5 64q0 37 27 63.5t65 26.5q37 0 62.5 -26.5t25.5 -63.5q0 -38 -25.5 -64t-62.5 -26zM1018 1024q-68 -135 -225 -150q102 -113 102 -288q0 -145 -92 -258q143 -124 143 -310q0 -182 -129.5 -298.5t-324.5 -116.5q-131 0 -231 49t-165 135
q31 54 84 74q114 -152 312 -152q155 0 245 86.5t92 222.5q3 146 -114 234q-100 -62 -226 -62q-186 0 -292.5 112t-106.5 284t124 283.5t304 111.5h168q104 0 156 20t84 86q61 -15 92 -63zM205 590q-2 -135 75 -215t214 -80q128 0 206 82t80 211q0 145 -108 284h-158
q-136 0 -220.5 -74.5t-88.5 -207.5z" />
    <glyph glyph-name="g.ss04" horiz-adv-x="1042" 
d="M1008 1018q-32 -65 -89 -103.5t-120 -48.5q80 -105 80 -250q0 -151 -105 -250.5t-272 -99.5h-119q-58 0 -92.5 -35.5t-34.5 -83.5q0 -53 34 -84.5t95 -31.5h504q8 -24 8 -56q0 -33 -8 -57h-496q-129 0 -194.5 58t-65.5 159q0 66 35.5 118.5t97.5 80.5q-67 47 -103 120
t-36 162q0 164 110 264t287 97l162 -2q96 -2 148.5 20.5t85.5 83.5q61 -16 88 -61zM760 614q3 137 -86 250l-154 2q-131 2 -203.5 -63t-72.5 -189q0 -116 67 -178.5t191 -62.5q120 0 188 65t70 176z" />
    <glyph glyph-name="gbreve.ss04" horiz-adv-x="1042" 
d="M512 1096q-118 0 -188 70.5t-78 185.5q39 16 84 10q12 -85 59.5 -130.5t124.5 -45.5q75 0 125 46.5t57 129.5q49 3 82 -10q-5 -110 -77 -183t-189 -73zM1008 1018q-32 -65 -89 -103.5t-120 -48.5q80 -105 80 -250q0 -151 -105 -250.5t-272 -99.5h-119q-58 0 -92.5 -35.5
t-34.5 -83.5q0 -53 34 -84.5t95 -31.5h504q8 -24 8 -56q0 -33 -8 -57h-496q-129 0 -194.5 58t-65.5 159q0 66 35.5 118.5t97.5 80.5q-67 47 -103 120t-36 162q0 164 110 264t287 97l162 -2q96 -2 148.5 20.5t85.5 83.5q61 -16 88 -61zM760 614q3 137 -86 250l-154 2
q-131 2 -203.5 -63t-72.5 -189q0 -116 67 -178.5t191 -62.5q120 0 188 65t70 176z" />
    <glyph glyph-name="gcommaaccent.ss04" horiz-adv-x="1042" 
d="M504 1040q-32 0 -53 9q-11 42 -11 90q0 75 36 142.5t95 107.5q26 -7 37 -39q-63 -63 -63 -183q0 -58 20 -116q-22 -11 -61 -11zM1008 1018q-32 -65 -89 -103.5t-120 -48.5q80 -105 80 -250q0 -151 -105 -250.5t-272 -99.5h-119q-58 0 -92.5 -35.5t-34.5 -83.5
q0 -53 34 -84.5t95 -31.5h504q8 -24 8 -56q0 -33 -8 -57h-496q-129 0 -194.5 58t-65.5 159q0 66 35.5 118.5t97.5 80.5q-67 47 -103 120t-36 162q0 164 110 264t287 97l162 -2q96 -2 148.5 20.5t85.5 83.5q61 -16 88 -61zM760 614q3 137 -86 250l-154 2q-131 2 -203.5 -63
t-72.5 -189q0 -116 67 -178.5t191 -62.5q120 0 188 65t70 176z" />
    <glyph glyph-name="gdotaccent.ss04" horiz-adv-x="1042" 
d="M514 1157q-37 0 -64.5 26t-27.5 64q0 37 27 63.5t65 26.5q37 0 62.5 -26.5t25.5 -63.5q0 -38 -25.5 -64t-62.5 -26zM1008 1018q-32 -65 -89 -103.5t-120 -48.5q80 -105 80 -250q0 -151 -105 -250.5t-272 -99.5h-119q-58 0 -92.5 -35.5t-34.5 -83.5q0 -53 34 -84.5
t95 -31.5h504q8 -24 8 -56q0 -33 -8 -57h-496q-129 0 -194.5 58t-65.5 159q0 66 35.5 118.5t97.5 80.5q-67 47 -103 120t-36 162q0 164 110 264t287 97l162 -2q96 -2 148.5 20.5t85.5 83.5q61 -16 88 -61zM760 614q3 137 -86 250l-154 2q-131 2 -203.5 -63t-72.5 -189
q0 -116 67 -178.5t191 -62.5q120 0 188 65t70 176z" />
    <glyph glyph-name="zero.osf" horiz-adv-x="1236" 
d="M618 -27q-238 0 -369.5 158t-131.5 416q0 170 56.5 298t171 201.5t273.5 73.5t274 -73.5t171.5 -202t56.5 -297.5t-56.5 -297t-171.5 -202.5t-274 -74.5zM618 80q97 0 170.5 34.5t119 97.5t68.5 147t23 188t-23 188t-68.5 147t-119 97.5t-170.5 34.5q-190 0 -285 -126.5
t-95 -340.5t95 -340.5t285 -126.5z" />
    <glyph glyph-name="one.osf" horiz-adv-x="641" 
d="M410 1108q19 0 39 -4v-1104q-27 -6 -58 -6q-28 0 -55 6v963l-238 -123q-42 34 -49 96l322 168q20 4 39 4z" />
    <glyph glyph-name="two.osf" horiz-adv-x="1001" 
d="M913 109q9 -27 9 -54q0 -28 -9 -55h-794q-6 18 -6 43q0 70 53 111q342 260 452.5 381t110.5 247q0 104 -71.5 169t-194.5 65q-96 0 -173.5 -39.5t-127.5 -93.5q-49 13 -70 67q58 71 158 121.5t213 50.5q169 0 276 -89.5t107 -250.5q0 -44 -8.5 -85.5t-31 -83.5t-44 -76
t-65 -78.5t-76 -75t-95 -80.5t-103 -81.5t-118.5 -90.5l-37 -25l39 3h606z" />
    <glyph glyph-name="three.osf" horiz-adv-x="985" 
d="M625 535q51 -13 93.5 -37t79.5 -62t58 -96.5t21 -132.5q0 -158 -118.5 -262.5t-305.5 -104.5q-229 0 -369 127q13 55 61 80q72 -59 142 -84.5t166 -25.5q140 0 225.5 72t85.5 198q0 127 -93 197.5t-284 70.5q-8 24 -8 47q0 26 8 45q158 0 232.5 67.5t74.5 174.5
q0 93 -64 151t-169 58q-176 0 -287 -119q-55 18 -68 64q127 157 355 157q148 0 247 -80t99 -221q0 -99 -51 -171t-131 -113z" />
    <glyph glyph-name="four.osf" horiz-adv-x="1069" 
d="M989 176q0 -28 -6 -55h-162v-283q-27 -6 -55 -6t-55 6v283h-635q-15 30 -15 55q0 39 27 78l629 840q14 4 51 4q39 0 53 -4v-869h162q6 -21 6 -49zM199 225h512v658l2 35l-23 -33z" />
    <glyph glyph-name="five.osf" horiz-adv-x="1001" 
d="M457 -162q-218 0 -346 119q16 59 65 86q38 -39 113 -71.5t168 -32.5q148 0 234.5 77.5t86.5 219.5q0 154 -102.5 221t-347.5 67h-172v566h678q6 -30 6 -60q0 -33 -4 -49h-568v-348h60q300 0 433.5 -93.5t133.5 -297.5q0 -189 -120.5 -296.5t-317.5 -107.5z" />
    <glyph glyph-name="six.osf" horiz-adv-x="1044" 
d="M565 764q170 0 278.5 -100t108.5 -287q0 -183 -117 -295.5t-300 -112.5q-193 0 -309.5 131t-116.5 361q0 141 41 267t110.5 222.5t165 174.5t202 130t222.5 82q41 -23 41 -94q-86 -23 -163.5 -55t-159.5 -84.5t-145.5 -117.5t-113.5 -158t-71 -201q134 137 327 137z
M539 72q137 0 221 79.5t84 225.5q0 76 -25.5 133.5t-69 89.5t-92.5 47t-104 15q-109 0 -186 -39t-144 -111q-2 -18 -2 -57q0 -178 89.5 -280.5t228.5 -102.5z" />
    <glyph glyph-name="seven.osf" horiz-adv-x="964" 
d="M899 1087q4 -16 4 -40q0 -68 -39 -136l-581 -1093q-63 10 -97 53l594 1104h-698q-6 18 -6 57q0 37 6 55h817z" />
    <glyph glyph-name="eight.osf" horiz-adv-x="1026" 
d="M629 686q51 -27 89 -51.5t76.5 -58t62.5 -69t39 -83t15 -102.5q0 -89 -33.5 -158.5t-90 -111t-125 -62.5t-144.5 -21q-66 0 -124 10.5t-110 35t-89 60.5t-58.5 90.5t-21.5 121.5q0 71 24.5 133.5t67.5 110t89.5 82t102.5 63.5q-121 66 -189.5 146.5t-68.5 197.5
q0 145 107.5 240.5t269.5 95.5t261.5 -87.5t99.5 -232.5q0 -64 -22.5 -121.5t-61.5 -100t-79 -73t-87 -55.5zM252 1028q0 -43 16 -81.5t38.5 -65t63.5 -55.5t72 -46t84 -43q1 -1 4.5 -2t4.5 -2q121 64 178 131.5t57 165.5t-71 159.5t-187 61.5q-113 0 -186.5 -62t-73.5 -161
zM516 70q121 0 203 58t82 173q0 51 -17.5 94t-41.5 73t-69 61t-81 50t-96 48q-1 0 -2 1t-2 1q-116 -54 -191.5 -136.5t-75.5 -191.5q0 -115 83 -173t208 -58z" />
    <glyph glyph-name="nine.osf" horiz-adv-x="1030" 
d="M489 1120q197 0 310.5 -147.5t113.5 -401.5q0 -157 -37.5 -280t-101 -204t-155 -135.5t-191 -80t-217.5 -31.5q-14 28 -14 58q0 21 6 39q98 6 177 23.5t152.5 54.5t125.5 92t88 139.5t49 195.5q-149 -104 -320 -104q-78 0 -147.5 24.5t-123.5 71t-86 120t-32 165.5
q0 178 112 289.5t291 111.5zM487 440q160 0 314 109v22q0 208 -86.5 328.5t-229.5 120.5q-129 0 -209.5 -80.5t-80.5 -220.5q0 -70 25 -125t67 -88t93 -49.5t107 -16.5z" />
    <glyph glyph-name="zero.tf" horiz-adv-x="1107" 
d="M555 -27q-222 0 -338.5 183.5t-116.5 502.5q0 320 117 503.5t338 183.5q149 0 252 -85t153 -238t50 -364q0 -317 -117.5 -501.5t-337.5 -184.5zM555 76q115 0 189.5 74.5t106.5 201.5t32 307t-32 307t-106.5 202t-189.5 75t-190 -75t-107.5 -202t-32.5 -307t32.5 -307
t107.5 -201.5t190 -74.5z" />
    <glyph glyph-name="one.tf" horiz-adv-x="1107" 
d="M961 100q8 -19 8 -49q0 -27 -8 -51h-719q-9 36 -9 49q0 15 9 51h321v1063l-327 -159q-44 40 -50 100l414 211q15 6 39 6t39 -6v-1215h283z" />
    <glyph glyph-name="two.tf" horiz-adv-x="1107" 
d="M981 113q8 -27 8 -56q0 -33 -8 -57h-825q-9 27 -9 43q0 52 56 111q373 401 480.5 543t107.5 266q0 128 -72.5 202t-206.5 74q-182 0 -322 -145q-48 13 -69 67q65 77 169 131t226 54q176 0 285.5 -96.5t109.5 -276.5q0 -48 -12 -96t-29 -90t-52.5 -95t-65.5 -92.5
t-85.5 -102t-94.5 -104.5t-111.5 -119t-118.5 -127l-35 -36l43 2h631z" />
    <glyph glyph-name="three.tf" horiz-adv-x="1107" 
d="M504 -25q-128 0 -222.5 37.5t-142.5 85.5q16 57 66 88q135 -108 299 -108q154 0 250 82.5t96 238.5q0 164 -106 245.5t-336 82.5h-37q-4 16 -4 25q0 32 34 71l353 377h-617q-6 30 -6 60q0 28 6 55h778q3 -9 3 -17q0 -67 -48 -122l-340 -357q69 -3 130.5 -18t118.5 -46.5
t98 -77t65.5 -114.5t24.5 -155q0 -87 -25 -159t-68.5 -122t-103 -85t-126.5 -51t-140 -16z" />
    <glyph glyph-name="four.tf" horiz-adv-x="1107" 
d="M997 428q0 -29 -6 -53h-157v-375q-27 -6 -58 -6q-28 0 -55 6v375h-586q-44 91 17 217l397 768q50 -9 102 -43l-383 -746q-29 -56 -26 -94h479v311q45 5 55 5q13 0 58 -5v-311h157q6 -24 6 -49z" />
    <glyph glyph-name="five.tf" horiz-adv-x="1107" 
d="M502 -29q-120 0 -209 36.5t-141 82.5q16 59 65 86q42 -38 118 -71t167 -33q173 0 265.5 87.5t92.5 243.5q0 155 -89 239.5t-263 84.5q-72 0 -164 -29.5t-123 -29.5q-19 0 -39 8v639h727q6 -27 6 -55q0 -22 -4 -58h-616v-414q108 50 227 50q218 0 336.5 -111.5
t118.5 -316.5q0 -203 -126 -321t-349 -118z" />
    <glyph glyph-name="six.tf" horiz-adv-x="1107" 
d="M590 799q177 0 293 -105t116 -301q0 -193 -121.5 -308.5t-308.5 -115.5q-197 0 -317.5 133t-120.5 361q0 151 42.5 285t113.5 232t166.5 175.5t199 124.5t213.5 70q31 -28 35 -99q-100 -20 -192.5 -61.5t-182 -108.5t-157.5 -171t-99 -232q146 121 320 121zM578 70
q138 0 223.5 83.5t85.5 239.5q0 79 -26.5 139t-72 94t-98.5 50t-112 16q-182 0 -326 -129q-4 -62 -4 -96q0 -182 90.5 -289.5t239.5 -107.5z" />
    <glyph glyph-name="seven.tf" horiz-adv-x="1107" 
d="M991 1315q8 -20 8 -43q0 -66 -41 -137l-612 -1164q-62 9 -100 56l628 1175h-749q-8 36 -8 55q0 22 8 58h866z" />
    <glyph glyph-name="eight.tf" horiz-adv-x="1107" 
d="M729 680q113 -62 176.5 -141t63.5 -199q0 -96 -35.5 -169t-95.5 -115t-131.5 -62.5t-151.5 -20.5q-85 0 -158.5 19.5t-133 58.5t-94 105.5t-34.5 154.5q0 65 23 128.5t62 114.5t78 89t83 70q-100 54 -150.5 122t-50.5 177q0 150 106.5 245t270.5 95q170 0 271.5 -90
t101.5 -238q0 -193 -201 -344zM291 1024q0 -31 8 -58t19 -47.5t34 -41.5t42.5 -35t55 -32t60 -29.5t68.5 -30.5q10 -4 30.5 -13.5t30.5 -13.5q92 66 136 134.5t44 160.5q0 106 -72 168.5t-190 62.5t-192 -63t-74 -162zM555 76q62 0 115 14t96 43t67.5 79.5t24.5 117.5
q0 48 -17 88.5t-43 70t-69.5 58t-82.5 47t-97 43.5q-45 20 -80 33q-89 -60 -155 -151t-66 -197q0 -66 24.5 -115t68 -77t97 -41t117.5 -13z" />
    <glyph glyph-name="nine.tf" horiz-adv-x="1107" 
d="M532 1354q203 0 317 -158.5t114 -456.5q0 -128 -20 -235t-55 -185.5t-86.5 -139t-111.5 -99.5t-133.5 -64t-147.5 -36t-159 -11q-12 24 -12 58q0 17 4 45q96 1 170.5 12t153 45t132.5 90.5t94 153.5t52 229q-148 -90 -312 -90q-186 0 -303.5 108t-117.5 304
q0 190 119.5 310t301.5 120zM535 612q166 0 315 99v28q0 253 -86 383.5t-238 130.5q-131 0 -219 -88t-88 -241q0 -77 27.5 -138.5t73.5 -98.5t101 -56t114 -19z" />
    <glyph glyph-name="currency.osf" horiz-adv-x="1228" 
d="M1087 520q0 -163 -102 -293l113 -116q-31 -51 -82 -82l-115 114q-130 -96 -287 -96q-156 0 -286 96l-113 -114q-45 25 -84 82l113 116q-103 131 -103 293q0 165 101 293l-115 119q36 55 84 84l115 -119q129 98 288 98q162 0 287 -98l115 117q46 -26 84 -84l-113 -117
q100 -127 100 -293zM612 154q151 0 258 107.5t107 260.5t-107 260t-258 107t-256.5 -106.5t-105.5 -260.5t105.5 -261t256.5 -107z" />
    <glyph glyph-name="dollar.osf" horiz-adv-x="952" 
d="M866 322q0 -141 -91.5 -225.5t-244.5 -98.5v-217q-12 -4 -45 -4q-27 0 -47 4v215q-114 7 -209.5 48t-146.5 91q16 55 70 84q47 -43 120.5 -77.5t165.5 -39.5v400q-334 38 -334 284q0 129 89 208t245 91v213q14 7 47 7q35 0 45 -7v-213q95 -5 175.5 -35.5t130.5 -68.5
q-9 -61 -58 -88q-116 78 -248 88v-367q336 -43 336 -292zM219 805q0 -78 51 -120.5t168 -59.5v356q-104 -7 -161.5 -55t-57.5 -121zM530 104q105 10 163.5 63.5t58.5 131.5q0 82 -47 129.5t-175 65.5v-390z" />
    <glyph glyph-name="sterling.osf" horiz-adv-x="1044" 
d="M938 100q8 -21 8 -45q0 -28 -8 -55h-782q0 69 22.5 139t45 147t22.5 163v34h-146q-4 32 -4 49q0 14 4 50h133q-20 106 -20 163q0 164 108.5 267.5t284.5 103.5q111 0 185 -28.5t139 -83.5q-9 -64 -62 -91q-119 103 -262 103q-133 0 -207.5 -71.5t-74.5 -190.5
q0 -47 22 -172h381q6 -27 6 -50q0 -25 -6 -49h-373v-34q0 -56 -13 -118.5t-33 -130t-27 -100.5h657z" />
    <glyph glyph-name="yen.osf" horiz-adv-x="1079" 
d="M862 430h-266v-143h266q6 -24 6 -45q0 -23 -6 -47h-266v-195q-24 -6 -57 -6q-30 0 -60 6v195h-268q-6 24 -6 47q0 21 6 45h268v143h-268q-6 21 -6 45t6 45h217l-362 557q33 10 69 10q40 0 68 -4l327 -518l17 -33l16 33l332 518q18 4 61 4q30 0 60 -10l-365 -557h211
q6 -21 6 -45t-6 -45z" />
    <glyph glyph-name="ampersand.ss02" horiz-adv-x="1271" 
d="M965 664v-261q-3 -78 -27 -145l227 -254q-27 -10 -67 -10q-36 0 -66 6l-145 160q-61 -86 -157 -134.5t-210 -48.5q-189 0 -303.5 107.5t-114.5 280.5q0 133 72 230t186 144q-68 76 -99.5 137t-31.5 136q0 129 93 217t239 88q176 0 287 -103q-14 -49 -64 -79
q-99 90 -219 90q-100 0 -161.5 -57.5t-61.5 -149.5q0 -66 36.5 -123.5t131.5 -161.5l344 -383q2 16 2 53h8v353h326q16 -46 0 -92h-225zM522 82q98 0 176 41t119 113l-385 423q-106 -32 -162.5 -110t-56.5 -184q0 -122 82 -202.5t227 -80.5z" />
    <glyph glyph-name="caroncomb.alt" 
d="M-158 1085q-31 6 -45 29q20 39 29.5 98t9.5 99q0 77 -18 127q18 14 59 14q31 0 49 -12q13 -39 13 -86q0 -77 -28 -150.5t-69 -118.5z" />
    <glyph glyph-name="gravecomb.case" 
d="M-70 1391l-368 168q3 70 59 104l334 -221q-3 -32 -25 -51z" />
    <glyph glyph-name="acutecomb.case" 
d="M-420 1391q-23 20 -26 51l333 221q32 -18 45 -42t15 -62z" />
    <glyph glyph-name="tildecomb.case" 
d="M-627 1427q-24 0 -49 9.5t-37 21.5q23 75 76.5 116.5t126.5 41.5q53 0 141.5 -43t122.5 -43q95 0 121 90q25 0 50.5 -9t35.5 -22q-23 -75 -76 -116t-125 -41q-43 0 -94 21.5t-96 43t-74 21.5q-97 0 -123 -91z" />
    <glyph glyph-name="acute.case" horiz-adv-x="485" 
d="M66 1391q-24 21 -27 51l334 221q31 -18 44 -42t15 -62z" />
    <glyph glyph-name="breve.case" horiz-adv-x="632" 
d="M315 1413q-109 0 -183 63.5t-83 161.5q44 16 86 11q15 -67 65 -105.5t117 -38.5q69 0 121.5 39.5t61.5 104.5q41 5 82 -11q-6 -94 -82 -159.5t-185 -65.5z" />
    <glyph glyph-name="caron.case" horiz-adv-x="620" 
d="M266 1399l-223 194q12 39 43 62l227 -166l219 166q33 -23 41 -62l-223 -194q-44 -12 -84 0z" />
    <glyph glyph-name="circumflex.case" horiz-adv-x="616" 
d="M84 1389q-33 20 -41 59l223 197q44 12 84 0l223 -195q-11 -40 -41 -61l-229 163z" />
    <glyph glyph-name="dieresis.case" horiz-adv-x="677" 
d="M139 1452q-36 0 -61 24t-25 60q0 34 25 58t61 24q34 0 57 -24t23 -58q0 -36 -23 -60t-57 -24zM541 1452q-34 0 -58 24t-24 60q0 34 23.5 58t58.5 24q34 0 58 -24t24 -58q0 -36 -24 -60t-58 -24z" />
    <glyph glyph-name="dotaccent.case" horiz-adv-x="282" 
d="M143 1452q-37 0 -62.5 24.5t-25.5 61.5t25.5 62.5t62.5 25.5q35 0 60.5 -25.5t25.5 -62.5q0 -36 -25 -61t-61 -25z" />
    <glyph glyph-name="grave.case" horiz-adv-x="491" 
d="M416 1391l-369 168q3 70 59 104l334 -221q-3 -32 -24 -51z" />
    <glyph glyph-name="hungarumlaut.case" horiz-adv-x="714" 
d="M90 1370q-19 9 -26.5 17.5t-12.5 23.5l213 277q63 -15 84 -80zM408 1370q-34 16 -41 41l215 277q63 -15 84 -80z" />
    <glyph glyph-name="macron.case" horiz-adv-x="655" 
d="M61 1475q-6 21 -6 49q0 3 6 45h531q6 -14 6 -45q0 -33 -6 -49h-531z" />
    <glyph glyph-name="ring.case" horiz-adv-x="473" 
d="M238 1341q-78 0 -133.5 55.5t-55.5 133.5q0 77 55.5 131.5t133.5 54.5q76 0 131 -55t55 -131q0 -78 -54.5 -133.5t-131.5 -55.5zM238 1421q44 0 73 32.5t29 76.5t-28.5 76t-73.5 32t-75 -32t-30 -76t30 -76.5t75 -32.5z" />
    <glyph glyph-name="tilde.case" horiz-adv-x="749" 
d="M121 1427q-24 0 -49 9.5t-37 21.5q23 75 76.5 116.5t126.5 41.5q53 0 141.5 -43t122.5 -43q95 0 121 90q25 0 50.5 -9t35.5 -22q-23 -75 -76 -116t-125 -41q-43 0 -94 21.5t-96 43t-74 21.5q-97 0 -123 -91z" />
    <glyph glyph-name="IJacute" horiz-adv-x="1017" 
d="M90 1391q-24 21 -27 51l334 221q32 -18 45 -42t15 -62zM594 1391q-24 21 -27 51l334 221q32 -18 45 -42t15 -62zM240 182q-30 0 -60 6v1129q27 8 60 8t57 -8v-1129q-27 -6 -57 -6zM496 -180q-87 0 -151.5 33t-96.5 71q22 61 74 80q54 -47 93 -63q39 -15 81 -15
q97 0 155 57.5t58 184.5v1147q21 8 61 8q33 0 57 -8v-1145q0 -90 -27.5 -159.5t-74.5 -110t-105 -60.5t-124 -20z" />
    <glyph glyph-name="ijacute" horiz-adv-x="933" 
d="M102 1073q-25 15 -34 49l292 271q51 -30 74 -95zM555 1073q-16 10 -23 20t-12 29l291 271q30 -17 47 -38.5t29 -56.5zM227 -6q-28 0 -55 6v963q24 8 55 8q34 0 58 -8v-963q-27 -6 -58 -6zM461 -401q-137 0 -221 84q19 56 61 79q40 -31 75 -46t85 -15q80 0 134 56t54 175
v1026q31 7 58 7t55 -7v-1026q0 -84 -26.5 -150t-70.5 -104.5t-96 -58.5t-108 -20z" />
    <glyph glyph-name="slashlong" horiz-adv-x="1163" 
d="M162 -53q-52 17 -64 63l906 1006q47 -18 63 -60z" />
    <glyph glyph-name="slashshort" horiz-adv-x="499" 
d="M70 555q-36 29 -39 78l405 209q32 -29 39 -80z" />
    <glyph glyph-name="stroke" horiz-adv-x="593" 
d="M59 915q-6 21 -6 46q0 23 6 47h480q6 -21 6 -47q0 -22 -6 -46h-480z" />
    <glyph glyph-name="caronalt" horiz-adv-x="256" 
d="M98 1085q-31 6 -45 29q20 39 29.5 98t9.5 99q0 77 -18 127q18 14 59 14q31 0 49 -12q13 -39 13 -86q0 -77 -28 -150.5t-69 -118.5z" />
    <glyph glyph-name="slashlong.case" horiz-adv-x="1333" 
d="M106 -31q-58 19 -73 74l1192 1305q53 -15 75 -68z" />
    <glyph glyph-name="slashshort.case" horiz-adv-x="573" 
d="M96 547q-14 10 -27 35.5t-16 48.5l463 235q14 -12 28 -39t15 -47z" />
    <glyph glyph-name="i.loclTRK" horiz-adv-x="456" 
d="M229 1159q-37 0 -64.5 26t-27.5 64q0 37 27 63.5t65 26.5q37 0 62.5 -26.5t25.5 -63.5q0 -38 -25.5 -64t-62.5 -26zM229 -6q-30 0 -57 6v963q24 8 57 8q35 0 56 -8v-963q-24 -6 -56 -6z" />
    <glyph glyph-name="uni1EF9.ss01" horiz-adv-x="1132" 
d="M436 1235q-83 0 -112 -92q-24 0 -50 9.5t-38 21.5q23 75 73.5 116t118.5 41q45 0 96.5 -21.5t97 -43t76.5 -21.5q84 0 113 90q54 0 84 -30q-22 -73 -72 -114.5t-116 -41.5q-57 0 -146 43t-125 43zM907 965q27 0 58 -7v-950q0 -185 -122.5 -296t-320.5 -111
q-149 0 -231 61t-82 166q0 170 213 248q-130 29 -198 120t-68 230v532q31 7 55 7q25 0 57 -7v-485q0 -75 14 -129.5t47 -98t93.5 -65.5t148.5 -22q162 0 281 78v722q31 7 55 7zM522 -297q150 0 240 84t90 221v115q-91 -46 -180 -62q-4 0 -8 -2q-11 0 -27 -4
q-167 -25 -239 -77t-72 -132q0 -69 52 -106t144 -37z" />
    <glyph glyph-name="uni1EF9.ss02" horiz-adv-x="1132" 
d="M436 1235q-83 0 -112 -92q-24 0 -50 9.5t-38 21.5q23 75 73.5 116t118.5 41q45 0 96.5 -21.5t97 -43t76.5 -21.5q84 0 113 90q54 0 84 -30q-22 -73 -72 -114.5t-116 -41.5q-57 0 -146 43t-125 43zM907 965q27 0 58 -7v-942q0 -185 -117.5 -298t-310.5 -113
q-252 0 -383 145q18 58 73 78q117 -121 310 -121q152 0 233.5 83.5t81.5 225.5v86q-140 -73 -307 -73q-193 0 -291 101.5t-98 272.5v555q31 7 55 7q25 0 57 -7v-514q0 -72 14 -125.5t47 -96.5t93.5 -65t148.5 -22q156 0 281 78v745q31 7 55 7z" />
    <glyph glyph-name="cent.osf" horiz-adv-x="1011" 
d="M913 145q-127 -106 -301 -114v-209q-21 -6 -47 -6q-23 0 -47 6v213q-188 21 -302 145t-114 334q0 203 116.5 330.5t299.5 150.5v222q24 6 47 6q26 0 47 -6v-218q185 -8 299 -114q-15 -54 -65 -82q-105 87 -234 94v-762q140 7 242 92q48 -30 59 -82zM219 514
q0 -152 78.5 -253t220.5 -122v752q-141 -21 -220 -125.5t-79 -251.5z" />
    </font>
</defs>
</svg>
